M48
; DRILL file {KiCad (5.1.6)-1} date 04/07/21 17:43:06
; FORMAT={-:-/ absolute / inch / decimal}
; #@! TF.CreationDate,2021-04-07T17:43:06+02:00
; #@! TF.GenerationSoftware,Kicad,Pcbnew,(5.1.6)-1
FMAT,2
INCH
T1C0.0157
T2C0.0394
%
G90
G05
T1
X1.5Y-1.0
X1.5Y-2.1
X1.5Y-2.2
X1.5Y-2.3
X1.5Y-2.4
X1.5Y-2.9
X1.5Y-3.0
X1.5Y-3.1
X1.6Y-1.0
X1.6Y-1.3
X1.6Y-2.0
X1.6Y-2.1
X1.6Y-2.2
X1.6Y-2.3
X1.6Y-2.4
X1.6Y-2.9
X1.6Y-3.0
X1.6Y-3.1
X1.7Y-1.8
X1.7Y-1.9
X1.7Y-2.0
X1.7Y-2.1
X1.7Y-2.2
X1.7Y-2.3
X1.7Y-2.4
X1.7Y-2.5
X1.7Y-2.6
X1.8Y-1.3
X1.8Y-1.4
X1.8Y-1.9
X1.8Y-2.0
X1.8Y-2.1
X1.8Y-2.2
X1.8Y-2.3
X1.8Y-2.4
X1.8Y-2.5
X1.8Y-2.6
X1.8Y-2.7
X1.9Y-1.225
X1.9Y-2.2
X1.9Y-2.3
X1.9693Y-1.925
X2.0Y-2.2
X2.0Y-2.3
X2.0Y-2.9
X2.0Y-3.0
X2.1Y-1.3
X2.1Y-1.4
X2.1Y-1.5
X2.1Y-1.6
X2.1Y-1.7
X2.1Y-2.2
X2.1Y-2.3
X2.1Y-2.5
X2.1Y-2.6
X2.1Y-2.7
X2.1Y-2.8
X2.1Y-2.9
X2.1Y-3.0
X2.2Y-1.3
X2.2Y-1.4
X2.2Y-1.5
X2.2Y-1.6
X2.2Y-1.7
X2.2Y-1.9
X2.2Y-2.0
X2.2Y-2.2
X2.2Y-2.3
X2.2Y-2.5
X2.2Y-2.6
X2.2Y-2.7
X2.2Y-2.8
X2.2Y-2.9
X2.2Y-3.0
X2.3Y-1.225
X2.3Y-1.9
X2.3Y-2.0
X2.3Y-2.2
X2.3Y-2.3
X2.4Y-1.9
X2.4Y-2.0
X2.4Y-2.3
X2.4Y-2.9
X2.4Y-3.0
X2.5Y-1.3
X2.5Y-1.4
X2.5Y-1.5
X2.5Y-1.6
X2.5Y-1.7
X2.5Y-1.9
X2.5Y-2.0
X2.5Y-2.5
X2.5Y-2.6
X2.5Y-2.7
X2.5Y-2.8
X2.5Y-2.9
X2.5Y-3.0
X2.6Y-1.3
X2.6Y-1.4
X2.6Y-1.5
X2.6Y-1.6
X2.6Y-1.7
X2.6Y-1.9
X2.6Y-2.5
X2.6Y-2.6
X2.6Y-2.7
X2.6Y-2.8
X2.6Y-2.9
X2.6Y-3.0
X2.7Y-1.225
X2.7Y-1.9
X2.7Y-2.0
X2.7Y-2.1
X2.7Y-2.2
X2.7Y-2.3
X2.8Y-1.9
X2.8Y-2.0
X2.8Y-2.1
X2.8Y-2.2
X2.8Y-2.3
X2.8Y-2.9
X2.8Y-3.0
X2.9Y-1.0
X2.9Y-1.3
X2.9Y-1.4
X2.9Y-1.5
X2.9Y-1.6
X2.9Y-1.7
X2.9Y-1.9
X2.9Y-2.0
X2.9Y-2.1
X2.9Y-2.2
X2.9Y-2.3
X2.9Y-2.5
X2.9Y-2.6
X2.9Y-2.7
X2.9Y-2.8
X2.9Y-2.9
X2.9Y-3.0
X3.0Y-1.0
X3.0Y-1.3
X3.0Y-1.4
X3.0Y-1.5
X3.0Y-1.6
X3.0Y-1.7
X3.0Y-1.9
X3.0Y-2.0
X3.0Y-2.1
X3.0Y-2.2
X3.0Y-2.3
X3.0Y-2.5
X3.0Y-2.6
X3.0Y-2.7
X3.0Y-2.8
X3.0Y-2.9
X3.0Y-3.0
X3.1Y-1.0
X3.1Y-1.225
X3.1Y-1.9
X3.1Y-2.0
X3.1Y-2.1
X3.1Y-2.2
X3.1Y-2.3
X3.2Y-1.9
X3.2Y-2.0
X3.2Y-2.1
X3.2Y-2.2
X3.2Y-2.3
X3.2Y-2.9
X3.2Y-3.0
X3.2Y-3.1
X3.3Y-1.0
X3.3Y-1.3
X3.3Y-1.4
X3.3Y-1.5
X3.3Y-1.6
X3.3Y-1.7
X3.3Y-1.8
X3.3Y-2.2
X3.3Y-2.3
X3.3Y-2.4
X3.3Y-2.5
X3.3Y-2.6
X3.3Y-2.7
X3.3Y-2.8
X3.3Y-2.9
X3.3Y-3.0
X3.3Y-3.1
X3.3693Y-1.925
X3.4Y-1.0
X3.4Y-1.3
X3.4Y-1.4
X3.4Y-1.5
X3.4Y-1.6
X3.4Y-1.7
X3.4Y-1.8
X3.4Y-2.2
X3.4Y-2.3
X3.4Y-2.4
X3.4Y-2.5
X3.4Y-2.6
X3.4Y-2.7
X3.4Y-2.8
X3.4Y-2.9
X3.4Y-3.0
X3.4Y-3.1
X3.5Y-1.0
X3.5Y-2.2
X3.5Y-2.3
X3.5Y-2.4
X3.5Y-2.5
X3.5Y-2.6
X3.5Y-2.7
X3.5Y-2.8
X3.5Y-2.9
X3.5Y-3.0
X3.5Y-3.1
X3.6Y-1.0
X3.6Y-2.3
X3.6Y-2.4
X3.6Y-2.5
X3.6Y-2.6
X3.6Y-2.7
X3.6Y-2.8
X3.6Y-2.9
X3.6Y-3.0
X3.6Y-3.1
X3.7Y-1.0
X3.7Y-1.975
X3.7Y-2.5
X3.7Y-2.6
X3.7Y-2.7
X3.7Y-2.8
X3.7Y-2.9
X3.7Y-3.0
X3.7Y-3.1
X3.8Y-1.0
X3.8Y-1.8
X3.8Y-2.0
X3.8Y-2.1
X3.8Y-2.2
X3.8Y-2.3
X3.8Y-2.4
X3.8Y-2.5
X3.8Y-2.6
X3.8Y-2.7
X3.8Y-2.8
X3.8Y-2.9
X3.8Y-3.0
X3.8Y-3.1
X3.9Y-1.0
X3.9Y-1.8
X3.9Y-2.2
X3.9Y-2.3
X3.9Y-2.4
X3.9Y-2.5
X3.9Y-2.6
X3.9Y-2.7
X3.9Y-2.8
X3.9Y-2.9
X3.9Y-3.0
X3.9Y-3.1
X4.0Y-1.0
X4.0Y-2.5
X4.0Y-2.6
X4.0Y-2.7
X4.0Y-2.8
X4.0Y-2.9
X4.0Y-3.0
X4.0Y-3.1
X4.1Y-1.0
X4.1Y-1.9
X4.1Y-2.5
X4.1Y-2.6
X4.1Y-2.7
X4.1Y-2.8
X4.1Y-2.9
X4.1Y-3.0
X4.1Y-3.1
T2
X4.025Y-1.65
X4.025Y-1.75
X3.575Y-1.65
X3.575Y-1.75
X1.5Y-1.2
X1.5Y-1.3
X1.5Y-1.4
X3.15Y-1.65
X3.15Y-1.75
X1.95Y-1.65
X1.95Y-1.75
X2.75Y-1.65
X2.75Y-1.75
X1.5Y-2.5
X1.5Y-2.6
X1.5Y-2.7
X1.5Y-2.8
X2.35Y-1.65
X2.35Y-1.75
X1.5Y-1.675
X1.5Y-1.775
X1.5Y-1.875
X1.5Y-1.975
T0
M30
