%TF.GenerationSoftware,KiCad,Pcbnew,(5.1.6)-1*%
%TF.CreationDate,2021-04-07T17:42:24+02:00*%
%TF.ProjectId,constant_current,636f6e73-7461-46e7-945f-63757272656e,rev?*%
%TF.SameCoordinates,Original*%
%TF.FileFunction,Legend,Top*%
%TF.FilePolarity,Positive*%
%FSLAX46Y46*%
G04 Gerber Fmt 4.6, Leading zero omitted, Abs format (unit mm)*
G04 Created by KiCad (PCBNEW (5.1.6)-1) date 2021-04-07 17:42:24*
%MOMM*%
%LPD*%
G01*
G04 APERTURE LIST*
%ADD10C,0.120000*%
%ADD11C,0.150000*%
G04 APERTURE END LIST*
D10*
X40884666Y-71527142D02*
X40884666Y-70627142D01*
X41051333Y-70627142D01*
X41151333Y-70670000D01*
X41218000Y-70755714D01*
X41251333Y-70841428D01*
X41284666Y-71012857D01*
X41284666Y-71141428D01*
X41251333Y-71312857D01*
X41218000Y-71398571D01*
X41151333Y-71484285D01*
X41051333Y-71527142D01*
X40884666Y-71527142D01*
X40718000Y-41741000D02*
X41418000Y-41741000D01*
X40884666Y-42952142D02*
X40884666Y-42052142D01*
X41051333Y-42052142D01*
X41151333Y-42095000D01*
X41218000Y-42180714D01*
X41251333Y-42266428D01*
X41284666Y-42437857D01*
X41284666Y-42566428D01*
X41251333Y-42737857D01*
X41218000Y-42823571D01*
X41151333Y-42909285D01*
X41051333Y-42952142D01*
X40884666Y-42952142D01*
X41284666Y-68901428D02*
X41251333Y-68944285D01*
X41151333Y-68987142D01*
X41084666Y-68987142D01*
X40984666Y-68944285D01*
X40918000Y-68858571D01*
X40884666Y-68772857D01*
X40851333Y-68601428D01*
X40851333Y-68472857D01*
X40884666Y-68301428D01*
X40918000Y-68215714D01*
X40984666Y-68130000D01*
X41084666Y-68087142D01*
X41151333Y-68087142D01*
X41251333Y-68130000D01*
X41284666Y-68172857D01*
X41118000Y-65975714D02*
X41218000Y-66018571D01*
X41251333Y-66061428D01*
X41284666Y-66147142D01*
X41284666Y-66275714D01*
X41251333Y-66361428D01*
X41218000Y-66404285D01*
X41151333Y-66447142D01*
X40884666Y-66447142D01*
X40884666Y-65547142D01*
X41118000Y-65547142D01*
X41184666Y-65590000D01*
X41218000Y-65632857D01*
X41251333Y-65718571D01*
X41251333Y-65804285D01*
X41218000Y-65890000D01*
X41184666Y-65932857D01*
X41118000Y-65975714D01*
X40884666Y-65975714D01*
X40851333Y-63650000D02*
X41184666Y-63650000D01*
X40784666Y-63907142D02*
X41018000Y-63007142D01*
X41251333Y-63907142D01*
X40718000Y-49361000D02*
X41318000Y-49361000D01*
X40851333Y-50315000D02*
X41184666Y-50315000D01*
X40784666Y-50572142D02*
X41018000Y-49672142D01*
X41251333Y-50572142D01*
X40718000Y-46821000D02*
X41418000Y-46821000D01*
X41118000Y-47560714D02*
X41218000Y-47603571D01*
X41251333Y-47646428D01*
X41284666Y-47732142D01*
X41284666Y-47860714D01*
X41251333Y-47946428D01*
X41218000Y-47989285D01*
X41151333Y-48032142D01*
X40884666Y-48032142D01*
X40884666Y-47132142D01*
X41118000Y-47132142D01*
X41184666Y-47175000D01*
X41218000Y-47217857D01*
X41251333Y-47303571D01*
X41251333Y-47389285D01*
X41218000Y-47475000D01*
X41184666Y-47517857D01*
X41118000Y-47560714D01*
X40884666Y-47560714D01*
X40718000Y-44281000D02*
X41418000Y-44281000D01*
X41284666Y-45406428D02*
X41251333Y-45449285D01*
X41151333Y-45492142D01*
X41084666Y-45492142D01*
X40984666Y-45449285D01*
X40918000Y-45363571D01*
X40884666Y-45277857D01*
X40851333Y-45106428D01*
X40851333Y-44977857D01*
X40884666Y-44806428D01*
X40918000Y-44720714D01*
X40984666Y-44635000D01*
X41084666Y-44592142D01*
X41151333Y-44592142D01*
X41251333Y-44635000D01*
X41284666Y-44677857D01*
X40884666Y-35967142D02*
X40884666Y-35067142D01*
X41151333Y-35067142D01*
X41218000Y-35110000D01*
X41251333Y-35152857D01*
X41284666Y-35238571D01*
X41284666Y-35367142D01*
X41251333Y-35452857D01*
X41218000Y-35495714D01*
X41151333Y-35538571D01*
X40884666Y-35538571D01*
X41518000Y-35067142D02*
X41684666Y-35967142D01*
X41818000Y-35324285D01*
X41951333Y-35967142D01*
X42118000Y-35067142D01*
X42384666Y-35967142D02*
X42384666Y-35067142D01*
X42618000Y-35710000D01*
X42851333Y-35067142D01*
X42851333Y-35967142D01*
X41251333Y-32570000D02*
X41184666Y-32527142D01*
X41084666Y-32527142D01*
X40984666Y-32570000D01*
X40918000Y-32655714D01*
X40884666Y-32741428D01*
X40851333Y-32912857D01*
X40851333Y-33041428D01*
X40884666Y-33212857D01*
X40918000Y-33298571D01*
X40984666Y-33384285D01*
X41084666Y-33427142D01*
X41151333Y-33427142D01*
X41251333Y-33384285D01*
X41284666Y-33341428D01*
X41284666Y-33041428D01*
X41151333Y-33041428D01*
X41584666Y-33427142D02*
X41584666Y-32527142D01*
X41984666Y-33427142D01*
X41984666Y-32527142D01*
X42318000Y-33427142D02*
X42318000Y-32527142D01*
X42484666Y-32527142D01*
X42584666Y-32570000D01*
X42651333Y-32655714D01*
X42684666Y-32741428D01*
X42718000Y-32912857D01*
X42718000Y-33041428D01*
X42684666Y-33212857D01*
X42651333Y-33298571D01*
X42584666Y-33384285D01*
X42484666Y-33427142D01*
X42318000Y-33427142D01*
X40884666Y-30544285D02*
X41418000Y-30544285D01*
X41151333Y-30887142D02*
X41151333Y-30201428D01*
X42084666Y-29987142D02*
X41751333Y-29987142D01*
X41718000Y-30415714D01*
X41751333Y-30372857D01*
X41818000Y-30330000D01*
X41984666Y-30330000D01*
X42051333Y-30372857D01*
X42084666Y-30415714D01*
X42118000Y-30501428D01*
X42118000Y-30715714D01*
X42084666Y-30801428D01*
X42051333Y-30844285D01*
X41984666Y-30887142D01*
X41818000Y-30887142D01*
X41751333Y-30844285D01*
X41718000Y-30801428D01*
X42318000Y-29987142D02*
X42551333Y-30887142D01*
X42784666Y-29987142D01*
X49496571Y-78837285D02*
X49496571Y-79373000D01*
X49460857Y-79480142D01*
X49389428Y-79551571D01*
X49282285Y-79587285D01*
X49210857Y-79587285D01*
X50210857Y-79587285D02*
X49853714Y-79587285D01*
X49853714Y-78837285D01*
X50889428Y-79515857D02*
X50853714Y-79551571D01*
X50746571Y-79587285D01*
X50675142Y-79587285D01*
X50568000Y-79551571D01*
X50496571Y-79480142D01*
X50460857Y-79408714D01*
X50425142Y-79265857D01*
X50425142Y-79158714D01*
X50460857Y-79015857D01*
X50496571Y-78944428D01*
X50568000Y-78873000D01*
X50675142Y-78837285D01*
X50746571Y-78837285D01*
X50853714Y-78873000D01*
X50889428Y-78908714D01*
X51425142Y-78837285D02*
X51425142Y-79373000D01*
X51389428Y-79480142D01*
X51318000Y-79551571D01*
X51210857Y-79587285D01*
X51139428Y-79587285D01*
X52139428Y-79587285D02*
X51782285Y-79587285D01*
X51782285Y-78837285D01*
X52818000Y-79515857D02*
X52782285Y-79551571D01*
X52675142Y-79587285D01*
X52603714Y-79587285D01*
X52496571Y-79551571D01*
X52425142Y-79480142D01*
X52389428Y-79408714D01*
X52353714Y-79265857D01*
X52353714Y-79158714D01*
X52389428Y-79015857D01*
X52425142Y-78944428D01*
X52496571Y-78873000D01*
X52603714Y-78837285D01*
X52675142Y-78837285D01*
X52782285Y-78873000D01*
X52818000Y-78908714D01*
X53353714Y-78837285D02*
X53353714Y-79373000D01*
X53318000Y-79480142D01*
X53246571Y-79551571D01*
X53139428Y-79587285D01*
X53068000Y-79587285D01*
X54068000Y-79587285D02*
X53710857Y-79587285D01*
X53710857Y-78837285D01*
X54746571Y-79515857D02*
X54710857Y-79551571D01*
X54603714Y-79587285D01*
X54532285Y-79587285D01*
X54425142Y-79551571D01*
X54353714Y-79480142D01*
X54318000Y-79408714D01*
X54282285Y-79265857D01*
X54282285Y-79158714D01*
X54318000Y-79015857D01*
X54353714Y-78944428D01*
X54425142Y-78873000D01*
X54532285Y-78837285D01*
X54603714Y-78837285D01*
X54710857Y-78873000D01*
X54746571Y-78908714D01*
X55282285Y-78837285D02*
X55282285Y-79373000D01*
X55246571Y-79480142D01*
X55175142Y-79551571D01*
X55068000Y-79587285D01*
X54996571Y-79587285D01*
X55996571Y-79587285D02*
X55639428Y-79587285D01*
X55639428Y-78837285D01*
X56675142Y-79515857D02*
X56639428Y-79551571D01*
X56532285Y-79587285D01*
X56460857Y-79587285D01*
X56353714Y-79551571D01*
X56282285Y-79480142D01*
X56246571Y-79408714D01*
X56210857Y-79265857D01*
X56210857Y-79158714D01*
X56246571Y-79015857D01*
X56282285Y-78944428D01*
X56353714Y-78873000D01*
X56460857Y-78837285D01*
X56532285Y-78837285D01*
X56639428Y-78873000D01*
X56675142Y-78908714D01*
D11*
X88267428Y-28781428D02*
X88224571Y-28824285D01*
X88095999Y-28867142D01*
X88010285Y-28867142D01*
X87881714Y-28824285D01*
X87795999Y-28738571D01*
X87753142Y-28652857D01*
X87710285Y-28481428D01*
X87710285Y-28352857D01*
X87753142Y-28181428D01*
X87795999Y-28095714D01*
X87881714Y-28010000D01*
X88010285Y-27967142D01*
X88095999Y-27967142D01*
X88224571Y-28010000D01*
X88267428Y-28052857D01*
X88781714Y-28867142D02*
X88695999Y-28824285D01*
X88653142Y-28781428D01*
X88610285Y-28695714D01*
X88610285Y-28438571D01*
X88653142Y-28352857D01*
X88695999Y-28310000D01*
X88781714Y-28267142D01*
X88910285Y-28267142D01*
X88995999Y-28310000D01*
X89038857Y-28352857D01*
X89081714Y-28438571D01*
X89081714Y-28695714D01*
X89038857Y-28781428D01*
X88995999Y-28824285D01*
X88910285Y-28867142D01*
X88781714Y-28867142D01*
X89467428Y-28267142D02*
X89467428Y-28867142D01*
X89467428Y-28352857D02*
X89510285Y-28310000D01*
X89595999Y-28267142D01*
X89724571Y-28267142D01*
X89810285Y-28310000D01*
X89853142Y-28395714D01*
X89853142Y-28867142D01*
X90238857Y-28824285D02*
X90324571Y-28867142D01*
X90495999Y-28867142D01*
X90581714Y-28824285D01*
X90624571Y-28738571D01*
X90624571Y-28695714D01*
X90581714Y-28610000D01*
X90495999Y-28567142D01*
X90367428Y-28567142D01*
X90281714Y-28524285D01*
X90238857Y-28438571D01*
X90238857Y-28395714D01*
X90281714Y-28310000D01*
X90367428Y-28267142D01*
X90495999Y-28267142D01*
X90581714Y-28310000D01*
X90881714Y-28267142D02*
X91224571Y-28267142D01*
X91010285Y-27967142D02*
X91010285Y-28738571D01*
X91053142Y-28824285D01*
X91138857Y-28867142D01*
X91224571Y-28867142D01*
X91910285Y-28867142D02*
X91910285Y-28395714D01*
X91867428Y-28310000D01*
X91781714Y-28267142D01*
X91610285Y-28267142D01*
X91524571Y-28310000D01*
X91910285Y-28824285D02*
X91824571Y-28867142D01*
X91610285Y-28867142D01*
X91524571Y-28824285D01*
X91481714Y-28738571D01*
X91481714Y-28652857D01*
X91524571Y-28567142D01*
X91610285Y-28524285D01*
X91824571Y-28524285D01*
X91910285Y-28481428D01*
X92338857Y-28267142D02*
X92338857Y-28867142D01*
X92338857Y-28352857D02*
X92381714Y-28310000D01*
X92467428Y-28267142D01*
X92595999Y-28267142D01*
X92681714Y-28310000D01*
X92724571Y-28395714D01*
X92724571Y-28867142D01*
X93024571Y-28267142D02*
X93367428Y-28267142D01*
X93153142Y-27967142D02*
X93153142Y-28738571D01*
X93195999Y-28824285D01*
X93281714Y-28867142D01*
X93367428Y-28867142D01*
X94867428Y-28781428D02*
X94824571Y-28824285D01*
X94695999Y-28867142D01*
X94610285Y-28867142D01*
X94481714Y-28824285D01*
X94395999Y-28738571D01*
X94353142Y-28652857D01*
X94310285Y-28481428D01*
X94310285Y-28352857D01*
X94353142Y-28181428D01*
X94395999Y-28095714D01*
X94481714Y-28010000D01*
X94610285Y-27967142D01*
X94695999Y-27967142D01*
X94824571Y-28010000D01*
X94867428Y-28052857D01*
X95638857Y-28267142D02*
X95638857Y-28867142D01*
X95253142Y-28267142D02*
X95253142Y-28738571D01*
X95295999Y-28824285D01*
X95381714Y-28867142D01*
X95510285Y-28867142D01*
X95595999Y-28824285D01*
X95638857Y-28781428D01*
X96067428Y-28867142D02*
X96067428Y-28267142D01*
X96067428Y-28438571D02*
X96110285Y-28352857D01*
X96153142Y-28310000D01*
X96238857Y-28267142D01*
X96324571Y-28267142D01*
X96624571Y-28867142D02*
X96624571Y-28267142D01*
X96624571Y-28438571D02*
X96667428Y-28352857D01*
X96710285Y-28310000D01*
X96795999Y-28267142D01*
X96881714Y-28267142D01*
X97524571Y-28824285D02*
X97438857Y-28867142D01*
X97267428Y-28867142D01*
X97181714Y-28824285D01*
X97138857Y-28738571D01*
X97138857Y-28395714D01*
X97181714Y-28310000D01*
X97267428Y-28267142D01*
X97438857Y-28267142D01*
X97524571Y-28310000D01*
X97567428Y-28395714D01*
X97567428Y-28481428D01*
X97138857Y-28567142D01*
X97953142Y-28267142D02*
X97953142Y-28867142D01*
X97953142Y-28352857D02*
X97995999Y-28310000D01*
X98081714Y-28267142D01*
X98210285Y-28267142D01*
X98295999Y-28310000D01*
X98338857Y-28395714D01*
X98338857Y-28867142D01*
X98638857Y-28267142D02*
X98981714Y-28267142D01*
X98767428Y-27967142D02*
X98767428Y-28738571D01*
X98810285Y-28824285D01*
X98895999Y-28867142D01*
X98981714Y-28867142D01*
X99838857Y-27967142D02*
X100353142Y-27967142D01*
X100095999Y-28867142D02*
X100095999Y-27967142D01*
X100995999Y-28824285D02*
X100910285Y-28867142D01*
X100738857Y-28867142D01*
X100653142Y-28824285D01*
X100610285Y-28738571D01*
X100610285Y-28395714D01*
X100653142Y-28310000D01*
X100738857Y-28267142D01*
X100910285Y-28267142D01*
X100995999Y-28310000D01*
X101038857Y-28395714D01*
X101038857Y-28481428D01*
X100610285Y-28567142D01*
X101381714Y-28824285D02*
X101467428Y-28867142D01*
X101638857Y-28867142D01*
X101724571Y-28824285D01*
X101767428Y-28738571D01*
X101767428Y-28695714D01*
X101724571Y-28610000D01*
X101638857Y-28567142D01*
X101510285Y-28567142D01*
X101424571Y-28524285D01*
X101381714Y-28438571D01*
X101381714Y-28395714D01*
X101424571Y-28310000D01*
X101510285Y-28267142D01*
X101638857Y-28267142D01*
X101724571Y-28310000D01*
X102024571Y-28267142D02*
X102367428Y-28267142D01*
X102153142Y-27967142D02*
X102153142Y-28738571D01*
X102195999Y-28824285D01*
X102281714Y-28867142D01*
X102367428Y-28867142D01*
X88653142Y-29467142D02*
X89167428Y-29467142D01*
X88910285Y-30367142D02*
X88910285Y-29467142D01*
X89467428Y-30367142D02*
X89467428Y-29767142D01*
X89467428Y-29467142D02*
X89424571Y-29510000D01*
X89467428Y-29552857D01*
X89510285Y-29510000D01*
X89467428Y-29467142D01*
X89467428Y-29552857D01*
X89896000Y-30367142D02*
X89896000Y-29767142D01*
X89896000Y-29852857D02*
X89938857Y-29810000D01*
X90024571Y-29767142D01*
X90153142Y-29767142D01*
X90238857Y-29810000D01*
X90281714Y-29895714D01*
X90281714Y-30367142D01*
X90281714Y-29895714D02*
X90324571Y-29810000D01*
X90410285Y-29767142D01*
X90538857Y-29767142D01*
X90624571Y-29810000D01*
X90667428Y-29895714D01*
X90667428Y-30367142D01*
X92253142Y-29510000D02*
X92167428Y-29467142D01*
X92038857Y-29467142D01*
X91910285Y-29510000D01*
X91824571Y-29595714D01*
X91781714Y-29681428D01*
X91738857Y-29852857D01*
X91738857Y-29981428D01*
X91781714Y-30152857D01*
X91824571Y-30238571D01*
X91910285Y-30324285D01*
X92038857Y-30367142D01*
X92124571Y-30367142D01*
X92253142Y-30324285D01*
X92296000Y-30281428D01*
X92296000Y-29981428D01*
X92124571Y-29981428D01*
X92810285Y-30367142D02*
X92724571Y-30324285D01*
X92681714Y-30281428D01*
X92638857Y-30195714D01*
X92638857Y-29938571D01*
X92681714Y-29852857D01*
X92724571Y-29810000D01*
X92810285Y-29767142D01*
X92938857Y-29767142D01*
X93024571Y-29810000D01*
X93067428Y-29852857D01*
X93110285Y-29938571D01*
X93110285Y-30195714D01*
X93067428Y-30281428D01*
X93024571Y-30324285D01*
X92938857Y-30367142D01*
X92810285Y-30367142D01*
X93624571Y-30367142D02*
X93538857Y-30324285D01*
X93496000Y-30238571D01*
X93496000Y-29467142D01*
X94096000Y-30367142D02*
X94010285Y-30324285D01*
X93967428Y-30238571D01*
X93967428Y-29467142D01*
X94481714Y-30324285D02*
X94481714Y-30367142D01*
X94438857Y-30452857D01*
X94396000Y-30495714D01*
X95724571Y-29467142D02*
X95810285Y-29467142D01*
X95896000Y-29510000D01*
X95938857Y-29552857D01*
X95981714Y-29638571D01*
X96024571Y-29810000D01*
X96024571Y-30024285D01*
X95981714Y-30195714D01*
X95938857Y-30281428D01*
X95896000Y-30324285D01*
X95810285Y-30367142D01*
X95724571Y-30367142D01*
X95638857Y-30324285D01*
X95596000Y-30281428D01*
X95553142Y-30195714D01*
X95510285Y-30024285D01*
X95510285Y-29810000D01*
X95553142Y-29638571D01*
X95596000Y-29552857D01*
X95638857Y-29510000D01*
X95724571Y-29467142D01*
X96796000Y-29767142D02*
X96796000Y-30367142D01*
X96581714Y-29424285D02*
X96367428Y-30067142D01*
X96924571Y-30067142D01*
X97910285Y-29424285D02*
X97138857Y-30581428D01*
X98167428Y-29552857D02*
X98210285Y-29510000D01*
X98296000Y-29467142D01*
X98510285Y-29467142D01*
X98596000Y-29510000D01*
X98638857Y-29552857D01*
X98681714Y-29638571D01*
X98681714Y-29724285D01*
X98638857Y-29852857D01*
X98124571Y-30367142D01*
X98681714Y-30367142D01*
X99238857Y-29467142D02*
X99324571Y-29467142D01*
X99410285Y-29510000D01*
X99453142Y-29552857D01*
X99496000Y-29638571D01*
X99538857Y-29810000D01*
X99538857Y-30024285D01*
X99496000Y-30195714D01*
X99453142Y-30281428D01*
X99410285Y-30324285D01*
X99324571Y-30367142D01*
X99238857Y-30367142D01*
X99153142Y-30324285D01*
X99110285Y-30281428D01*
X99067428Y-30195714D01*
X99024571Y-30024285D01*
X99024571Y-29810000D01*
X99067428Y-29638571D01*
X99110285Y-29552857D01*
X99153142Y-29510000D01*
X99238857Y-29467142D01*
X99881714Y-29552857D02*
X99924571Y-29510000D01*
X100010285Y-29467142D01*
X100224571Y-29467142D01*
X100310285Y-29510000D01*
X100353142Y-29552857D01*
X100395999Y-29638571D01*
X100395999Y-29724285D01*
X100353142Y-29852857D01*
X99838857Y-30367142D01*
X100395999Y-30367142D01*
X101253142Y-30367142D02*
X100738857Y-30367142D01*
X100995999Y-30367142D02*
X100995999Y-29467142D01*
X100910285Y-29595714D01*
X100824571Y-29681428D01*
X100738857Y-29724285D01*
D10*
X85090000Y-38100000D02*
X85090000Y-48260000D01*
X96520000Y-38100000D02*
X96520000Y-48260000D01*
%TO.C,J1*%
X36770000Y-29150000D02*
X38100000Y-29150000D01*
X36770000Y-30480000D02*
X36770000Y-29150000D01*
X36770000Y-31750000D02*
X39430000Y-31750000D01*
X39430000Y-31750000D02*
X39430000Y-36890000D01*
X36770000Y-31750000D02*
X36770000Y-36890000D01*
X36770000Y-36890000D02*
X39430000Y-36890000D01*
%TO.C,LED*%
X92135000Y-40580000D02*
X89475000Y-40580000D01*
X92135000Y-43180000D02*
X92135000Y-40580000D01*
X89475000Y-43180000D02*
X89475000Y-40580000D01*
X92135000Y-43180000D02*
X89475000Y-43180000D01*
X92135000Y-44450000D02*
X92135000Y-45780000D01*
X92135000Y-45780000D02*
X90805000Y-45780000D01*
X103565000Y-45780000D02*
X102235000Y-45780000D01*
X103565000Y-44450000D02*
X103565000Y-45780000D01*
X103565000Y-43180000D02*
X100905000Y-43180000D01*
X100905000Y-43180000D02*
X100905000Y-40580000D01*
X103565000Y-43180000D02*
X103565000Y-40580000D01*
X103565000Y-40580000D02*
X100905000Y-40580000D01*
%TO.C,J4*%
X39430000Y-51495000D02*
X38100000Y-51495000D01*
X39430000Y-50165000D02*
X39430000Y-51495000D01*
X39430000Y-48895000D02*
X36770000Y-48895000D01*
X36770000Y-48895000D02*
X36770000Y-41215000D01*
X39430000Y-48895000D02*
X39430000Y-41215000D01*
X39430000Y-41215000D02*
X36770000Y-41215000D01*
%TO.C,J5*%
X36770000Y-72450000D02*
X39430000Y-72450000D01*
X36770000Y-64770000D02*
X36770000Y-72450000D01*
X39430000Y-64770000D02*
X39430000Y-72450000D01*
X36770000Y-64770000D02*
X39430000Y-64770000D01*
X36770000Y-63500000D02*
X36770000Y-62170000D01*
X36770000Y-62170000D02*
X38100000Y-62170000D01*
%TO.C,LED A*%
X50860000Y-40580000D02*
X48200000Y-40580000D01*
X50860000Y-43180000D02*
X50860000Y-40580000D01*
X48200000Y-43180000D02*
X48200000Y-40580000D01*
X50860000Y-43180000D02*
X48200000Y-43180000D01*
X50860000Y-44450000D02*
X50860000Y-45780000D01*
X50860000Y-45780000D02*
X49530000Y-45780000D01*
%TO.C,LED B*%
X61020000Y-45780000D02*
X59690000Y-45780000D01*
X61020000Y-44450000D02*
X61020000Y-45780000D01*
X61020000Y-43180000D02*
X58360000Y-43180000D01*
X58360000Y-43180000D02*
X58360000Y-40580000D01*
X61020000Y-43180000D02*
X61020000Y-40580000D01*
X61020000Y-40580000D02*
X58360000Y-40580000D01*
%TO.C,LED C*%
X71180000Y-40580000D02*
X68520000Y-40580000D01*
X71180000Y-43180000D02*
X71180000Y-40580000D01*
X68520000Y-43180000D02*
X68520000Y-40580000D01*
X71180000Y-43180000D02*
X68520000Y-43180000D01*
X71180000Y-44450000D02*
X71180000Y-45780000D01*
X71180000Y-45780000D02*
X69850000Y-45780000D01*
%TO.C,LED D*%
X81340000Y-45780000D02*
X80010000Y-45780000D01*
X81340000Y-44450000D02*
X81340000Y-45780000D01*
X81340000Y-43180000D02*
X78680000Y-43180000D01*
X78680000Y-43180000D02*
X78680000Y-40580000D01*
X81340000Y-43180000D02*
X81340000Y-40580000D01*
X81340000Y-40580000D02*
X78680000Y-40580000D01*
%TO.C,Q1*%
X95560000Y-52580000D02*
X95560000Y-54040000D01*
X92400000Y-52580000D02*
X92400000Y-55740000D01*
X92400000Y-52580000D02*
X93330000Y-52580000D01*
X95560000Y-52580000D02*
X94630000Y-52580000D01*
%TO.C,Q2*%
X103815000Y-52580000D02*
X103815000Y-54040000D01*
X100655000Y-52580000D02*
X100655000Y-55740000D01*
X100655000Y-52580000D02*
X101585000Y-52580000D01*
X103815000Y-52580000D02*
X102885000Y-52580000D01*
%TO.C,Q3*%
X51110000Y-67820000D02*
X51110000Y-69280000D01*
X47950000Y-67820000D02*
X47950000Y-70980000D01*
X47950000Y-67820000D02*
X48880000Y-67820000D01*
X51110000Y-67820000D02*
X50180000Y-67820000D01*
%TO.C,Q4*%
X47950000Y-34820000D02*
X48880000Y-34820000D01*
X51110000Y-34820000D02*
X50180000Y-34820000D01*
X51110000Y-34820000D02*
X51110000Y-31660000D01*
X47950000Y-34820000D02*
X47950000Y-33360000D01*
%TO.C,Q5*%
X61270000Y-67820000D02*
X61270000Y-69280000D01*
X58110000Y-67820000D02*
X58110000Y-70980000D01*
X58110000Y-67820000D02*
X59040000Y-67820000D01*
X61270000Y-67820000D02*
X60340000Y-67820000D01*
%TO.C,Q6*%
X58110000Y-34820000D02*
X59040000Y-34820000D01*
X61270000Y-34820000D02*
X60340000Y-34820000D01*
X61270000Y-34820000D02*
X61270000Y-31660000D01*
X58110000Y-34820000D02*
X58110000Y-33360000D01*
%TO.C,Q7*%
X66350000Y-52580000D02*
X66350000Y-54040000D01*
X63190000Y-52580000D02*
X63190000Y-55740000D01*
X63190000Y-52580000D02*
X64120000Y-52580000D01*
X66350000Y-52580000D02*
X65420000Y-52580000D01*
%TO.C,Q8*%
X71430000Y-67820000D02*
X70500000Y-67820000D01*
X68270000Y-67820000D02*
X69200000Y-67820000D01*
X68270000Y-67820000D02*
X68270000Y-70980000D01*
X71430000Y-67820000D02*
X71430000Y-69280000D01*
%TO.C,Q9*%
X68270000Y-34820000D02*
X68270000Y-33360000D01*
X71430000Y-34820000D02*
X71430000Y-31660000D01*
X71430000Y-34820000D02*
X70500000Y-34820000D01*
X68270000Y-34820000D02*
X69200000Y-34820000D01*
%TO.C,Q10*%
X81590000Y-67820000D02*
X81590000Y-69280000D01*
X78430000Y-67820000D02*
X78430000Y-70980000D01*
X78430000Y-67820000D02*
X79360000Y-67820000D01*
X81590000Y-67820000D02*
X80660000Y-67820000D01*
%TO.C,Q11*%
X78430000Y-34820000D02*
X79360000Y-34820000D01*
X81590000Y-34820000D02*
X80660000Y-34820000D01*
X81590000Y-34820000D02*
X81590000Y-31660000D01*
X78430000Y-34820000D02*
X78430000Y-33360000D01*
%TO.C,R1*%
X86343748Y-48185000D02*
X86866252Y-48185000D01*
X86343748Y-49605000D02*
X86866252Y-49605000D01*
%TO.C,R2*%
X99043748Y-49605000D02*
X99566252Y-49605000D01*
X99043748Y-48185000D02*
X99566252Y-48185000D01*
%TO.C,R3*%
X93905000Y-59038748D02*
X93905000Y-59561252D01*
X95325000Y-59038748D02*
X95325000Y-59561252D01*
%TO.C,R4*%
X103580000Y-59038748D02*
X103580000Y-59561252D01*
X102160000Y-59038748D02*
X102160000Y-59561252D01*
%TO.C,R5*%
X50783748Y-49605000D02*
X51306252Y-49605000D01*
X50783748Y-48185000D02*
X51306252Y-48185000D01*
%TO.C,R6*%
X48970000Y-74423748D02*
X48970000Y-74946252D01*
X47550000Y-74423748D02*
X47550000Y-74946252D01*
%TO.C,R7*%
X48820000Y-61723748D02*
X48820000Y-62246252D01*
X50240000Y-61723748D02*
X50240000Y-62246252D01*
%TO.C,R8*%
X51510000Y-28446252D02*
X51510000Y-27923748D01*
X50090000Y-28446252D02*
X50090000Y-27923748D01*
%TO.C,R9*%
X59130000Y-74423748D02*
X59130000Y-74946252D01*
X57710000Y-74423748D02*
X57710000Y-74946252D01*
%TO.C,R10*%
X58980000Y-61723748D02*
X58980000Y-62246252D01*
X60400000Y-61723748D02*
X60400000Y-62246252D01*
%TO.C,R11*%
X60250000Y-28446252D02*
X60250000Y-27923748D01*
X61670000Y-28446252D02*
X61670000Y-27923748D01*
%TO.C,R12*%
X67870000Y-74423748D02*
X67870000Y-74946252D01*
X69290000Y-74423748D02*
X69290000Y-74946252D01*
%TO.C,R13*%
X70560000Y-61723748D02*
X70560000Y-62246252D01*
X69140000Y-61723748D02*
X69140000Y-62246252D01*
%TO.C,R14*%
X71830000Y-28446252D02*
X71830000Y-27923748D01*
X70410000Y-28446252D02*
X70410000Y-27923748D01*
%TO.C,R15*%
X79450000Y-74423748D02*
X79450000Y-74946252D01*
X78030000Y-74423748D02*
X78030000Y-74946252D01*
%TO.C,R16*%
X79300000Y-61723748D02*
X79300000Y-62246252D01*
X80720000Y-61723748D02*
X80720000Y-62246252D01*
%TO.C,R17*%
X80570000Y-28446252D02*
X80570000Y-27923748D01*
X81990000Y-28446252D02*
X81990000Y-27923748D01*
%TO.C,U1*%
X85600000Y-51125000D02*
X85600000Y-52055000D01*
X85600000Y-54285000D02*
X85600000Y-53355000D01*
X85600000Y-54285000D02*
X88760000Y-54285000D01*
X85600000Y-51125000D02*
X87060000Y-51125000D01*
%TO.C,U2*%
X49810000Y-51440000D02*
X49810000Y-52370000D01*
X49810000Y-54600000D02*
X49810000Y-53670000D01*
X49810000Y-54600000D02*
X52970000Y-54600000D01*
X49810000Y-51440000D02*
X51270000Y-51440000D01*
%TO.C,LED*%
D11*
X90162142Y-47232380D02*
X89685952Y-47232380D01*
X89685952Y-46232380D01*
X90495476Y-46708571D02*
X90828809Y-46708571D01*
X90971666Y-47232380D02*
X90495476Y-47232380D01*
X90495476Y-46232380D01*
X90971666Y-46232380D01*
X91400238Y-47232380D02*
X91400238Y-46232380D01*
X91638333Y-46232380D01*
X91781190Y-46280000D01*
X91876428Y-46375238D01*
X91924047Y-46470476D01*
X91971666Y-46660952D01*
X91971666Y-46803809D01*
X91924047Y-46994285D01*
X91876428Y-47089523D01*
X91781190Y-47184761D01*
X91638333Y-47232380D01*
X91400238Y-47232380D01*
X101592142Y-47232380D02*
X101115952Y-47232380D01*
X101115952Y-46232380D01*
X101925476Y-46708571D02*
X102258809Y-46708571D01*
X102401666Y-47232380D02*
X101925476Y-47232380D01*
X101925476Y-46232380D01*
X102401666Y-46232380D01*
X102830238Y-47232380D02*
X102830238Y-46232380D01*
X103068333Y-46232380D01*
X103211190Y-46280000D01*
X103306428Y-46375238D01*
X103354047Y-46470476D01*
X103401666Y-46660952D01*
X103401666Y-46803809D01*
X103354047Y-46994285D01*
X103306428Y-47089523D01*
X103211190Y-47184761D01*
X103068333Y-47232380D01*
X102830238Y-47232380D01*
%TO.C,LED A*%
X48077619Y-47232380D02*
X47601428Y-47232380D01*
X47601428Y-46232380D01*
X48410952Y-46708571D02*
X48744285Y-46708571D01*
X48887142Y-47232380D02*
X48410952Y-47232380D01*
X48410952Y-46232380D01*
X48887142Y-46232380D01*
X49315714Y-47232380D02*
X49315714Y-46232380D01*
X49553809Y-46232380D01*
X49696666Y-46280000D01*
X49791904Y-46375238D01*
X49839523Y-46470476D01*
X49887142Y-46660952D01*
X49887142Y-46803809D01*
X49839523Y-46994285D01*
X49791904Y-47089523D01*
X49696666Y-47184761D01*
X49553809Y-47232380D01*
X49315714Y-47232380D01*
X51030000Y-46946666D02*
X51506190Y-46946666D01*
X50934761Y-47232380D02*
X51268095Y-46232380D01*
X51601428Y-47232380D01*
%TO.C,LED B*%
X58166190Y-47232380D02*
X57690000Y-47232380D01*
X57690000Y-46232380D01*
X58499523Y-46708571D02*
X58832857Y-46708571D01*
X58975714Y-47232380D02*
X58499523Y-47232380D01*
X58499523Y-46232380D01*
X58975714Y-46232380D01*
X59404285Y-47232380D02*
X59404285Y-46232380D01*
X59642380Y-46232380D01*
X59785238Y-46280000D01*
X59880476Y-46375238D01*
X59928095Y-46470476D01*
X59975714Y-46660952D01*
X59975714Y-46803809D01*
X59928095Y-46994285D01*
X59880476Y-47089523D01*
X59785238Y-47184761D01*
X59642380Y-47232380D01*
X59404285Y-47232380D01*
X61499523Y-46708571D02*
X61642380Y-46756190D01*
X61690000Y-46803809D01*
X61737619Y-46899047D01*
X61737619Y-47041904D01*
X61690000Y-47137142D01*
X61642380Y-47184761D01*
X61547142Y-47232380D01*
X61166190Y-47232380D01*
X61166190Y-46232380D01*
X61499523Y-46232380D01*
X61594761Y-46280000D01*
X61642380Y-46327619D01*
X61690000Y-46422857D01*
X61690000Y-46518095D01*
X61642380Y-46613333D01*
X61594761Y-46660952D01*
X61499523Y-46708571D01*
X61166190Y-46708571D01*
%TO.C,LED C*%
X68326190Y-47232380D02*
X67850000Y-47232380D01*
X67850000Y-46232380D01*
X68659523Y-46708571D02*
X68992857Y-46708571D01*
X69135714Y-47232380D02*
X68659523Y-47232380D01*
X68659523Y-46232380D01*
X69135714Y-46232380D01*
X69564285Y-47232380D02*
X69564285Y-46232380D01*
X69802380Y-46232380D01*
X69945238Y-46280000D01*
X70040476Y-46375238D01*
X70088095Y-46470476D01*
X70135714Y-46660952D01*
X70135714Y-46803809D01*
X70088095Y-46994285D01*
X70040476Y-47089523D01*
X69945238Y-47184761D01*
X69802380Y-47232380D01*
X69564285Y-47232380D01*
X71897619Y-47137142D02*
X71850000Y-47184761D01*
X71707142Y-47232380D01*
X71611904Y-47232380D01*
X71469047Y-47184761D01*
X71373809Y-47089523D01*
X71326190Y-46994285D01*
X71278571Y-46803809D01*
X71278571Y-46660952D01*
X71326190Y-46470476D01*
X71373809Y-46375238D01*
X71469047Y-46280000D01*
X71611904Y-46232380D01*
X71707142Y-46232380D01*
X71850000Y-46280000D01*
X71897619Y-46327619D01*
%TO.C,LED D*%
X78486190Y-47232380D02*
X78010000Y-47232380D01*
X78010000Y-46232380D01*
X78819523Y-46708571D02*
X79152857Y-46708571D01*
X79295714Y-47232380D02*
X78819523Y-47232380D01*
X78819523Y-46232380D01*
X79295714Y-46232380D01*
X79724285Y-47232380D02*
X79724285Y-46232380D01*
X79962380Y-46232380D01*
X80105238Y-46280000D01*
X80200476Y-46375238D01*
X80248095Y-46470476D01*
X80295714Y-46660952D01*
X80295714Y-46803809D01*
X80248095Y-46994285D01*
X80200476Y-47089523D01*
X80105238Y-47184761D01*
X79962380Y-47232380D01*
X79724285Y-47232380D01*
X81486190Y-47232380D02*
X81486190Y-46232380D01*
X81724285Y-46232380D01*
X81867142Y-46280000D01*
X81962380Y-46375238D01*
X82010000Y-46470476D01*
X82057619Y-46660952D01*
X82057619Y-46803809D01*
X82010000Y-46994285D01*
X81962380Y-47089523D01*
X81867142Y-47184761D01*
X81724285Y-47232380D01*
X81486190Y-47232380D01*
%TO.C,Q1*%
X92027619Y-53435238D02*
X91980000Y-53530476D01*
X91884761Y-53625714D01*
X91741904Y-53768571D01*
X91694285Y-53863809D01*
X91694285Y-53959047D01*
X91932380Y-53911428D02*
X91884761Y-54006666D01*
X91789523Y-54101904D01*
X91599047Y-54149523D01*
X91265714Y-54149523D01*
X91075238Y-54101904D01*
X90980000Y-54006666D01*
X90932380Y-53911428D01*
X90932380Y-53720952D01*
X90980000Y-53625714D01*
X91075238Y-53530476D01*
X91265714Y-53482857D01*
X91599047Y-53482857D01*
X91789523Y-53530476D01*
X91884761Y-53625714D01*
X91932380Y-53720952D01*
X91932380Y-53911428D01*
X91932380Y-52530476D02*
X91932380Y-53101904D01*
X91932380Y-52816190D02*
X90932380Y-52816190D01*
X91075238Y-52911428D01*
X91170476Y-53006666D01*
X91218095Y-53101904D01*
%TO.C,Q2*%
X100282619Y-53435238D02*
X100235000Y-53530476D01*
X100139761Y-53625714D01*
X99996904Y-53768571D01*
X99949285Y-53863809D01*
X99949285Y-53959047D01*
X100187380Y-53911428D02*
X100139761Y-54006666D01*
X100044523Y-54101904D01*
X99854047Y-54149523D01*
X99520714Y-54149523D01*
X99330238Y-54101904D01*
X99235000Y-54006666D01*
X99187380Y-53911428D01*
X99187380Y-53720952D01*
X99235000Y-53625714D01*
X99330238Y-53530476D01*
X99520714Y-53482857D01*
X99854047Y-53482857D01*
X100044523Y-53530476D01*
X100139761Y-53625714D01*
X100187380Y-53720952D01*
X100187380Y-53911428D01*
X99282619Y-53101904D02*
X99235000Y-53054285D01*
X99187380Y-52959047D01*
X99187380Y-52720952D01*
X99235000Y-52625714D01*
X99282619Y-52578095D01*
X99377857Y-52530476D01*
X99473095Y-52530476D01*
X99615952Y-52578095D01*
X100187380Y-53149523D01*
X100187380Y-52530476D01*
%TO.C,Q3*%
X47577619Y-68675238D02*
X47530000Y-68770476D01*
X47434761Y-68865714D01*
X47291904Y-69008571D01*
X47244285Y-69103809D01*
X47244285Y-69199047D01*
X47482380Y-69151428D02*
X47434761Y-69246666D01*
X47339523Y-69341904D01*
X47149047Y-69389523D01*
X46815714Y-69389523D01*
X46625238Y-69341904D01*
X46530000Y-69246666D01*
X46482380Y-69151428D01*
X46482380Y-68960952D01*
X46530000Y-68865714D01*
X46625238Y-68770476D01*
X46815714Y-68722857D01*
X47149047Y-68722857D01*
X47339523Y-68770476D01*
X47434761Y-68865714D01*
X47482380Y-68960952D01*
X47482380Y-69151428D01*
X46482380Y-68389523D02*
X46482380Y-67770476D01*
X46863333Y-68103809D01*
X46863333Y-67960952D01*
X46910952Y-67865714D01*
X46958571Y-67818095D01*
X47053809Y-67770476D01*
X47291904Y-67770476D01*
X47387142Y-67818095D01*
X47434761Y-67865714D01*
X47482380Y-67960952D01*
X47482380Y-68246666D01*
X47434761Y-68341904D01*
X47387142Y-68389523D01*
%TO.C,Q4*%
X50077619Y-38195238D02*
X50030000Y-38290476D01*
X49934761Y-38385714D01*
X49791904Y-38528571D01*
X49744285Y-38623809D01*
X49744285Y-38719047D01*
X49982380Y-38671428D02*
X49934761Y-38766666D01*
X49839523Y-38861904D01*
X49649047Y-38909523D01*
X49315714Y-38909523D01*
X49125238Y-38861904D01*
X49030000Y-38766666D01*
X48982380Y-38671428D01*
X48982380Y-38480952D01*
X49030000Y-38385714D01*
X49125238Y-38290476D01*
X49315714Y-38242857D01*
X49649047Y-38242857D01*
X49839523Y-38290476D01*
X49934761Y-38385714D01*
X49982380Y-38480952D01*
X49982380Y-38671428D01*
X49315714Y-37385714D02*
X49982380Y-37385714D01*
X48934761Y-37623809D02*
X49649047Y-37861904D01*
X49649047Y-37242857D01*
%TO.C,Q5*%
X57737619Y-68675238D02*
X57690000Y-68770476D01*
X57594761Y-68865714D01*
X57451904Y-69008571D01*
X57404285Y-69103809D01*
X57404285Y-69199047D01*
X57642380Y-69151428D02*
X57594761Y-69246666D01*
X57499523Y-69341904D01*
X57309047Y-69389523D01*
X56975714Y-69389523D01*
X56785238Y-69341904D01*
X56690000Y-69246666D01*
X56642380Y-69151428D01*
X56642380Y-68960952D01*
X56690000Y-68865714D01*
X56785238Y-68770476D01*
X56975714Y-68722857D01*
X57309047Y-68722857D01*
X57499523Y-68770476D01*
X57594761Y-68865714D01*
X57642380Y-68960952D01*
X57642380Y-69151428D01*
X56642380Y-67818095D02*
X56642380Y-68294285D01*
X57118571Y-68341904D01*
X57070952Y-68294285D01*
X57023333Y-68199047D01*
X57023333Y-67960952D01*
X57070952Y-67865714D01*
X57118571Y-67818095D01*
X57213809Y-67770476D01*
X57451904Y-67770476D01*
X57547142Y-67818095D01*
X57594761Y-67865714D01*
X57642380Y-67960952D01*
X57642380Y-68199047D01*
X57594761Y-68294285D01*
X57547142Y-68341904D01*
%TO.C,Q6*%
X60237619Y-38195238D02*
X60190000Y-38290476D01*
X60094761Y-38385714D01*
X59951904Y-38528571D01*
X59904285Y-38623809D01*
X59904285Y-38719047D01*
X60142380Y-38671428D02*
X60094761Y-38766666D01*
X59999523Y-38861904D01*
X59809047Y-38909523D01*
X59475714Y-38909523D01*
X59285238Y-38861904D01*
X59190000Y-38766666D01*
X59142380Y-38671428D01*
X59142380Y-38480952D01*
X59190000Y-38385714D01*
X59285238Y-38290476D01*
X59475714Y-38242857D01*
X59809047Y-38242857D01*
X59999523Y-38290476D01*
X60094761Y-38385714D01*
X60142380Y-38480952D01*
X60142380Y-38671428D01*
X59142380Y-37385714D02*
X59142380Y-37576190D01*
X59190000Y-37671428D01*
X59237619Y-37719047D01*
X59380476Y-37814285D01*
X59570952Y-37861904D01*
X59951904Y-37861904D01*
X60047142Y-37814285D01*
X60094761Y-37766666D01*
X60142380Y-37671428D01*
X60142380Y-37480952D01*
X60094761Y-37385714D01*
X60047142Y-37338095D01*
X59951904Y-37290476D01*
X59713809Y-37290476D01*
X59618571Y-37338095D01*
X59570952Y-37385714D01*
X59523333Y-37480952D01*
X59523333Y-37671428D01*
X59570952Y-37766666D01*
X59618571Y-37814285D01*
X59713809Y-37861904D01*
%TO.C,Q7*%
X62817619Y-53435238D02*
X62770000Y-53530476D01*
X62674761Y-53625714D01*
X62531904Y-53768571D01*
X62484285Y-53863809D01*
X62484285Y-53959047D01*
X62722380Y-53911428D02*
X62674761Y-54006666D01*
X62579523Y-54101904D01*
X62389047Y-54149523D01*
X62055714Y-54149523D01*
X61865238Y-54101904D01*
X61770000Y-54006666D01*
X61722380Y-53911428D01*
X61722380Y-53720952D01*
X61770000Y-53625714D01*
X61865238Y-53530476D01*
X62055714Y-53482857D01*
X62389047Y-53482857D01*
X62579523Y-53530476D01*
X62674761Y-53625714D01*
X62722380Y-53720952D01*
X62722380Y-53911428D01*
X61722380Y-53149523D02*
X61722380Y-52482857D01*
X62722380Y-52911428D01*
%TO.C,Q8*%
X67897619Y-68675238D02*
X67850000Y-68770476D01*
X67754761Y-68865714D01*
X67611904Y-69008571D01*
X67564285Y-69103809D01*
X67564285Y-69199047D01*
X67802380Y-69151428D02*
X67754761Y-69246666D01*
X67659523Y-69341904D01*
X67469047Y-69389523D01*
X67135714Y-69389523D01*
X66945238Y-69341904D01*
X66850000Y-69246666D01*
X66802380Y-69151428D01*
X66802380Y-68960952D01*
X66850000Y-68865714D01*
X66945238Y-68770476D01*
X67135714Y-68722857D01*
X67469047Y-68722857D01*
X67659523Y-68770476D01*
X67754761Y-68865714D01*
X67802380Y-68960952D01*
X67802380Y-69151428D01*
X67230952Y-68151428D02*
X67183333Y-68246666D01*
X67135714Y-68294285D01*
X67040476Y-68341904D01*
X66992857Y-68341904D01*
X66897619Y-68294285D01*
X66850000Y-68246666D01*
X66802380Y-68151428D01*
X66802380Y-67960952D01*
X66850000Y-67865714D01*
X66897619Y-67818095D01*
X66992857Y-67770476D01*
X67040476Y-67770476D01*
X67135714Y-67818095D01*
X67183333Y-67865714D01*
X67230952Y-67960952D01*
X67230952Y-68151428D01*
X67278571Y-68246666D01*
X67326190Y-68294285D01*
X67421428Y-68341904D01*
X67611904Y-68341904D01*
X67707142Y-68294285D01*
X67754761Y-68246666D01*
X67802380Y-68151428D01*
X67802380Y-67960952D01*
X67754761Y-67865714D01*
X67707142Y-67818095D01*
X67611904Y-67770476D01*
X67421428Y-67770476D01*
X67326190Y-67818095D01*
X67278571Y-67865714D01*
X67230952Y-67960952D01*
%TO.C,Q9*%
X70397619Y-38195238D02*
X70350000Y-38290476D01*
X70254761Y-38385714D01*
X70111904Y-38528571D01*
X70064285Y-38623809D01*
X70064285Y-38719047D01*
X70302380Y-38671428D02*
X70254761Y-38766666D01*
X70159523Y-38861904D01*
X69969047Y-38909523D01*
X69635714Y-38909523D01*
X69445238Y-38861904D01*
X69350000Y-38766666D01*
X69302380Y-38671428D01*
X69302380Y-38480952D01*
X69350000Y-38385714D01*
X69445238Y-38290476D01*
X69635714Y-38242857D01*
X69969047Y-38242857D01*
X70159523Y-38290476D01*
X70254761Y-38385714D01*
X70302380Y-38480952D01*
X70302380Y-38671428D01*
X70302380Y-37766666D02*
X70302380Y-37576190D01*
X70254761Y-37480952D01*
X70207142Y-37433333D01*
X70064285Y-37338095D01*
X69873809Y-37290476D01*
X69492857Y-37290476D01*
X69397619Y-37338095D01*
X69350000Y-37385714D01*
X69302380Y-37480952D01*
X69302380Y-37671428D01*
X69350000Y-37766666D01*
X69397619Y-37814285D01*
X69492857Y-37861904D01*
X69730952Y-37861904D01*
X69826190Y-37814285D01*
X69873809Y-37766666D01*
X69921428Y-37671428D01*
X69921428Y-37480952D01*
X69873809Y-37385714D01*
X69826190Y-37338095D01*
X69730952Y-37290476D01*
%TO.C,Q10*%
X78057619Y-69151428D02*
X78010000Y-69246666D01*
X77914761Y-69341904D01*
X77771904Y-69484761D01*
X77724285Y-69580000D01*
X77724285Y-69675238D01*
X77962380Y-69627619D02*
X77914761Y-69722857D01*
X77819523Y-69818095D01*
X77629047Y-69865714D01*
X77295714Y-69865714D01*
X77105238Y-69818095D01*
X77010000Y-69722857D01*
X76962380Y-69627619D01*
X76962380Y-69437142D01*
X77010000Y-69341904D01*
X77105238Y-69246666D01*
X77295714Y-69199047D01*
X77629047Y-69199047D01*
X77819523Y-69246666D01*
X77914761Y-69341904D01*
X77962380Y-69437142D01*
X77962380Y-69627619D01*
X77962380Y-68246666D02*
X77962380Y-68818095D01*
X77962380Y-68532380D02*
X76962380Y-68532380D01*
X77105238Y-68627619D01*
X77200476Y-68722857D01*
X77248095Y-68818095D01*
X76962380Y-67627619D02*
X76962380Y-67532380D01*
X77010000Y-67437142D01*
X77057619Y-67389523D01*
X77152857Y-67341904D01*
X77343333Y-67294285D01*
X77581428Y-67294285D01*
X77771904Y-67341904D01*
X77867142Y-67389523D01*
X77914761Y-67437142D01*
X77962380Y-67532380D01*
X77962380Y-67627619D01*
X77914761Y-67722857D01*
X77867142Y-67770476D01*
X77771904Y-67818095D01*
X77581428Y-67865714D01*
X77343333Y-67865714D01*
X77152857Y-67818095D01*
X77057619Y-67770476D01*
X77010000Y-67722857D01*
X76962380Y-67627619D01*
%TO.C,Q11*%
X80557619Y-38671428D02*
X80510000Y-38766666D01*
X80414761Y-38861904D01*
X80271904Y-39004761D01*
X80224285Y-39100000D01*
X80224285Y-39195238D01*
X80462380Y-39147619D02*
X80414761Y-39242857D01*
X80319523Y-39338095D01*
X80129047Y-39385714D01*
X79795714Y-39385714D01*
X79605238Y-39338095D01*
X79510000Y-39242857D01*
X79462380Y-39147619D01*
X79462380Y-38957142D01*
X79510000Y-38861904D01*
X79605238Y-38766666D01*
X79795714Y-38719047D01*
X80129047Y-38719047D01*
X80319523Y-38766666D01*
X80414761Y-38861904D01*
X80462380Y-38957142D01*
X80462380Y-39147619D01*
X80462380Y-37766666D02*
X80462380Y-38338095D01*
X80462380Y-38052380D02*
X79462380Y-38052380D01*
X79605238Y-38147619D01*
X79700476Y-38242857D01*
X79748095Y-38338095D01*
X80462380Y-36814285D02*
X80462380Y-37385714D01*
X80462380Y-37100000D02*
X79462380Y-37100000D01*
X79605238Y-37195238D01*
X79700476Y-37290476D01*
X79748095Y-37385714D01*
%TO.C,R1*%
X83653333Y-49347380D02*
X83320000Y-48871190D01*
X83081904Y-49347380D02*
X83081904Y-48347380D01*
X83462857Y-48347380D01*
X83558095Y-48395000D01*
X83605714Y-48442619D01*
X83653333Y-48537857D01*
X83653333Y-48680714D01*
X83605714Y-48775952D01*
X83558095Y-48823571D01*
X83462857Y-48871190D01*
X83081904Y-48871190D01*
X84605714Y-49347380D02*
X84034285Y-49347380D01*
X84320000Y-49347380D02*
X84320000Y-48347380D01*
X84224761Y-48490238D01*
X84129523Y-48585476D01*
X84034285Y-48633095D01*
%TO.C,R2*%
X96353333Y-49347380D02*
X96020000Y-48871190D01*
X95781904Y-49347380D02*
X95781904Y-48347380D01*
X96162857Y-48347380D01*
X96258095Y-48395000D01*
X96305714Y-48442619D01*
X96353333Y-48537857D01*
X96353333Y-48680714D01*
X96305714Y-48775952D01*
X96258095Y-48823571D01*
X96162857Y-48871190D01*
X95781904Y-48871190D01*
X96734285Y-48442619D02*
X96781904Y-48395000D01*
X96877142Y-48347380D01*
X97115238Y-48347380D01*
X97210476Y-48395000D01*
X97258095Y-48442619D01*
X97305714Y-48537857D01*
X97305714Y-48633095D01*
X97258095Y-48775952D01*
X96686666Y-49347380D01*
X97305714Y-49347380D01*
%TO.C,R3*%
X96717380Y-59466666D02*
X96241190Y-59800000D01*
X96717380Y-60038095D02*
X95717380Y-60038095D01*
X95717380Y-59657142D01*
X95765000Y-59561904D01*
X95812619Y-59514285D01*
X95907857Y-59466666D01*
X96050714Y-59466666D01*
X96145952Y-59514285D01*
X96193571Y-59561904D01*
X96241190Y-59657142D01*
X96241190Y-60038095D01*
X95717380Y-59133333D02*
X95717380Y-58514285D01*
X96098333Y-58847619D01*
X96098333Y-58704761D01*
X96145952Y-58609523D01*
X96193571Y-58561904D01*
X96288809Y-58514285D01*
X96526904Y-58514285D01*
X96622142Y-58561904D01*
X96669761Y-58609523D01*
X96717380Y-58704761D01*
X96717380Y-58990476D01*
X96669761Y-59085714D01*
X96622142Y-59133333D01*
%TO.C,R4*%
X104972380Y-59466666D02*
X104496190Y-59800000D01*
X104972380Y-60038095D02*
X103972380Y-60038095D01*
X103972380Y-59657142D01*
X104020000Y-59561904D01*
X104067619Y-59514285D01*
X104162857Y-59466666D01*
X104305714Y-59466666D01*
X104400952Y-59514285D01*
X104448571Y-59561904D01*
X104496190Y-59657142D01*
X104496190Y-60038095D01*
X104305714Y-58609523D02*
X104972380Y-58609523D01*
X103924761Y-58847619D02*
X104639047Y-59085714D01*
X104639047Y-58466666D01*
%TO.C,R5*%
X48093333Y-49347380D02*
X47760000Y-48871190D01*
X47521904Y-49347380D02*
X47521904Y-48347380D01*
X47902857Y-48347380D01*
X47998095Y-48395000D01*
X48045714Y-48442619D01*
X48093333Y-48537857D01*
X48093333Y-48680714D01*
X48045714Y-48775952D01*
X47998095Y-48823571D01*
X47902857Y-48871190D01*
X47521904Y-48871190D01*
X48998095Y-48347380D02*
X48521904Y-48347380D01*
X48474285Y-48823571D01*
X48521904Y-48775952D01*
X48617142Y-48728333D01*
X48855238Y-48728333D01*
X48950476Y-48775952D01*
X48998095Y-48823571D01*
X49045714Y-48918809D01*
X49045714Y-49156904D01*
X48998095Y-49252142D01*
X48950476Y-49299761D01*
X48855238Y-49347380D01*
X48617142Y-49347380D01*
X48521904Y-49299761D01*
X48474285Y-49252142D01*
%TO.C,R6*%
X50362380Y-74851666D02*
X49886190Y-75185000D01*
X50362380Y-75423095D02*
X49362380Y-75423095D01*
X49362380Y-75042142D01*
X49410000Y-74946904D01*
X49457619Y-74899285D01*
X49552857Y-74851666D01*
X49695714Y-74851666D01*
X49790952Y-74899285D01*
X49838571Y-74946904D01*
X49886190Y-75042142D01*
X49886190Y-75423095D01*
X49362380Y-73994523D02*
X49362380Y-74185000D01*
X49410000Y-74280238D01*
X49457619Y-74327857D01*
X49600476Y-74423095D01*
X49790952Y-74470714D01*
X50171904Y-74470714D01*
X50267142Y-74423095D01*
X50314761Y-74375476D01*
X50362380Y-74280238D01*
X50362380Y-74089761D01*
X50314761Y-73994523D01*
X50267142Y-73946904D01*
X50171904Y-73899285D01*
X49933809Y-73899285D01*
X49838571Y-73946904D01*
X49790952Y-73994523D01*
X49743333Y-74089761D01*
X49743333Y-74280238D01*
X49790952Y-74375476D01*
X49838571Y-74423095D01*
X49933809Y-74470714D01*
%TO.C,R7*%
X51632380Y-62151666D02*
X51156190Y-62485000D01*
X51632380Y-62723095D02*
X50632380Y-62723095D01*
X50632380Y-62342142D01*
X50680000Y-62246904D01*
X50727619Y-62199285D01*
X50822857Y-62151666D01*
X50965714Y-62151666D01*
X51060952Y-62199285D01*
X51108571Y-62246904D01*
X51156190Y-62342142D01*
X51156190Y-62723095D01*
X50632380Y-61818333D02*
X50632380Y-61151666D01*
X51632380Y-61580238D01*
%TO.C,R8*%
X49602380Y-28351666D02*
X49126190Y-28685000D01*
X49602380Y-28923095D02*
X48602380Y-28923095D01*
X48602380Y-28542142D01*
X48650000Y-28446904D01*
X48697619Y-28399285D01*
X48792857Y-28351666D01*
X48935714Y-28351666D01*
X49030952Y-28399285D01*
X49078571Y-28446904D01*
X49126190Y-28542142D01*
X49126190Y-28923095D01*
X49030952Y-27780238D02*
X48983333Y-27875476D01*
X48935714Y-27923095D01*
X48840476Y-27970714D01*
X48792857Y-27970714D01*
X48697619Y-27923095D01*
X48650000Y-27875476D01*
X48602380Y-27780238D01*
X48602380Y-27589761D01*
X48650000Y-27494523D01*
X48697619Y-27446904D01*
X48792857Y-27399285D01*
X48840476Y-27399285D01*
X48935714Y-27446904D01*
X48983333Y-27494523D01*
X49030952Y-27589761D01*
X49030952Y-27780238D01*
X49078571Y-27875476D01*
X49126190Y-27923095D01*
X49221428Y-27970714D01*
X49411904Y-27970714D01*
X49507142Y-27923095D01*
X49554761Y-27875476D01*
X49602380Y-27780238D01*
X49602380Y-27589761D01*
X49554761Y-27494523D01*
X49507142Y-27446904D01*
X49411904Y-27399285D01*
X49221428Y-27399285D01*
X49126190Y-27446904D01*
X49078571Y-27494523D01*
X49030952Y-27589761D01*
%TO.C,R9*%
X60522380Y-74851666D02*
X60046190Y-75185000D01*
X60522380Y-75423095D02*
X59522380Y-75423095D01*
X59522380Y-75042142D01*
X59570000Y-74946904D01*
X59617619Y-74899285D01*
X59712857Y-74851666D01*
X59855714Y-74851666D01*
X59950952Y-74899285D01*
X59998571Y-74946904D01*
X60046190Y-75042142D01*
X60046190Y-75423095D01*
X60522380Y-74375476D02*
X60522380Y-74185000D01*
X60474761Y-74089761D01*
X60427142Y-74042142D01*
X60284285Y-73946904D01*
X60093809Y-73899285D01*
X59712857Y-73899285D01*
X59617619Y-73946904D01*
X59570000Y-73994523D01*
X59522380Y-74089761D01*
X59522380Y-74280238D01*
X59570000Y-74375476D01*
X59617619Y-74423095D01*
X59712857Y-74470714D01*
X59950952Y-74470714D01*
X60046190Y-74423095D01*
X60093809Y-74375476D01*
X60141428Y-74280238D01*
X60141428Y-74089761D01*
X60093809Y-73994523D01*
X60046190Y-73946904D01*
X59950952Y-73899285D01*
%TO.C,R10*%
X61792380Y-62627857D02*
X61316190Y-62961190D01*
X61792380Y-63199285D02*
X60792380Y-63199285D01*
X60792380Y-62818333D01*
X60840000Y-62723095D01*
X60887619Y-62675476D01*
X60982857Y-62627857D01*
X61125714Y-62627857D01*
X61220952Y-62675476D01*
X61268571Y-62723095D01*
X61316190Y-62818333D01*
X61316190Y-63199285D01*
X61792380Y-61675476D02*
X61792380Y-62246904D01*
X61792380Y-61961190D02*
X60792380Y-61961190D01*
X60935238Y-62056428D01*
X61030476Y-62151666D01*
X61078095Y-62246904D01*
X60792380Y-61056428D02*
X60792380Y-60961190D01*
X60840000Y-60865952D01*
X60887619Y-60818333D01*
X60982857Y-60770714D01*
X61173333Y-60723095D01*
X61411428Y-60723095D01*
X61601904Y-60770714D01*
X61697142Y-60818333D01*
X61744761Y-60865952D01*
X61792380Y-60961190D01*
X61792380Y-61056428D01*
X61744761Y-61151666D01*
X61697142Y-61199285D01*
X61601904Y-61246904D01*
X61411428Y-61294523D01*
X61173333Y-61294523D01*
X60982857Y-61246904D01*
X60887619Y-61199285D01*
X60840000Y-61151666D01*
X60792380Y-61056428D01*
%TO.C,R11*%
X59762380Y-28827857D02*
X59286190Y-29161190D01*
X59762380Y-29399285D02*
X58762380Y-29399285D01*
X58762380Y-29018333D01*
X58810000Y-28923095D01*
X58857619Y-28875476D01*
X58952857Y-28827857D01*
X59095714Y-28827857D01*
X59190952Y-28875476D01*
X59238571Y-28923095D01*
X59286190Y-29018333D01*
X59286190Y-29399285D01*
X59762380Y-27875476D02*
X59762380Y-28446904D01*
X59762380Y-28161190D02*
X58762380Y-28161190D01*
X58905238Y-28256428D01*
X59000476Y-28351666D01*
X59048095Y-28446904D01*
X59762380Y-26923095D02*
X59762380Y-27494523D01*
X59762380Y-27208809D02*
X58762380Y-27208809D01*
X58905238Y-27304047D01*
X59000476Y-27399285D01*
X59048095Y-27494523D01*
%TO.C,R12*%
X70682380Y-75327857D02*
X70206190Y-75661190D01*
X70682380Y-75899285D02*
X69682380Y-75899285D01*
X69682380Y-75518333D01*
X69730000Y-75423095D01*
X69777619Y-75375476D01*
X69872857Y-75327857D01*
X70015714Y-75327857D01*
X70110952Y-75375476D01*
X70158571Y-75423095D01*
X70206190Y-75518333D01*
X70206190Y-75899285D01*
X70682380Y-74375476D02*
X70682380Y-74946904D01*
X70682380Y-74661190D02*
X69682380Y-74661190D01*
X69825238Y-74756428D01*
X69920476Y-74851666D01*
X69968095Y-74946904D01*
X69777619Y-73994523D02*
X69730000Y-73946904D01*
X69682380Y-73851666D01*
X69682380Y-73613571D01*
X69730000Y-73518333D01*
X69777619Y-73470714D01*
X69872857Y-73423095D01*
X69968095Y-73423095D01*
X70110952Y-73470714D01*
X70682380Y-74042142D01*
X70682380Y-73423095D01*
%TO.C,R13*%
X71952380Y-62627857D02*
X71476190Y-62961190D01*
X71952380Y-63199285D02*
X70952380Y-63199285D01*
X70952380Y-62818333D01*
X71000000Y-62723095D01*
X71047619Y-62675476D01*
X71142857Y-62627857D01*
X71285714Y-62627857D01*
X71380952Y-62675476D01*
X71428571Y-62723095D01*
X71476190Y-62818333D01*
X71476190Y-63199285D01*
X71952380Y-61675476D02*
X71952380Y-62246904D01*
X71952380Y-61961190D02*
X70952380Y-61961190D01*
X71095238Y-62056428D01*
X71190476Y-62151666D01*
X71238095Y-62246904D01*
X70952380Y-61342142D02*
X70952380Y-60723095D01*
X71333333Y-61056428D01*
X71333333Y-60913571D01*
X71380952Y-60818333D01*
X71428571Y-60770714D01*
X71523809Y-60723095D01*
X71761904Y-60723095D01*
X71857142Y-60770714D01*
X71904761Y-60818333D01*
X71952380Y-60913571D01*
X71952380Y-61199285D01*
X71904761Y-61294523D01*
X71857142Y-61342142D01*
%TO.C,R14*%
X69922380Y-28827857D02*
X69446190Y-29161190D01*
X69922380Y-29399285D02*
X68922380Y-29399285D01*
X68922380Y-29018333D01*
X68970000Y-28923095D01*
X69017619Y-28875476D01*
X69112857Y-28827857D01*
X69255714Y-28827857D01*
X69350952Y-28875476D01*
X69398571Y-28923095D01*
X69446190Y-29018333D01*
X69446190Y-29399285D01*
X69922380Y-27875476D02*
X69922380Y-28446904D01*
X69922380Y-28161190D02*
X68922380Y-28161190D01*
X69065238Y-28256428D01*
X69160476Y-28351666D01*
X69208095Y-28446904D01*
X69255714Y-27018333D02*
X69922380Y-27018333D01*
X68874761Y-27256428D02*
X69589047Y-27494523D01*
X69589047Y-26875476D01*
%TO.C,R15*%
X80842380Y-75327857D02*
X80366190Y-75661190D01*
X80842380Y-75899285D02*
X79842380Y-75899285D01*
X79842380Y-75518333D01*
X79890000Y-75423095D01*
X79937619Y-75375476D01*
X80032857Y-75327857D01*
X80175714Y-75327857D01*
X80270952Y-75375476D01*
X80318571Y-75423095D01*
X80366190Y-75518333D01*
X80366190Y-75899285D01*
X80842380Y-74375476D02*
X80842380Y-74946904D01*
X80842380Y-74661190D02*
X79842380Y-74661190D01*
X79985238Y-74756428D01*
X80080476Y-74851666D01*
X80128095Y-74946904D01*
X79842380Y-73470714D02*
X79842380Y-73946904D01*
X80318571Y-73994523D01*
X80270952Y-73946904D01*
X80223333Y-73851666D01*
X80223333Y-73613571D01*
X80270952Y-73518333D01*
X80318571Y-73470714D01*
X80413809Y-73423095D01*
X80651904Y-73423095D01*
X80747142Y-73470714D01*
X80794761Y-73518333D01*
X80842380Y-73613571D01*
X80842380Y-73851666D01*
X80794761Y-73946904D01*
X80747142Y-73994523D01*
%TO.C,R16*%
X82112380Y-62627857D02*
X81636190Y-62961190D01*
X82112380Y-63199285D02*
X81112380Y-63199285D01*
X81112380Y-62818333D01*
X81160000Y-62723095D01*
X81207619Y-62675476D01*
X81302857Y-62627857D01*
X81445714Y-62627857D01*
X81540952Y-62675476D01*
X81588571Y-62723095D01*
X81636190Y-62818333D01*
X81636190Y-63199285D01*
X82112380Y-61675476D02*
X82112380Y-62246904D01*
X82112380Y-61961190D02*
X81112380Y-61961190D01*
X81255238Y-62056428D01*
X81350476Y-62151666D01*
X81398095Y-62246904D01*
X81112380Y-60818333D02*
X81112380Y-61008809D01*
X81160000Y-61104047D01*
X81207619Y-61151666D01*
X81350476Y-61246904D01*
X81540952Y-61294523D01*
X81921904Y-61294523D01*
X82017142Y-61246904D01*
X82064761Y-61199285D01*
X82112380Y-61104047D01*
X82112380Y-60913571D01*
X82064761Y-60818333D01*
X82017142Y-60770714D01*
X81921904Y-60723095D01*
X81683809Y-60723095D01*
X81588571Y-60770714D01*
X81540952Y-60818333D01*
X81493333Y-60913571D01*
X81493333Y-61104047D01*
X81540952Y-61199285D01*
X81588571Y-61246904D01*
X81683809Y-61294523D01*
%TO.C,R17*%
X80082380Y-28827857D02*
X79606190Y-29161190D01*
X80082380Y-29399285D02*
X79082380Y-29399285D01*
X79082380Y-29018333D01*
X79130000Y-28923095D01*
X79177619Y-28875476D01*
X79272857Y-28827857D01*
X79415714Y-28827857D01*
X79510952Y-28875476D01*
X79558571Y-28923095D01*
X79606190Y-29018333D01*
X79606190Y-29399285D01*
X80082380Y-27875476D02*
X80082380Y-28446904D01*
X80082380Y-28161190D02*
X79082380Y-28161190D01*
X79225238Y-28256428D01*
X79320476Y-28351666D01*
X79368095Y-28446904D01*
X79082380Y-27542142D02*
X79082380Y-26875476D01*
X80082380Y-27304047D01*
%TO.C,U1*%
X85598095Y-54657380D02*
X85598095Y-55466904D01*
X85645714Y-55562142D01*
X85693333Y-55609761D01*
X85788571Y-55657380D01*
X85979047Y-55657380D01*
X86074285Y-55609761D01*
X86121904Y-55562142D01*
X86169523Y-55466904D01*
X86169523Y-54657380D01*
X87169523Y-55657380D02*
X86598095Y-55657380D01*
X86883809Y-55657380D02*
X86883809Y-54657380D01*
X86788571Y-54800238D01*
X86693333Y-54895476D01*
X86598095Y-54943095D01*
%TO.C,U2*%
X49808095Y-54972380D02*
X49808095Y-55781904D01*
X49855714Y-55877142D01*
X49903333Y-55924761D01*
X49998571Y-55972380D01*
X50189047Y-55972380D01*
X50284285Y-55924761D01*
X50331904Y-55877142D01*
X50379523Y-55781904D01*
X50379523Y-54972380D01*
X50808095Y-55067619D02*
X50855714Y-55020000D01*
X50950952Y-54972380D01*
X51189047Y-54972380D01*
X51284285Y-55020000D01*
X51331904Y-55067619D01*
X51379523Y-55162857D01*
X51379523Y-55258095D01*
X51331904Y-55400952D01*
X50760476Y-55972380D01*
X51379523Y-55972380D01*
%TD*%
M02*
