%TF.GenerationSoftware,KiCad,Pcbnew,(5.1.6)-1*%
%TF.CreationDate,2021-04-07T17:42:23+02:00*%
%TF.ProjectId,constant_current,636f6e73-7461-46e7-945f-63757272656e,rev?*%
%TF.SameCoordinates,Original*%
%TF.FileFunction,Copper,L1,Top*%
%TF.FilePolarity,Positive*%
%FSLAX46Y46*%
G04 Gerber Fmt 4.6, Leading zero omitted, Abs format (unit mm)*
G04 Created by KiCad (PCBNEW (5.1.6)-1) date 2021-04-07 17:42:23*
%MOMM*%
%LPD*%
G01*
G04 APERTURE LIST*
%TA.AperFunction,ComponentPad*%
%ADD10R,1.700000X1.700000*%
%TD*%
%TA.AperFunction,ComponentPad*%
%ADD11O,1.700000X1.700000*%
%TD*%
%TA.AperFunction,SMDPad,CuDef*%
%ADD12R,0.800000X1.900000*%
%TD*%
%TA.AperFunction,SMDPad,CuDef*%
%ADD13R,1.900000X0.800000*%
%TD*%
%TA.AperFunction,ViaPad*%
%ADD14C,0.800000*%
%TD*%
%TA.AperFunction,Conductor*%
%ADD15C,0.635000*%
%TD*%
%TA.AperFunction,Conductor*%
%ADD16C,0.254000*%
%TD*%
G04 APERTURE END LIST*
D10*
%TO.P,J1,1*%
%TO.N,+5V*%
X38100000Y-30480000D03*
D11*
%TO.P,J1,2*%
%TO.N,GND*%
X38100000Y-33020000D03*
%TO.P,J1,3*%
%TO.N,pwm*%
X38100000Y-35560000D03*
%TD*%
%TO.P,LED,2*%
%TO.N,+5V*%
X90805000Y-41910000D03*
D10*
%TO.P,LED,1*%
%TO.N,Net-(J2-Pad1)*%
X90805000Y-44450000D03*
%TD*%
%TO.P,LED,1*%
%TO.N,Net-(J3-Pad1)*%
X102235000Y-44450000D03*
D11*
%TO.P,LED,2*%
%TO.N,+5V*%
X102235000Y-41910000D03*
%TD*%
D10*
%TO.P,J4,1*%
%TO.N,~A*%
X38100000Y-50165000D03*
D11*
%TO.P,J4,2*%
%TO.N,~B*%
X38100000Y-47625000D03*
%TO.P,J4,3*%
%TO.N,~C*%
X38100000Y-45085000D03*
%TO.P,J4,4*%
%TO.N,~D*%
X38100000Y-42545000D03*
%TD*%
%TO.P,J5,4*%
%TO.N,D*%
X38100000Y-71120000D03*
%TO.P,J5,3*%
%TO.N,C*%
X38100000Y-68580000D03*
%TO.P,J5,2*%
%TO.N,B*%
X38100000Y-66040000D03*
D10*
%TO.P,J5,1*%
%TO.N,A*%
X38100000Y-63500000D03*
%TD*%
D11*
%TO.P,LED A,2*%
%TO.N,Net-(J6-Pad2)*%
X49530000Y-41910000D03*
D10*
%TO.P,LED A,1*%
%TO.N,Net-(J6-Pad1)*%
X49530000Y-44450000D03*
%TD*%
%TO.P,LED B,1*%
%TO.N,Net-(J6-Pad1)*%
X59690000Y-44450000D03*
D11*
%TO.P,LED B,2*%
%TO.N,Net-(J7-Pad2)*%
X59690000Y-41910000D03*
%TD*%
%TO.P,LED C,2*%
%TO.N,Net-(J8-Pad2)*%
X69850000Y-41910000D03*
D10*
%TO.P,LED C,1*%
%TO.N,Net-(J6-Pad1)*%
X69850000Y-44450000D03*
%TD*%
%TO.P,LED D,1*%
%TO.N,Net-(J6-Pad1)*%
X80010000Y-44450000D03*
D11*
%TO.P,LED D,2*%
%TO.N,Net-(J9-Pad2)*%
X80010000Y-41910000D03*
%TD*%
D12*
%TO.P,Q1,1*%
%TO.N,Net-(Q1-Pad1)*%
X93030000Y-54840000D03*
%TO.P,Q1,2*%
%TO.N,Net-(Q1-Pad2)*%
X94930000Y-54840000D03*
%TO.P,Q1,3*%
%TO.N,Net-(J2-Pad1)*%
X93980000Y-51840000D03*
%TD*%
%TO.P,Q2,1*%
%TO.N,Net-(Q2-Pad1)*%
X101285000Y-54840000D03*
%TO.P,Q2,2*%
%TO.N,Net-(Q2-Pad2)*%
X103185000Y-54840000D03*
%TO.P,Q2,3*%
%TO.N,Net-(J3-Pad1)*%
X102235000Y-51840000D03*
%TD*%
%TO.P,Q3,1*%
%TO.N,Net-(Q3-Pad1)*%
X48580000Y-70080000D03*
%TO.P,Q3,2*%
%TO.N,GND*%
X50480000Y-70080000D03*
%TO.P,Q3,3*%
%TO.N,Net-(Q3-Pad3)*%
X49530000Y-67080000D03*
%TD*%
%TO.P,Q4,3*%
%TO.N,Net-(J6-Pad2)*%
X49530000Y-35560000D03*
%TO.P,Q4,2*%
%TO.N,+5V*%
X48580000Y-32560000D03*
%TO.P,Q4,1*%
%TO.N,Net-(Q4-Pad1)*%
X50480000Y-32560000D03*
%TD*%
%TO.P,Q5,1*%
%TO.N,Net-(Q5-Pad1)*%
X58740000Y-70080000D03*
%TO.P,Q5,2*%
%TO.N,GND*%
X60640000Y-70080000D03*
%TO.P,Q5,3*%
%TO.N,Net-(Q5-Pad3)*%
X59690000Y-67080000D03*
%TD*%
%TO.P,Q6,3*%
%TO.N,Net-(J7-Pad2)*%
X59690000Y-35560000D03*
%TO.P,Q6,2*%
%TO.N,+5V*%
X58740000Y-32560000D03*
%TO.P,Q6,1*%
%TO.N,Net-(Q6-Pad1)*%
X60640000Y-32560000D03*
%TD*%
%TO.P,Q7,1*%
%TO.N,Net-(Q7-Pad1)*%
X63820000Y-54840000D03*
%TO.P,Q7,2*%
%TO.N,Net-(Q7-Pad2)*%
X65720000Y-54840000D03*
%TO.P,Q7,3*%
%TO.N,Net-(J6-Pad1)*%
X64770000Y-51840000D03*
%TD*%
%TO.P,Q8,3*%
%TO.N,Net-(Q8-Pad3)*%
X69850000Y-67080000D03*
%TO.P,Q8,2*%
%TO.N,GND*%
X70800000Y-70080000D03*
%TO.P,Q8,1*%
%TO.N,Net-(Q8-Pad1)*%
X68900000Y-70080000D03*
%TD*%
%TO.P,Q9,1*%
%TO.N,Net-(Q9-Pad1)*%
X70800000Y-32560000D03*
%TO.P,Q9,2*%
%TO.N,+5V*%
X68900000Y-32560000D03*
%TO.P,Q9,3*%
%TO.N,Net-(J8-Pad2)*%
X69850000Y-35560000D03*
%TD*%
%TO.P,Q10,1*%
%TO.N,Net-(Q10-Pad1)*%
X79060000Y-70080000D03*
%TO.P,Q10,2*%
%TO.N,GND*%
X80960000Y-70080000D03*
%TO.P,Q10,3*%
%TO.N,Net-(Q10-Pad3)*%
X80010000Y-67080000D03*
%TD*%
%TO.P,Q11,3*%
%TO.N,Net-(J9-Pad2)*%
X80010000Y-35560000D03*
%TO.P,Q11,2*%
%TO.N,+5V*%
X79060000Y-32560000D03*
%TO.P,Q11,1*%
%TO.N,Net-(Q11-Pad1)*%
X80960000Y-32560000D03*
%TD*%
%TO.P,R1,2*%
%TO.N,Net-(Q1-Pad1)*%
%TA.AperFunction,SMDPad,CuDef*%
G36*
G01*
X87055000Y-49345001D02*
X87055000Y-48444999D01*
G75*
G02*
X87304999Y-48195000I249999J0D01*
G01*
X87955001Y-48195000D01*
G75*
G02*
X88205000Y-48444999I0J-249999D01*
G01*
X88205000Y-49345001D01*
G75*
G02*
X87955001Y-49595000I-249999J0D01*
G01*
X87304999Y-49595000D01*
G75*
G02*
X87055000Y-49345001I0J249999D01*
G01*
G37*
%TD.AperFunction*%
%TO.P,R1,1*%
%TO.N,pwm*%
%TA.AperFunction,SMDPad,CuDef*%
G36*
G01*
X85005000Y-49345001D02*
X85005000Y-48444999D01*
G75*
G02*
X85254999Y-48195000I249999J0D01*
G01*
X85905001Y-48195000D01*
G75*
G02*
X86155000Y-48444999I0J-249999D01*
G01*
X86155000Y-49345001D01*
G75*
G02*
X85905001Y-49595000I-249999J0D01*
G01*
X85254999Y-49595000D01*
G75*
G02*
X85005000Y-49345001I0J249999D01*
G01*
G37*
%TD.AperFunction*%
%TD*%
%TO.P,R2,1*%
%TO.N,pwm*%
%TA.AperFunction,SMDPad,CuDef*%
G36*
G01*
X97705000Y-49345001D02*
X97705000Y-48444999D01*
G75*
G02*
X97954999Y-48195000I249999J0D01*
G01*
X98605001Y-48195000D01*
G75*
G02*
X98855000Y-48444999I0J-249999D01*
G01*
X98855000Y-49345001D01*
G75*
G02*
X98605001Y-49595000I-249999J0D01*
G01*
X97954999Y-49595000D01*
G75*
G02*
X97705000Y-49345001I0J249999D01*
G01*
G37*
%TD.AperFunction*%
%TO.P,R2,2*%
%TO.N,Net-(Q2-Pad1)*%
%TA.AperFunction,SMDPad,CuDef*%
G36*
G01*
X99755000Y-49345001D02*
X99755000Y-48444999D01*
G75*
G02*
X100004999Y-48195000I249999J0D01*
G01*
X100655001Y-48195000D01*
G75*
G02*
X100905000Y-48444999I0J-249999D01*
G01*
X100905000Y-49345001D01*
G75*
G02*
X100655001Y-49595000I-249999J0D01*
G01*
X100004999Y-49595000D01*
G75*
G02*
X99755000Y-49345001I0J249999D01*
G01*
G37*
%TD.AperFunction*%
%TD*%
%TO.P,R3,1*%
%TO.N,Net-(Q1-Pad2)*%
%TA.AperFunction,SMDPad,CuDef*%
G36*
G01*
X94164999Y-57700000D02*
X95065001Y-57700000D01*
G75*
G02*
X95315000Y-57949999I0J-249999D01*
G01*
X95315000Y-58600001D01*
G75*
G02*
X95065001Y-58850000I-249999J0D01*
G01*
X94164999Y-58850000D01*
G75*
G02*
X93915000Y-58600001I0J249999D01*
G01*
X93915000Y-57949999D01*
G75*
G02*
X94164999Y-57700000I249999J0D01*
G01*
G37*
%TD.AperFunction*%
%TO.P,R3,2*%
%TO.N,GND*%
%TA.AperFunction,SMDPad,CuDef*%
G36*
G01*
X94164999Y-59750000D02*
X95065001Y-59750000D01*
G75*
G02*
X95315000Y-59999999I0J-249999D01*
G01*
X95315000Y-60650001D01*
G75*
G02*
X95065001Y-60900000I-249999J0D01*
G01*
X94164999Y-60900000D01*
G75*
G02*
X93915000Y-60650001I0J249999D01*
G01*
X93915000Y-59999999D01*
G75*
G02*
X94164999Y-59750000I249999J0D01*
G01*
G37*
%TD.AperFunction*%
%TD*%
%TO.P,R4,2*%
%TO.N,GND*%
%TA.AperFunction,SMDPad,CuDef*%
G36*
G01*
X102419999Y-59750000D02*
X103320001Y-59750000D01*
G75*
G02*
X103570000Y-59999999I0J-249999D01*
G01*
X103570000Y-60650001D01*
G75*
G02*
X103320001Y-60900000I-249999J0D01*
G01*
X102419999Y-60900000D01*
G75*
G02*
X102170000Y-60650001I0J249999D01*
G01*
X102170000Y-59999999D01*
G75*
G02*
X102419999Y-59750000I249999J0D01*
G01*
G37*
%TD.AperFunction*%
%TO.P,R4,1*%
%TO.N,Net-(Q2-Pad2)*%
%TA.AperFunction,SMDPad,CuDef*%
G36*
G01*
X102419999Y-57700000D02*
X103320001Y-57700000D01*
G75*
G02*
X103570000Y-57949999I0J-249999D01*
G01*
X103570000Y-58600001D01*
G75*
G02*
X103320001Y-58850000I-249999J0D01*
G01*
X102419999Y-58850000D01*
G75*
G02*
X102170000Y-58600001I0J249999D01*
G01*
X102170000Y-57949999D01*
G75*
G02*
X102419999Y-57700000I249999J0D01*
G01*
G37*
%TD.AperFunction*%
%TD*%
%TO.P,R5,1*%
%TO.N,pwm*%
%TA.AperFunction,SMDPad,CuDef*%
G36*
G01*
X49445000Y-49345001D02*
X49445000Y-48444999D01*
G75*
G02*
X49694999Y-48195000I249999J0D01*
G01*
X50345001Y-48195000D01*
G75*
G02*
X50595000Y-48444999I0J-249999D01*
G01*
X50595000Y-49345001D01*
G75*
G02*
X50345001Y-49595000I-249999J0D01*
G01*
X49694999Y-49595000D01*
G75*
G02*
X49445000Y-49345001I0J249999D01*
G01*
G37*
%TD.AperFunction*%
%TO.P,R5,2*%
%TO.N,Net-(Q7-Pad1)*%
%TA.AperFunction,SMDPad,CuDef*%
G36*
G01*
X51495000Y-49345001D02*
X51495000Y-48444999D01*
G75*
G02*
X51744999Y-48195000I249999J0D01*
G01*
X52395001Y-48195000D01*
G75*
G02*
X52645000Y-48444999I0J-249999D01*
G01*
X52645000Y-49345001D01*
G75*
G02*
X52395001Y-49595000I-249999J0D01*
G01*
X51744999Y-49595000D01*
G75*
G02*
X51495000Y-49345001I0J249999D01*
G01*
G37*
%TD.AperFunction*%
%TD*%
%TO.P,R6,2*%
%TO.N,A*%
%TA.AperFunction,SMDPad,CuDef*%
G36*
G01*
X47809999Y-75135000D02*
X48710001Y-75135000D01*
G75*
G02*
X48960000Y-75384999I0J-249999D01*
G01*
X48960000Y-76035001D01*
G75*
G02*
X48710001Y-76285000I-249999J0D01*
G01*
X47809999Y-76285000D01*
G75*
G02*
X47560000Y-76035001I0J249999D01*
G01*
X47560000Y-75384999D01*
G75*
G02*
X47809999Y-75135000I249999J0D01*
G01*
G37*
%TD.AperFunction*%
%TO.P,R6,1*%
%TO.N,Net-(Q3-Pad1)*%
%TA.AperFunction,SMDPad,CuDef*%
G36*
G01*
X47809999Y-73085000D02*
X48710001Y-73085000D01*
G75*
G02*
X48960000Y-73334999I0J-249999D01*
G01*
X48960000Y-73985001D01*
G75*
G02*
X48710001Y-74235000I-249999J0D01*
G01*
X47809999Y-74235000D01*
G75*
G02*
X47560000Y-73985001I0J249999D01*
G01*
X47560000Y-73334999D01*
G75*
G02*
X47809999Y-73085000I249999J0D01*
G01*
G37*
%TD.AperFunction*%
%TD*%
%TO.P,R7,1*%
%TO.N,Net-(Q7-Pad2)*%
%TA.AperFunction,SMDPad,CuDef*%
G36*
G01*
X49079999Y-60385000D02*
X49980001Y-60385000D01*
G75*
G02*
X50230000Y-60634999I0J-249999D01*
G01*
X50230000Y-61285001D01*
G75*
G02*
X49980001Y-61535000I-249999J0D01*
G01*
X49079999Y-61535000D01*
G75*
G02*
X48830000Y-61285001I0J249999D01*
G01*
X48830000Y-60634999D01*
G75*
G02*
X49079999Y-60385000I249999J0D01*
G01*
G37*
%TD.AperFunction*%
%TO.P,R7,2*%
%TO.N,Net-(Q3-Pad3)*%
%TA.AperFunction,SMDPad,CuDef*%
G36*
G01*
X49079999Y-62435000D02*
X49980001Y-62435000D01*
G75*
G02*
X50230000Y-62684999I0J-249999D01*
G01*
X50230000Y-63335001D01*
G75*
G02*
X49980001Y-63585000I-249999J0D01*
G01*
X49079999Y-63585000D01*
G75*
G02*
X48830000Y-63335001I0J249999D01*
G01*
X48830000Y-62684999D01*
G75*
G02*
X49079999Y-62435000I249999J0D01*
G01*
G37*
%TD.AperFunction*%
%TD*%
%TO.P,R8,1*%
%TO.N,Net-(Q4-Pad1)*%
%TA.AperFunction,SMDPad,CuDef*%
G36*
G01*
X51250001Y-29785000D02*
X50349999Y-29785000D01*
G75*
G02*
X50100000Y-29535001I0J249999D01*
G01*
X50100000Y-28884999D01*
G75*
G02*
X50349999Y-28635000I249999J0D01*
G01*
X51250001Y-28635000D01*
G75*
G02*
X51500000Y-28884999I0J-249999D01*
G01*
X51500000Y-29535001D01*
G75*
G02*
X51250001Y-29785000I-249999J0D01*
G01*
G37*
%TD.AperFunction*%
%TO.P,R8,2*%
%TO.N,~A*%
%TA.AperFunction,SMDPad,CuDef*%
G36*
G01*
X51250001Y-27735000D02*
X50349999Y-27735000D01*
G75*
G02*
X50100000Y-27485001I0J249999D01*
G01*
X50100000Y-26834999D01*
G75*
G02*
X50349999Y-26585000I249999J0D01*
G01*
X51250001Y-26585000D01*
G75*
G02*
X51500000Y-26834999I0J-249999D01*
G01*
X51500000Y-27485001D01*
G75*
G02*
X51250001Y-27735000I-249999J0D01*
G01*
G37*
%TD.AperFunction*%
%TD*%
%TO.P,R9,2*%
%TO.N,B*%
%TA.AperFunction,SMDPad,CuDef*%
G36*
G01*
X57969999Y-75135000D02*
X58870001Y-75135000D01*
G75*
G02*
X59120000Y-75384999I0J-249999D01*
G01*
X59120000Y-76035001D01*
G75*
G02*
X58870001Y-76285000I-249999J0D01*
G01*
X57969999Y-76285000D01*
G75*
G02*
X57720000Y-76035001I0J249999D01*
G01*
X57720000Y-75384999D01*
G75*
G02*
X57969999Y-75135000I249999J0D01*
G01*
G37*
%TD.AperFunction*%
%TO.P,R9,1*%
%TO.N,Net-(Q5-Pad1)*%
%TA.AperFunction,SMDPad,CuDef*%
G36*
G01*
X57969999Y-73085000D02*
X58870001Y-73085000D01*
G75*
G02*
X59120000Y-73334999I0J-249999D01*
G01*
X59120000Y-73985001D01*
G75*
G02*
X58870001Y-74235000I-249999J0D01*
G01*
X57969999Y-74235000D01*
G75*
G02*
X57720000Y-73985001I0J249999D01*
G01*
X57720000Y-73334999D01*
G75*
G02*
X57969999Y-73085000I249999J0D01*
G01*
G37*
%TD.AperFunction*%
%TD*%
%TO.P,R10,1*%
%TO.N,Net-(Q7-Pad2)*%
%TA.AperFunction,SMDPad,CuDef*%
G36*
G01*
X59239999Y-60385000D02*
X60140001Y-60385000D01*
G75*
G02*
X60390000Y-60634999I0J-249999D01*
G01*
X60390000Y-61285001D01*
G75*
G02*
X60140001Y-61535000I-249999J0D01*
G01*
X59239999Y-61535000D01*
G75*
G02*
X58990000Y-61285001I0J249999D01*
G01*
X58990000Y-60634999D01*
G75*
G02*
X59239999Y-60385000I249999J0D01*
G01*
G37*
%TD.AperFunction*%
%TO.P,R10,2*%
%TO.N,Net-(Q5-Pad3)*%
%TA.AperFunction,SMDPad,CuDef*%
G36*
G01*
X59239999Y-62435000D02*
X60140001Y-62435000D01*
G75*
G02*
X60390000Y-62684999I0J-249999D01*
G01*
X60390000Y-63335001D01*
G75*
G02*
X60140001Y-63585000I-249999J0D01*
G01*
X59239999Y-63585000D01*
G75*
G02*
X58990000Y-63335001I0J249999D01*
G01*
X58990000Y-62684999D01*
G75*
G02*
X59239999Y-62435000I249999J0D01*
G01*
G37*
%TD.AperFunction*%
%TD*%
%TO.P,R11,2*%
%TO.N,~B*%
%TA.AperFunction,SMDPad,CuDef*%
G36*
G01*
X61410001Y-27735000D02*
X60509999Y-27735000D01*
G75*
G02*
X60260000Y-27485001I0J249999D01*
G01*
X60260000Y-26834999D01*
G75*
G02*
X60509999Y-26585000I249999J0D01*
G01*
X61410001Y-26585000D01*
G75*
G02*
X61660000Y-26834999I0J-249999D01*
G01*
X61660000Y-27485001D01*
G75*
G02*
X61410001Y-27735000I-249999J0D01*
G01*
G37*
%TD.AperFunction*%
%TO.P,R11,1*%
%TO.N,Net-(Q6-Pad1)*%
%TA.AperFunction,SMDPad,CuDef*%
G36*
G01*
X61410001Y-29785000D02*
X60509999Y-29785000D01*
G75*
G02*
X60260000Y-29535001I0J249999D01*
G01*
X60260000Y-28884999D01*
G75*
G02*
X60509999Y-28635000I249999J0D01*
G01*
X61410001Y-28635000D01*
G75*
G02*
X61660000Y-28884999I0J-249999D01*
G01*
X61660000Y-29535001D01*
G75*
G02*
X61410001Y-29785000I-249999J0D01*
G01*
G37*
%TD.AperFunction*%
%TD*%
%TO.P,R12,1*%
%TO.N,Net-(Q8-Pad1)*%
%TA.AperFunction,SMDPad,CuDef*%
G36*
G01*
X68129999Y-73085000D02*
X69030001Y-73085000D01*
G75*
G02*
X69280000Y-73334999I0J-249999D01*
G01*
X69280000Y-73985001D01*
G75*
G02*
X69030001Y-74235000I-249999J0D01*
G01*
X68129999Y-74235000D01*
G75*
G02*
X67880000Y-73985001I0J249999D01*
G01*
X67880000Y-73334999D01*
G75*
G02*
X68129999Y-73085000I249999J0D01*
G01*
G37*
%TD.AperFunction*%
%TO.P,R12,2*%
%TO.N,C*%
%TA.AperFunction,SMDPad,CuDef*%
G36*
G01*
X68129999Y-75135000D02*
X69030001Y-75135000D01*
G75*
G02*
X69280000Y-75384999I0J-249999D01*
G01*
X69280000Y-76035001D01*
G75*
G02*
X69030001Y-76285000I-249999J0D01*
G01*
X68129999Y-76285000D01*
G75*
G02*
X67880000Y-76035001I0J249999D01*
G01*
X67880000Y-75384999D01*
G75*
G02*
X68129999Y-75135000I249999J0D01*
G01*
G37*
%TD.AperFunction*%
%TD*%
%TO.P,R13,2*%
%TO.N,Net-(Q8-Pad3)*%
%TA.AperFunction,SMDPad,CuDef*%
G36*
G01*
X69399999Y-62435000D02*
X70300001Y-62435000D01*
G75*
G02*
X70550000Y-62684999I0J-249999D01*
G01*
X70550000Y-63335001D01*
G75*
G02*
X70300001Y-63585000I-249999J0D01*
G01*
X69399999Y-63585000D01*
G75*
G02*
X69150000Y-63335001I0J249999D01*
G01*
X69150000Y-62684999D01*
G75*
G02*
X69399999Y-62435000I249999J0D01*
G01*
G37*
%TD.AperFunction*%
%TO.P,R13,1*%
%TO.N,Net-(Q7-Pad2)*%
%TA.AperFunction,SMDPad,CuDef*%
G36*
G01*
X69399999Y-60385000D02*
X70300001Y-60385000D01*
G75*
G02*
X70550000Y-60634999I0J-249999D01*
G01*
X70550000Y-61285001D01*
G75*
G02*
X70300001Y-61535000I-249999J0D01*
G01*
X69399999Y-61535000D01*
G75*
G02*
X69150000Y-61285001I0J249999D01*
G01*
X69150000Y-60634999D01*
G75*
G02*
X69399999Y-60385000I249999J0D01*
G01*
G37*
%TD.AperFunction*%
%TD*%
%TO.P,R14,1*%
%TO.N,Net-(Q9-Pad1)*%
%TA.AperFunction,SMDPad,CuDef*%
G36*
G01*
X71570001Y-29785000D02*
X70669999Y-29785000D01*
G75*
G02*
X70420000Y-29535001I0J249999D01*
G01*
X70420000Y-28884999D01*
G75*
G02*
X70669999Y-28635000I249999J0D01*
G01*
X71570001Y-28635000D01*
G75*
G02*
X71820000Y-28884999I0J-249999D01*
G01*
X71820000Y-29535001D01*
G75*
G02*
X71570001Y-29785000I-249999J0D01*
G01*
G37*
%TD.AperFunction*%
%TO.P,R14,2*%
%TO.N,~C*%
%TA.AperFunction,SMDPad,CuDef*%
G36*
G01*
X71570001Y-27735000D02*
X70669999Y-27735000D01*
G75*
G02*
X70420000Y-27485001I0J249999D01*
G01*
X70420000Y-26834999D01*
G75*
G02*
X70669999Y-26585000I249999J0D01*
G01*
X71570001Y-26585000D01*
G75*
G02*
X71820000Y-26834999I0J-249999D01*
G01*
X71820000Y-27485001D01*
G75*
G02*
X71570001Y-27735000I-249999J0D01*
G01*
G37*
%TD.AperFunction*%
%TD*%
%TO.P,R15,2*%
%TO.N,D*%
%TA.AperFunction,SMDPad,CuDef*%
G36*
G01*
X78289999Y-75135000D02*
X79190001Y-75135000D01*
G75*
G02*
X79440000Y-75384999I0J-249999D01*
G01*
X79440000Y-76035001D01*
G75*
G02*
X79190001Y-76285000I-249999J0D01*
G01*
X78289999Y-76285000D01*
G75*
G02*
X78040000Y-76035001I0J249999D01*
G01*
X78040000Y-75384999D01*
G75*
G02*
X78289999Y-75135000I249999J0D01*
G01*
G37*
%TD.AperFunction*%
%TO.P,R15,1*%
%TO.N,Net-(Q10-Pad1)*%
%TA.AperFunction,SMDPad,CuDef*%
G36*
G01*
X78289999Y-73085000D02*
X79190001Y-73085000D01*
G75*
G02*
X79440000Y-73334999I0J-249999D01*
G01*
X79440000Y-73985001D01*
G75*
G02*
X79190001Y-74235000I-249999J0D01*
G01*
X78289999Y-74235000D01*
G75*
G02*
X78040000Y-73985001I0J249999D01*
G01*
X78040000Y-73334999D01*
G75*
G02*
X78289999Y-73085000I249999J0D01*
G01*
G37*
%TD.AperFunction*%
%TD*%
%TO.P,R16,1*%
%TO.N,Net-(Q7-Pad2)*%
%TA.AperFunction,SMDPad,CuDef*%
G36*
G01*
X79559999Y-60385000D02*
X80460001Y-60385000D01*
G75*
G02*
X80710000Y-60634999I0J-249999D01*
G01*
X80710000Y-61285001D01*
G75*
G02*
X80460001Y-61535000I-249999J0D01*
G01*
X79559999Y-61535000D01*
G75*
G02*
X79310000Y-61285001I0J249999D01*
G01*
X79310000Y-60634999D01*
G75*
G02*
X79559999Y-60385000I249999J0D01*
G01*
G37*
%TD.AperFunction*%
%TO.P,R16,2*%
%TO.N,Net-(Q10-Pad3)*%
%TA.AperFunction,SMDPad,CuDef*%
G36*
G01*
X79559999Y-62435000D02*
X80460001Y-62435000D01*
G75*
G02*
X80710000Y-62684999I0J-249999D01*
G01*
X80710000Y-63335001D01*
G75*
G02*
X80460001Y-63585000I-249999J0D01*
G01*
X79559999Y-63585000D01*
G75*
G02*
X79310000Y-63335001I0J249999D01*
G01*
X79310000Y-62684999D01*
G75*
G02*
X79559999Y-62435000I249999J0D01*
G01*
G37*
%TD.AperFunction*%
%TD*%
%TO.P,R17,2*%
%TO.N,~D*%
%TA.AperFunction,SMDPad,CuDef*%
G36*
G01*
X81730001Y-27735000D02*
X80829999Y-27735000D01*
G75*
G02*
X80580000Y-27485001I0J249999D01*
G01*
X80580000Y-26834999D01*
G75*
G02*
X80829999Y-26585000I249999J0D01*
G01*
X81730001Y-26585000D01*
G75*
G02*
X81980000Y-26834999I0J-249999D01*
G01*
X81980000Y-27485001D01*
G75*
G02*
X81730001Y-27735000I-249999J0D01*
G01*
G37*
%TD.AperFunction*%
%TO.P,R17,1*%
%TO.N,Net-(Q11-Pad1)*%
%TA.AperFunction,SMDPad,CuDef*%
G36*
G01*
X81730001Y-29785000D02*
X80829999Y-29785000D01*
G75*
G02*
X80580000Y-29535001I0J249999D01*
G01*
X80580000Y-28884999D01*
G75*
G02*
X80829999Y-28635000I249999J0D01*
G01*
X81730001Y-28635000D01*
G75*
G02*
X81980000Y-28884999I0J-249999D01*
G01*
X81980000Y-29535001D01*
G75*
G02*
X81730001Y-29785000I-249999J0D01*
G01*
G37*
%TD.AperFunction*%
%TD*%
D13*
%TO.P,U1,3*%
%TO.N,GND*%
X84860000Y-52705000D03*
%TO.P,U1,2*%
%TO.N,Net-(Q1-Pad1)*%
X87860000Y-51755000D03*
%TO.P,U1,1*%
%TO.N,Net-(Q1-Pad2)*%
X87860000Y-53655000D03*
%TD*%
%TO.P,U2,3*%
%TO.N,GND*%
X49070000Y-53020000D03*
%TO.P,U2,2*%
%TO.N,Net-(Q7-Pad1)*%
X52070000Y-52070000D03*
%TO.P,U2,1*%
%TO.N,Net-(Q7-Pad2)*%
X52070000Y-53970000D03*
%TD*%
D14*
%TO.N,GND*%
X104140000Y-25400000D03*
X104140000Y-48260000D03*
X104140000Y-63500000D03*
X104140000Y-66040000D03*
X104140000Y-68580000D03*
X104140000Y-71120000D03*
X104140000Y-73660000D03*
X104140000Y-76200000D03*
X104140000Y-78740000D03*
%TO.N,+5V*%
X48260000Y-31115000D03*
X58420000Y-31115000D03*
X68580000Y-31115000D03*
X78740000Y-31115000D03*
%TO.N,GND*%
X38100000Y-53340000D03*
X38100000Y-55880000D03*
X38100000Y-58420000D03*
X38100000Y-60960000D03*
X40640000Y-60960000D03*
X43180000Y-60960000D03*
X45720000Y-60960000D03*
X45720000Y-58420000D03*
X43180000Y-58420000D03*
X40640000Y-58420000D03*
X40640000Y-55880000D03*
X40640000Y-53340000D03*
X43180000Y-53340000D03*
X43180000Y-55880000D03*
X45720000Y-55880000D03*
X45720000Y-53340000D03*
X48260000Y-55880000D03*
X48260000Y-58420000D03*
X50800000Y-58420000D03*
X50800000Y-55880000D03*
X53340000Y-55880000D03*
X53340000Y-58420000D03*
X55880000Y-58420000D03*
X55880000Y-55880000D03*
X58420000Y-55880000D03*
X58420000Y-58420000D03*
X60960000Y-58420000D03*
X45720000Y-50800000D03*
X43180000Y-50800000D03*
X40640000Y-50800000D03*
X43180000Y-48260000D03*
X45720000Y-48260000D03*
X43180000Y-45720000D03*
X68580000Y-58420000D03*
X68580000Y-55880000D03*
X68580000Y-53340000D03*
X68580000Y-50800000D03*
X68580000Y-48260000D03*
X71120000Y-48260000D03*
X73660000Y-48260000D03*
X76200000Y-48260000D03*
X78740000Y-48260000D03*
X81280000Y-48260000D03*
X81280000Y-50800000D03*
X81280000Y-53340000D03*
X81280000Y-55880000D03*
X81280000Y-58420000D03*
X78740000Y-58420000D03*
X76200000Y-58420000D03*
X73660000Y-58420000D03*
X71120000Y-58420000D03*
X71120000Y-55880000D03*
X73660000Y-55880000D03*
X76200000Y-55880000D03*
X78740000Y-55880000D03*
X78740000Y-53340000D03*
X76200000Y-53340000D03*
X73660000Y-53340000D03*
X71120000Y-53340000D03*
X71120000Y-50800000D03*
X73660000Y-50800000D03*
X76200000Y-50800000D03*
X78740000Y-50800000D03*
X66040000Y-48260000D03*
X63500000Y-48260000D03*
X60960000Y-48260000D03*
X58420000Y-48260000D03*
X55880000Y-48260000D03*
X55880000Y-50800000D03*
X58420000Y-50800000D03*
X60960000Y-50800000D03*
X63500000Y-50800000D03*
X83820000Y-55880000D03*
X86360000Y-55880000D03*
X88900000Y-55880000D03*
X91440000Y-58420000D03*
X88900000Y-58420000D03*
X86360000Y-58420000D03*
X83820000Y-58420000D03*
X83820000Y-60960000D03*
X86360000Y-60960000D03*
X88900000Y-60960000D03*
X91440000Y-60960000D03*
X96520000Y-60960000D03*
X96520000Y-58420000D03*
X99060000Y-58420000D03*
X99060000Y-60960000D03*
X101600000Y-63500000D03*
X101600000Y-68580000D03*
X101600000Y-66040000D03*
X101600000Y-71120000D03*
X101600000Y-73660000D03*
X101600000Y-76200000D03*
X96520000Y-76200000D03*
X101600000Y-78740000D03*
X99060000Y-78740000D03*
X96520000Y-78740000D03*
X91440000Y-78740000D03*
X93980000Y-78740000D03*
X88900000Y-78740000D03*
X83820000Y-78740000D03*
X86360000Y-78740000D03*
X81280000Y-78740000D03*
X81280000Y-76200000D03*
X83820000Y-76200000D03*
X81280000Y-73660000D03*
X83820000Y-73660000D03*
X83820000Y-71120000D03*
X83820000Y-68580000D03*
X83820000Y-66040000D03*
X83820000Y-63500000D03*
X86360000Y-63500000D03*
X86360000Y-66040000D03*
X86360000Y-68580000D03*
X86360000Y-71120000D03*
X86360000Y-73660000D03*
X86360000Y-76200000D03*
X88900000Y-76200000D03*
X88900000Y-73660000D03*
X88900000Y-71120000D03*
X88900000Y-68580000D03*
X88900000Y-66040000D03*
X88900000Y-63500000D03*
X91440000Y-63500000D03*
X91440000Y-66040000D03*
X91440000Y-68580000D03*
X91440000Y-71120000D03*
X91440000Y-73660000D03*
X91440000Y-76200000D03*
X93980000Y-76200000D03*
X93980000Y-73660000D03*
X96520000Y-73660000D03*
X99060000Y-73660000D03*
X99060000Y-76200000D03*
X99060000Y-71120000D03*
X96520000Y-71120000D03*
X93980000Y-71120000D03*
X93980000Y-68580000D03*
X96520000Y-68580000D03*
X99060000Y-68580000D03*
X99060000Y-66040000D03*
X96520000Y-66040000D03*
X93980000Y-66040000D03*
X93980000Y-63500000D03*
X96520000Y-63500000D03*
X99060000Y-63500000D03*
X99060000Y-55880000D03*
X96520000Y-55880000D03*
X96520000Y-53340000D03*
X96520000Y-50800000D03*
X99060000Y-45720000D03*
X96520000Y-45720000D03*
X86360000Y-45720000D03*
X83820000Y-45720000D03*
X83820000Y-43180000D03*
X86360000Y-43180000D03*
X86360000Y-40640000D03*
X83820000Y-40640000D03*
X83820000Y-38100000D03*
X86360000Y-38100000D03*
X86360000Y-35560000D03*
X83820000Y-35560000D03*
X83820000Y-33020000D03*
X86360000Y-33020000D03*
X76200000Y-33020000D03*
X73660000Y-33020000D03*
X73660000Y-35560000D03*
X73660000Y-38100000D03*
X73660000Y-40640000D03*
X73660000Y-43180000D03*
X76200000Y-43180000D03*
X76200000Y-40640000D03*
X76200000Y-38100000D03*
X76200000Y-35560000D03*
X66040000Y-33020000D03*
X63500000Y-33020000D03*
X63500000Y-35560000D03*
X63500000Y-38100000D03*
X63500000Y-40640000D03*
X63500000Y-43180000D03*
X66040000Y-43180000D03*
X66040000Y-40640000D03*
X66040000Y-38100000D03*
X66040000Y-35560000D03*
X55880000Y-33020000D03*
X53340000Y-33020000D03*
X53340000Y-35560000D03*
X55880000Y-35560000D03*
X55880000Y-38100000D03*
X53340000Y-38100000D03*
X53340000Y-40640000D03*
X55880000Y-40640000D03*
X55880000Y-43180000D03*
X53340000Y-43180000D03*
X45720000Y-33020000D03*
X45720000Y-35560000D03*
X40640000Y-33020000D03*
X38100000Y-25400000D03*
X40640000Y-25400000D03*
X83820000Y-25400000D03*
X78740000Y-25400000D03*
X76200000Y-25400000D03*
X73660000Y-25400000D03*
X86360000Y-25400000D03*
X88900000Y-25400000D03*
X91440000Y-25400000D03*
X93980000Y-25400000D03*
X96520000Y-25400000D03*
X99060000Y-25400000D03*
X101600000Y-25400000D03*
X76200000Y-63500000D03*
X76200000Y-66040000D03*
X76200000Y-68580000D03*
X76200000Y-71120000D03*
X76200000Y-73660000D03*
X76200000Y-76200000D03*
X73660000Y-76200000D03*
X73660000Y-73660000D03*
X71120000Y-73660000D03*
X71120000Y-76200000D03*
X73660000Y-71120000D03*
X73660000Y-68580000D03*
X73660000Y-66040000D03*
X73660000Y-63500000D03*
X66040000Y-63500000D03*
X66040000Y-66040000D03*
X66040000Y-68580000D03*
X66040000Y-71120000D03*
X66040000Y-73660000D03*
X66040000Y-76200000D03*
X63500000Y-76200000D03*
X60960000Y-76200000D03*
X60960000Y-73660000D03*
X63500000Y-73660000D03*
X63500000Y-71120000D03*
X63500000Y-68580000D03*
X63500000Y-66040000D03*
X63500000Y-63500000D03*
X55880000Y-63500000D03*
X55880000Y-66040000D03*
X55880000Y-68580000D03*
X55880000Y-71120000D03*
X55880000Y-73660000D03*
X55880000Y-76200000D03*
X53340000Y-76200000D03*
X50800000Y-76200000D03*
X50800000Y-73660000D03*
X53340000Y-73660000D03*
X53340000Y-71120000D03*
X53340000Y-68580000D03*
X53340000Y-66040000D03*
X53340000Y-63500000D03*
X45720000Y-63500000D03*
X45720000Y-66040000D03*
X45720000Y-68580000D03*
X43180000Y-66040000D03*
X43180000Y-63500000D03*
X38100000Y-76200000D03*
X38100000Y-78740000D03*
X40640000Y-78740000D03*
X40640000Y-76200000D03*
X40640000Y-73660000D03*
X38100000Y-73660000D03*
%TO.N,pwm*%
X85580000Y-48895000D03*
X50020000Y-48895000D03*
%TO.N,Net-(J2-Pad1)*%
X93980000Y-50165000D03*
%TD*%
D15*
%TO.N,+5V*%
X48580000Y-32560000D02*
X48580000Y-31435000D01*
X48580000Y-31435000D02*
X48260000Y-31115000D01*
X58740000Y-32560000D02*
X58740000Y-31435000D01*
X58740000Y-31435000D02*
X58420000Y-31115000D01*
X68900000Y-32560000D02*
X68900000Y-31435000D01*
X68900000Y-31435000D02*
X68580000Y-31115000D01*
X79060000Y-32560000D02*
X79060000Y-31435000D01*
X79060000Y-31435000D02*
X78740000Y-31115000D01*
%TO.N,pwm*%
X98280000Y-48895000D02*
X90805000Y-48895000D01*
X90805000Y-48895000D02*
X89535000Y-47625000D01*
X86850000Y-47625000D02*
X85580000Y-48895000D01*
X89535000Y-47625000D02*
X86850000Y-47625000D01*
%TO.N,Net-(J2-Pad1)*%
X93980000Y-51840000D02*
X93980000Y-50165000D01*
%TO.N,Net-(J3-Pad1)*%
X102235000Y-51840000D02*
X102235000Y-44450000D01*
%TO.N,~A*%
X50800000Y-27160000D02*
X50800000Y-26670000D01*
X50800000Y-26670000D02*
X50165000Y-26035000D01*
X50165000Y-26035000D02*
X46990000Y-26035000D01*
X46990000Y-26035000D02*
X44450000Y-28575000D01*
X44450000Y-40005000D02*
X44449998Y-41642648D01*
X44450000Y-28575000D02*
X44450000Y-40005000D01*
X41675019Y-44417627D02*
X41675018Y-45141746D01*
X44449998Y-41642648D02*
X41675019Y-44417627D01*
X40550883Y-46265881D02*
X40550882Y-46990000D01*
X41675018Y-45141746D02*
X40550883Y-46265881D01*
X40550882Y-46990000D02*
X40005000Y-47535882D01*
X40005000Y-49530000D02*
X39370000Y-50165000D01*
X40005000Y-47535882D02*
X40005000Y-49530000D01*
X39370000Y-50165000D02*
X38100000Y-50165000D01*
%TO.N,~B*%
X39715873Y-46644127D02*
X38735000Y-47625000D01*
X39715873Y-45920009D02*
X39715873Y-46644127D01*
X40840009Y-44795873D02*
X39715873Y-45920009D01*
X43614989Y-41296775D02*
X40840010Y-44071754D01*
X60960000Y-27160000D02*
X60960000Y-26035000D01*
X38735000Y-47625000D02*
X38100000Y-47625000D01*
X40840010Y-44071754D02*
X40840009Y-44795873D01*
X60960000Y-26035000D02*
X60124990Y-25199990D01*
X46644127Y-25199991D02*
X43614990Y-28229128D01*
X60124990Y-25199990D02*
X46644127Y-25199991D01*
X43614990Y-28229128D02*
X43614989Y-41296775D01*
%TO.N,~C*%
X39370000Y-45085000D02*
X38100000Y-45085000D01*
X40005000Y-44450000D02*
X39370000Y-45085000D01*
X42779980Y-40950902D02*
X40005000Y-43725882D01*
X70084982Y-24364982D02*
X46298254Y-24364982D01*
X71120000Y-27160000D02*
X71120000Y-25400000D01*
X40005000Y-43725882D02*
X40005000Y-44450000D01*
X71120000Y-25400000D02*
X70084982Y-24364982D01*
X46298254Y-24364982D02*
X42779980Y-27883256D01*
X42779980Y-27883256D02*
X42779980Y-40950902D01*
%TO.N,~D*%
X40005000Y-42545000D02*
X38100000Y-42545000D01*
X41910000Y-40640000D02*
X40005000Y-42545000D01*
X81280000Y-24765000D02*
X80044972Y-23529972D01*
X81280000Y-27160000D02*
X81280000Y-24765000D01*
X80044972Y-23529972D02*
X45952381Y-23529973D01*
X41910000Y-27572354D02*
X41910000Y-40640000D01*
X45952381Y-23529973D02*
X41910000Y-27572354D01*
%TO.N,D*%
X42579970Y-76602616D02*
X42579970Y-72424970D01*
X41275000Y-71120000D02*
X39370000Y-71120000D01*
X58476743Y-79775019D02*
X45752372Y-79775018D01*
X59311754Y-78940010D02*
X58476743Y-79775019D01*
X42579970Y-72424970D02*
X41275000Y-71120000D01*
X78740000Y-77470000D02*
X78105000Y-78105000D01*
X45752372Y-79775018D02*
X42579970Y-76602616D01*
X78105000Y-78105000D02*
X69215000Y-78105000D01*
X78740000Y-75710000D02*
X78740000Y-77470000D01*
X68379990Y-78940010D02*
X59311754Y-78940010D01*
X69215000Y-78105000D02*
X68379990Y-78940010D01*
X39370000Y-71120000D02*
X38100000Y-71120000D01*
%TO.N,C*%
X39370000Y-68580000D02*
X38100000Y-68580000D01*
X41074991Y-70284991D02*
X39370000Y-68580000D01*
X43414979Y-72079097D02*
X41620873Y-70284991D01*
X41620873Y-70284991D02*
X41074991Y-70284991D01*
X46098245Y-78940009D02*
X43414980Y-76256744D01*
X43414980Y-76256744D02*
X43414979Y-72079097D01*
X68580000Y-77470000D02*
X67945000Y-78105000D01*
X58965882Y-78105000D02*
X58130872Y-78940010D01*
X67945000Y-78105000D02*
X58965882Y-78105000D01*
X68580000Y-75710000D02*
X68580000Y-77470000D01*
X58130872Y-78940010D02*
X46098245Y-78940009D01*
%TO.N,B*%
X40737501Y-68220737D02*
X40737501Y-67407501D01*
X44249990Y-71733226D02*
X40737501Y-68220737D01*
X40737501Y-67407501D02*
X39370000Y-66040000D01*
X58420000Y-75710000D02*
X58420000Y-77470000D01*
X58420000Y-77470000D02*
X57785000Y-78105000D01*
X44249990Y-75910872D02*
X44249990Y-71733226D01*
X57785000Y-78105000D02*
X46444118Y-78105000D01*
X46444118Y-78105000D02*
X44249990Y-75910872D01*
X39370000Y-66040000D02*
X38100000Y-66040000D01*
%TO.N,A*%
X41572511Y-66972511D02*
X40737501Y-66137501D01*
X40737501Y-66137501D02*
X40737501Y-64867501D01*
X41572511Y-67874865D02*
X41572511Y-66972511D01*
X45084999Y-71387353D02*
X41572511Y-67874865D01*
X48260000Y-76634990D02*
X47625000Y-77269990D01*
X48260000Y-75710000D02*
X48260000Y-76634990D01*
X40737501Y-64867501D02*
X39370000Y-63500000D01*
X47625000Y-77269990D02*
X46789990Y-77269990D01*
X45085000Y-75565000D02*
X45084999Y-71387353D01*
X46789990Y-77269990D02*
X45085000Y-75565000D01*
X39370000Y-63500000D02*
X38100000Y-63500000D01*
%TO.N,Net-(J6-Pad2)*%
X49530000Y-35560000D02*
X49530000Y-41910000D01*
%TO.N,Net-(J6-Pad1)*%
X49530000Y-44450000D02*
X59690000Y-44450000D01*
X69850000Y-44450000D02*
X80010000Y-44450000D01*
X64770000Y-51840000D02*
X64770000Y-44450000D01*
X69850000Y-44450000D02*
X64770000Y-44450000D01*
X64770000Y-44450000D02*
X59690000Y-44450000D01*
%TO.N,Net-(J7-Pad2)*%
X59690000Y-35560000D02*
X59690000Y-41910000D01*
%TO.N,Net-(J8-Pad2)*%
X69850000Y-35560000D02*
X69850000Y-41910000D01*
%TO.N,Net-(J9-Pad2)*%
X80010000Y-41910000D02*
X80010000Y-35560000D01*
%TO.N,Net-(Q1-Pad1)*%
X93030000Y-54840000D02*
X93030000Y-53660000D01*
X91125000Y-51755000D02*
X87860000Y-51755000D01*
X93030000Y-53660000D02*
X91125000Y-51755000D01*
X87630000Y-51525000D02*
X87860000Y-51755000D01*
X87630000Y-48895000D02*
X87630000Y-51525000D01*
%TO.N,Net-(Q1-Pad2)*%
X94930000Y-57960000D02*
X94615000Y-58275000D01*
X94930000Y-56830000D02*
X94930000Y-57960000D01*
X94930000Y-54840000D02*
X94930000Y-56830000D01*
X92738498Y-56830000D02*
X94930000Y-56830000D01*
X91440000Y-55531502D02*
X92738498Y-56830000D01*
X91440000Y-54610000D02*
X91440000Y-55531502D01*
X90485000Y-53655000D02*
X91440000Y-54610000D01*
X87860000Y-53655000D02*
X90485000Y-53655000D01*
%TO.N,Net-(Q2-Pad1)*%
X100903498Y-54840000D02*
X101285000Y-54840000D01*
X100330000Y-54266502D02*
X100903498Y-54840000D01*
X100330000Y-48895000D02*
X100330000Y-54266502D01*
%TO.N,Net-(Q2-Pad2)*%
X103185000Y-57960000D02*
X102870000Y-58275000D01*
X103185000Y-54840000D02*
X103185000Y-57960000D01*
%TO.N,Net-(Q3-Pad1)*%
X48580000Y-73340000D02*
X48260000Y-73660000D01*
X48580000Y-70080000D02*
X48580000Y-73340000D01*
%TO.N,Net-(Q3-Pad3)*%
X49530000Y-63010000D02*
X49530000Y-67310000D01*
%TO.N,Net-(Q4-Pad1)*%
X50480000Y-29530000D02*
X50800000Y-29210000D01*
X50480000Y-32560000D02*
X50480000Y-29530000D01*
%TO.N,Net-(Q5-Pad1)*%
X58740000Y-73340000D02*
X58420000Y-73660000D01*
X58740000Y-70080000D02*
X58740000Y-73340000D01*
%TO.N,Net-(Q5-Pad3)*%
X59690000Y-63010000D02*
X59690000Y-67310000D01*
%TO.N,Net-(Q6-Pad1)*%
X60640000Y-29530000D02*
X60960000Y-29210000D01*
X60640000Y-32560000D02*
X60640000Y-29530000D01*
%TO.N,Net-(Q7-Pad1)*%
X62460000Y-54840000D02*
X63820000Y-54840000D01*
X52070000Y-52070000D02*
X59690000Y-52070000D01*
X59690000Y-52070000D02*
X62460000Y-54840000D01*
X52070000Y-48895000D02*
X52070000Y-52070000D01*
%TO.N,Net-(Q7-Pad2)*%
X69850000Y-60960000D02*
X80010000Y-60960000D01*
X59690000Y-60960000D02*
X49530000Y-60960000D01*
X65720000Y-60640000D02*
X66040000Y-60960000D01*
X69850000Y-60960000D02*
X66040000Y-60960000D01*
X66040000Y-60960000D02*
X59690000Y-60960000D01*
X52070000Y-53970000D02*
X59050000Y-53970000D01*
X62550000Y-57470000D02*
X65720000Y-57470000D01*
X65720000Y-54840000D02*
X65720000Y-57470000D01*
X59050000Y-53970000D02*
X62550000Y-57470000D01*
X65720000Y-57470000D02*
X65720000Y-60640000D01*
%TO.N,Net-(Q8-Pad3)*%
X69850000Y-63010000D02*
X69850000Y-67080000D01*
%TO.N,Net-(Q8-Pad1)*%
X68900000Y-73340000D02*
X68580000Y-73660000D01*
X68900000Y-70080000D02*
X68900000Y-73340000D01*
%TO.N,Net-(Q9-Pad1)*%
X70800000Y-29530000D02*
X71120000Y-29210000D01*
X70800000Y-32560000D02*
X70800000Y-29530000D01*
%TO.N,Net-(Q10-Pad1)*%
X79060000Y-73340000D02*
X78740000Y-73660000D01*
X79060000Y-70080000D02*
X79060000Y-73340000D01*
%TO.N,Net-(Q10-Pad3)*%
X80010000Y-67080000D02*
X80010000Y-63010000D01*
%TO.N,Net-(Q11-Pad1)*%
X80960000Y-29530000D02*
X81280000Y-29210000D01*
X80960000Y-32560000D02*
X80960000Y-29530000D01*
%TD*%
D16*
%TO.N,GND*%
G36*
X41269569Y-26865747D02*
G01*
X41233222Y-26895576D01*
X41114194Y-27040613D01*
X41025748Y-27206086D01*
X41000168Y-27290412D01*
X40971283Y-27385632D01*
X40952892Y-27572354D01*
X40957500Y-27619139D01*
X40957501Y-40245460D01*
X39610462Y-41592500D01*
X39247607Y-41592500D01*
X39046632Y-41391525D01*
X38803411Y-41229010D01*
X38533158Y-41117068D01*
X38246260Y-41060000D01*
X37953740Y-41060000D01*
X37666842Y-41117068D01*
X37396589Y-41229010D01*
X37153368Y-41391525D01*
X36946525Y-41598368D01*
X36784010Y-41841589D01*
X36672068Y-42111842D01*
X36615000Y-42398740D01*
X36615000Y-42691260D01*
X36672068Y-42978158D01*
X36784010Y-43248411D01*
X36946525Y-43491632D01*
X37153368Y-43698475D01*
X37327760Y-43815000D01*
X37153368Y-43931525D01*
X36946525Y-44138368D01*
X36784010Y-44381589D01*
X36672068Y-44651842D01*
X36615000Y-44938740D01*
X36615000Y-45231260D01*
X36672068Y-45518158D01*
X36784010Y-45788411D01*
X36946525Y-46031632D01*
X37153368Y-46238475D01*
X37327760Y-46355000D01*
X37153368Y-46471525D01*
X36946525Y-46678368D01*
X36784010Y-46921589D01*
X36672068Y-47191842D01*
X36615000Y-47478740D01*
X36615000Y-47771260D01*
X36672068Y-48058158D01*
X36784010Y-48328411D01*
X36946525Y-48571632D01*
X37078380Y-48703487D01*
X37005820Y-48725498D01*
X36895506Y-48784463D01*
X36798815Y-48863815D01*
X36719463Y-48960506D01*
X36660498Y-49070820D01*
X36624188Y-49190518D01*
X36611928Y-49315000D01*
X36611928Y-51015000D01*
X36624188Y-51139482D01*
X36660498Y-51259180D01*
X36719463Y-51369494D01*
X36798815Y-51466185D01*
X36895506Y-51545537D01*
X37005820Y-51604502D01*
X37125518Y-51640812D01*
X37250000Y-51653072D01*
X38950000Y-51653072D01*
X39074482Y-51640812D01*
X39194180Y-51604502D01*
X39304494Y-51545537D01*
X39401185Y-51466185D01*
X39480537Y-51369494D01*
X39539502Y-51259180D01*
X39575812Y-51139482D01*
X39580031Y-51096647D01*
X39736269Y-51049252D01*
X39901741Y-50960806D01*
X40046778Y-50841778D01*
X40076608Y-50805430D01*
X40645426Y-50236611D01*
X40681778Y-50206778D01*
X40800806Y-50061741D01*
X40871223Y-49930000D01*
X40889252Y-49896270D01*
X40943717Y-49716722D01*
X40962108Y-49530000D01*
X40957500Y-49483215D01*
X40957500Y-47930420D01*
X41191319Y-47696601D01*
X41227659Y-47666778D01*
X41346687Y-47521742D01*
X41352398Y-47511057D01*
X41435134Y-47356270D01*
X41489599Y-47176722D01*
X41507990Y-46990000D01*
X41503381Y-46943208D01*
X41503382Y-46660420D01*
X42315460Y-45848343D01*
X42351795Y-45818524D01*
X42381616Y-45782187D01*
X42381619Y-45782184D01*
X42470824Y-45673487D01*
X42559269Y-45508016D01*
X42613735Y-45328469D01*
X42632126Y-45141746D01*
X42627517Y-45094954D01*
X42627518Y-44812166D01*
X45090439Y-42349246D01*
X45126775Y-42319426D01*
X45156595Y-42283090D01*
X45156599Y-42283086D01*
X45245804Y-42174389D01*
X45334249Y-42008918D01*
X45388715Y-41829371D01*
X45407106Y-41642648D01*
X45402497Y-41595855D01*
X45402500Y-39958217D01*
X45402500Y-28969538D01*
X47384538Y-26987500D01*
X49461928Y-26987500D01*
X49461928Y-27485001D01*
X49478992Y-27658255D01*
X49529528Y-27824851D01*
X49611595Y-27978387D01*
X49722038Y-28112962D01*
X49809816Y-28185000D01*
X49722038Y-28257038D01*
X49611595Y-28391613D01*
X49529528Y-28545149D01*
X49478992Y-28711745D01*
X49461928Y-28884999D01*
X49461928Y-29535001D01*
X49478992Y-29708255D01*
X49527501Y-29868168D01*
X49527500Y-31287242D01*
X49521438Y-31275899D01*
X49518717Y-31248277D01*
X49464252Y-31068731D01*
X49375806Y-30903259D01*
X49256778Y-30758222D01*
X49220426Y-30728389D01*
X49219932Y-30727894D01*
X49177205Y-30624744D01*
X49063937Y-30455226D01*
X48919774Y-30311063D01*
X48750256Y-30197795D01*
X48561898Y-30119774D01*
X48361939Y-30080000D01*
X48158061Y-30080000D01*
X47958102Y-30119774D01*
X47769744Y-30197795D01*
X47600226Y-30311063D01*
X47456063Y-30455226D01*
X47342795Y-30624744D01*
X47264774Y-30813102D01*
X47225000Y-31013061D01*
X47225000Y-31216939D01*
X47264774Y-31416898D01*
X47342795Y-31605256D01*
X47456063Y-31774774D01*
X47541928Y-31860639D01*
X47541928Y-33510000D01*
X47554188Y-33634482D01*
X47590498Y-33754180D01*
X47649463Y-33864494D01*
X47728815Y-33961185D01*
X47825506Y-34040537D01*
X47935820Y-34099502D01*
X48055518Y-34135812D01*
X48180000Y-34148072D01*
X48691905Y-34148072D01*
X48678815Y-34158815D01*
X48599463Y-34255506D01*
X48540498Y-34365820D01*
X48504188Y-34485518D01*
X48491928Y-34610000D01*
X48491928Y-36510000D01*
X48504188Y-36634482D01*
X48540498Y-36754180D01*
X48577500Y-36823405D01*
X48577501Y-40762392D01*
X48376525Y-40963368D01*
X48214010Y-41206589D01*
X48102068Y-41476842D01*
X48045000Y-41763740D01*
X48045000Y-42056260D01*
X48102068Y-42343158D01*
X48214010Y-42613411D01*
X48376525Y-42856632D01*
X48508380Y-42988487D01*
X48435820Y-43010498D01*
X48325506Y-43069463D01*
X48228815Y-43148815D01*
X48149463Y-43245506D01*
X48090498Y-43355820D01*
X48054188Y-43475518D01*
X48041928Y-43600000D01*
X48041928Y-45300000D01*
X48054188Y-45424482D01*
X48090498Y-45544180D01*
X48149463Y-45654494D01*
X48228815Y-45751185D01*
X48325506Y-45830537D01*
X48435820Y-45889502D01*
X48555518Y-45925812D01*
X48680000Y-45938072D01*
X50380000Y-45938072D01*
X50504482Y-45925812D01*
X50624180Y-45889502D01*
X50734494Y-45830537D01*
X50831185Y-45751185D01*
X50910537Y-45654494D01*
X50969502Y-45544180D01*
X51005812Y-45424482D01*
X51007977Y-45402500D01*
X58212023Y-45402500D01*
X58214188Y-45424482D01*
X58250498Y-45544180D01*
X58309463Y-45654494D01*
X58388815Y-45751185D01*
X58485506Y-45830537D01*
X58595820Y-45889502D01*
X58715518Y-45925812D01*
X58840000Y-45938072D01*
X60540000Y-45938072D01*
X60664482Y-45925812D01*
X60784180Y-45889502D01*
X60894494Y-45830537D01*
X60991185Y-45751185D01*
X61070537Y-45654494D01*
X61129502Y-45544180D01*
X61165812Y-45424482D01*
X61167977Y-45402500D01*
X63817501Y-45402500D01*
X63817500Y-50576595D01*
X63780498Y-50645820D01*
X63744188Y-50765518D01*
X63731928Y-50890000D01*
X63731928Y-52790000D01*
X63744188Y-52914482D01*
X63780498Y-53034180D01*
X63839463Y-53144494D01*
X63918815Y-53241185D01*
X63931905Y-53251928D01*
X63420000Y-53251928D01*
X63295518Y-53264188D01*
X63175820Y-53300498D01*
X63065506Y-53359463D01*
X62968815Y-53438815D01*
X62889463Y-53535506D01*
X62830498Y-53645820D01*
X62794188Y-53765518D01*
X62788662Y-53821624D01*
X60396607Y-51429569D01*
X60366778Y-51393222D01*
X60221741Y-51274194D01*
X60056269Y-51185748D01*
X59876723Y-51131283D01*
X59736785Y-51117500D01*
X59690000Y-51112892D01*
X59643215Y-51117500D01*
X53333405Y-51117500D01*
X53264180Y-51080498D01*
X53144482Y-51044188D01*
X53022500Y-51032174D01*
X53022500Y-49973341D01*
X53022962Y-49972962D01*
X53133405Y-49838387D01*
X53215472Y-49684851D01*
X53266008Y-49518255D01*
X53283072Y-49345001D01*
X53283072Y-48444999D01*
X53266008Y-48271745D01*
X53215472Y-48105149D01*
X53133405Y-47951613D01*
X53022962Y-47817038D01*
X52888387Y-47706595D01*
X52734851Y-47624528D01*
X52568255Y-47573992D01*
X52395001Y-47556928D01*
X51744999Y-47556928D01*
X51571745Y-47573992D01*
X51405149Y-47624528D01*
X51251613Y-47706595D01*
X51117038Y-47817038D01*
X51045000Y-47904816D01*
X50972962Y-47817038D01*
X50838387Y-47706595D01*
X50684851Y-47624528D01*
X50518255Y-47573992D01*
X50345001Y-47556928D01*
X49694999Y-47556928D01*
X49521745Y-47573992D01*
X49355149Y-47624528D01*
X49201613Y-47706595D01*
X49067038Y-47817038D01*
X48956595Y-47951613D01*
X48874528Y-48105149D01*
X48823992Y-48271745D01*
X48806928Y-48444999D01*
X48806928Y-49345001D01*
X48823992Y-49518255D01*
X48874528Y-49684851D01*
X48956595Y-49838387D01*
X49067038Y-49972962D01*
X49201613Y-50083405D01*
X49355149Y-50165472D01*
X49521745Y-50216008D01*
X49694999Y-50233072D01*
X50345001Y-50233072D01*
X50518255Y-50216008D01*
X50684851Y-50165472D01*
X50838387Y-50083405D01*
X50972962Y-49972962D01*
X51045000Y-49885184D01*
X51117038Y-49972962D01*
X51117500Y-49973341D01*
X51117501Y-51032174D01*
X50995518Y-51044188D01*
X50875820Y-51080498D01*
X50765506Y-51139463D01*
X50668815Y-51218815D01*
X50589463Y-51315506D01*
X50530498Y-51425820D01*
X50494188Y-51545518D01*
X50481928Y-51670000D01*
X50481928Y-52181905D01*
X50471185Y-52168815D01*
X50374494Y-52089463D01*
X50264180Y-52030498D01*
X50144482Y-51994188D01*
X50020000Y-51981928D01*
X49355750Y-51985000D01*
X49197000Y-52143750D01*
X49197000Y-52893000D01*
X50496250Y-52893000D01*
X50580857Y-52808393D01*
X50589463Y-52824494D01*
X50668815Y-52921185D01*
X50765506Y-53000537D01*
X50801918Y-53020000D01*
X50765506Y-53039463D01*
X50668815Y-53118815D01*
X50589463Y-53215506D01*
X50580857Y-53231607D01*
X50496250Y-53147000D01*
X49197000Y-53147000D01*
X49197000Y-53896250D01*
X49355750Y-54055000D01*
X50020000Y-54058072D01*
X50144482Y-54045812D01*
X50264180Y-54009502D01*
X50374494Y-53950537D01*
X50471185Y-53871185D01*
X50481928Y-53858095D01*
X50481928Y-54370000D01*
X50494188Y-54494482D01*
X50530498Y-54614180D01*
X50589463Y-54724494D01*
X50668815Y-54821185D01*
X50765506Y-54900537D01*
X50875820Y-54959502D01*
X50995518Y-54995812D01*
X51120000Y-55008072D01*
X53020000Y-55008072D01*
X53144482Y-54995812D01*
X53264180Y-54959502D01*
X53333405Y-54922500D01*
X58655462Y-54922500D01*
X61843393Y-58110431D01*
X61873222Y-58146778D01*
X62018259Y-58265806D01*
X62183731Y-58354252D01*
X62363277Y-58408717D01*
X62549999Y-58427108D01*
X62596784Y-58422500D01*
X64767500Y-58422500D01*
X64767501Y-60007500D01*
X60768341Y-60007500D01*
X60767962Y-60007038D01*
X60633387Y-59896595D01*
X60479851Y-59814528D01*
X60313255Y-59763992D01*
X60140001Y-59746928D01*
X59239999Y-59746928D01*
X59066745Y-59763992D01*
X58900149Y-59814528D01*
X58746613Y-59896595D01*
X58612038Y-60007038D01*
X58611659Y-60007500D01*
X50608341Y-60007500D01*
X50607962Y-60007038D01*
X50473387Y-59896595D01*
X50319851Y-59814528D01*
X50153255Y-59763992D01*
X49980001Y-59746928D01*
X49079999Y-59746928D01*
X48906745Y-59763992D01*
X48740149Y-59814528D01*
X48586613Y-59896595D01*
X48452038Y-60007038D01*
X48341595Y-60141613D01*
X48259528Y-60295149D01*
X48208992Y-60461745D01*
X48191928Y-60634999D01*
X48191928Y-61285001D01*
X48208992Y-61458255D01*
X48259528Y-61624851D01*
X48341595Y-61778387D01*
X48452038Y-61912962D01*
X48539816Y-61985000D01*
X48452038Y-62057038D01*
X48341595Y-62191613D01*
X48259528Y-62345149D01*
X48208992Y-62511745D01*
X48191928Y-62684999D01*
X48191928Y-63335001D01*
X48208992Y-63508255D01*
X48259528Y-63674851D01*
X48341595Y-63828387D01*
X48452038Y-63962962D01*
X48577500Y-64065926D01*
X48577501Y-65816594D01*
X48540498Y-65885820D01*
X48504188Y-66005518D01*
X48491928Y-66130000D01*
X48491928Y-68030000D01*
X48504188Y-68154482D01*
X48540498Y-68274180D01*
X48599463Y-68384494D01*
X48678815Y-68481185D01*
X48691905Y-68491928D01*
X48180000Y-68491928D01*
X48055518Y-68504188D01*
X47935820Y-68540498D01*
X47825506Y-68599463D01*
X47728815Y-68678815D01*
X47649463Y-68775506D01*
X47590498Y-68885820D01*
X47554188Y-69005518D01*
X47541928Y-69130000D01*
X47541928Y-71030000D01*
X47554188Y-71154482D01*
X47590498Y-71274180D01*
X47627500Y-71343406D01*
X47627501Y-72466796D01*
X47470149Y-72514528D01*
X47316613Y-72596595D01*
X47182038Y-72707038D01*
X47071595Y-72841613D01*
X46989528Y-72995149D01*
X46938992Y-73161745D01*
X46921928Y-73334999D01*
X46921928Y-73985001D01*
X46938992Y-74158255D01*
X46989528Y-74324851D01*
X47071595Y-74478387D01*
X47182038Y-74612962D01*
X47269816Y-74685000D01*
X47182038Y-74757038D01*
X47071595Y-74891613D01*
X46989528Y-75045149D01*
X46938992Y-75211745D01*
X46921928Y-75384999D01*
X46921928Y-76035001D01*
X46924101Y-76057062D01*
X46037500Y-75170462D01*
X46037498Y-71434147D01*
X46042107Y-71387352D01*
X46023716Y-71200630D01*
X45969250Y-71021083D01*
X45880805Y-70855612D01*
X45791600Y-70746915D01*
X45791596Y-70746911D01*
X45761776Y-70710575D01*
X45725440Y-70680755D01*
X42525011Y-67480327D01*
X42525011Y-67019295D01*
X42529619Y-66972510D01*
X42511228Y-66785788D01*
X42479270Y-66680437D01*
X42456763Y-66606242D01*
X42368317Y-66440770D01*
X42249289Y-66295733D01*
X42212942Y-66265904D01*
X41690001Y-65742963D01*
X41690001Y-64914285D01*
X41694609Y-64867500D01*
X41676218Y-64680778D01*
X41655375Y-64612068D01*
X41621753Y-64501232D01*
X41533307Y-64335760D01*
X41414279Y-64190723D01*
X41377932Y-64160894D01*
X40076607Y-62859569D01*
X40046778Y-62823222D01*
X39901741Y-62704194D01*
X39736269Y-62615748D01*
X39580031Y-62568353D01*
X39575812Y-62525518D01*
X39539502Y-62405820D01*
X39480537Y-62295506D01*
X39401185Y-62198815D01*
X39304494Y-62119463D01*
X39194180Y-62060498D01*
X39074482Y-62024188D01*
X38950000Y-62011928D01*
X37250000Y-62011928D01*
X37125518Y-62024188D01*
X37005820Y-62060498D01*
X36895506Y-62119463D01*
X36798815Y-62198815D01*
X36719463Y-62295506D01*
X36660498Y-62405820D01*
X36624188Y-62525518D01*
X36611928Y-62650000D01*
X36611928Y-64350000D01*
X36624188Y-64474482D01*
X36660498Y-64594180D01*
X36719463Y-64704494D01*
X36798815Y-64801185D01*
X36895506Y-64880537D01*
X37005820Y-64939502D01*
X37078380Y-64961513D01*
X36946525Y-65093368D01*
X36784010Y-65336589D01*
X36672068Y-65606842D01*
X36615000Y-65893740D01*
X36615000Y-66186260D01*
X36672068Y-66473158D01*
X36784010Y-66743411D01*
X36946525Y-66986632D01*
X37153368Y-67193475D01*
X37327760Y-67310000D01*
X37153368Y-67426525D01*
X36946525Y-67633368D01*
X36784010Y-67876589D01*
X36672068Y-68146842D01*
X36615000Y-68433740D01*
X36615000Y-68726260D01*
X36672068Y-69013158D01*
X36784010Y-69283411D01*
X36946525Y-69526632D01*
X37153368Y-69733475D01*
X37327760Y-69850000D01*
X37153368Y-69966525D01*
X36946525Y-70173368D01*
X36784010Y-70416589D01*
X36672068Y-70686842D01*
X36615000Y-70973740D01*
X36615000Y-71266260D01*
X36672068Y-71553158D01*
X36784010Y-71823411D01*
X36946525Y-72066632D01*
X37153368Y-72273475D01*
X37396589Y-72435990D01*
X37666842Y-72547932D01*
X37953740Y-72605000D01*
X38246260Y-72605000D01*
X38533158Y-72547932D01*
X38803411Y-72435990D01*
X39046632Y-72273475D01*
X39247607Y-72072500D01*
X40880462Y-72072500D01*
X41627471Y-72819510D01*
X41627470Y-76555831D01*
X41622862Y-76602616D01*
X41636221Y-76738249D01*
X41641253Y-76789338D01*
X41695718Y-76968884D01*
X41784164Y-77134357D01*
X41903192Y-77279394D01*
X41939539Y-77309223D01*
X45045774Y-80415459D01*
X45075594Y-80451795D01*
X45111930Y-80481615D01*
X45111934Y-80481619D01*
X45220631Y-80570824D01*
X45312634Y-80620000D01*
X38132279Y-80620000D01*
X37735455Y-80581091D01*
X37384794Y-80475220D01*
X37061377Y-80303257D01*
X36777518Y-80071748D01*
X36544035Y-79789514D01*
X36369816Y-79467304D01*
X36261498Y-79117385D01*
X36220000Y-78722557D01*
X36220000Y-53420000D01*
X47481928Y-53420000D01*
X47494188Y-53544482D01*
X47530498Y-53664180D01*
X47589463Y-53774494D01*
X47668815Y-53871185D01*
X47765506Y-53950537D01*
X47875820Y-54009502D01*
X47995518Y-54045812D01*
X48120000Y-54058072D01*
X48784250Y-54055000D01*
X48943000Y-53896250D01*
X48943000Y-53147000D01*
X47643750Y-53147000D01*
X47485000Y-53305750D01*
X47481928Y-53420000D01*
X36220000Y-53420000D01*
X36220000Y-52620000D01*
X47481928Y-52620000D01*
X47485000Y-52734250D01*
X47643750Y-52893000D01*
X48943000Y-52893000D01*
X48943000Y-52143750D01*
X48784250Y-51985000D01*
X48120000Y-51981928D01*
X47995518Y-51994188D01*
X47875820Y-52030498D01*
X47765506Y-52089463D01*
X47668815Y-52168815D01*
X47589463Y-52265506D01*
X47530498Y-52375820D01*
X47494188Y-52495518D01*
X47481928Y-52620000D01*
X36220000Y-52620000D01*
X36220000Y-35413740D01*
X36615000Y-35413740D01*
X36615000Y-35706260D01*
X36672068Y-35993158D01*
X36784010Y-36263411D01*
X36946525Y-36506632D01*
X37153368Y-36713475D01*
X37396589Y-36875990D01*
X37666842Y-36987932D01*
X37953740Y-37045000D01*
X38246260Y-37045000D01*
X38533158Y-36987932D01*
X38803411Y-36875990D01*
X39046632Y-36713475D01*
X39253475Y-36506632D01*
X39415990Y-36263411D01*
X39527932Y-35993158D01*
X39585000Y-35706260D01*
X39585000Y-35413740D01*
X39527932Y-35126842D01*
X39415990Y-34856589D01*
X39253475Y-34613368D01*
X39046632Y-34406525D01*
X38864466Y-34284805D01*
X38981355Y-34215178D01*
X39197588Y-34020269D01*
X39371641Y-33786920D01*
X39496825Y-33524099D01*
X39541476Y-33376890D01*
X39420155Y-33147000D01*
X38227000Y-33147000D01*
X38227000Y-33167000D01*
X37973000Y-33167000D01*
X37973000Y-33147000D01*
X36779845Y-33147000D01*
X36658524Y-33376890D01*
X36703175Y-33524099D01*
X36828359Y-33786920D01*
X37002412Y-34020269D01*
X37218645Y-34215178D01*
X37335534Y-34284805D01*
X37153368Y-34406525D01*
X36946525Y-34613368D01*
X36784010Y-34856589D01*
X36672068Y-35126842D01*
X36615000Y-35413740D01*
X36220000Y-35413740D01*
X36220000Y-29630000D01*
X36611928Y-29630000D01*
X36611928Y-31330000D01*
X36624188Y-31454482D01*
X36660498Y-31574180D01*
X36719463Y-31684494D01*
X36798815Y-31781185D01*
X36895506Y-31860537D01*
X37005820Y-31919502D01*
X37086466Y-31943966D01*
X37002412Y-32019731D01*
X36828359Y-32253080D01*
X36703175Y-32515901D01*
X36658524Y-32663110D01*
X36779845Y-32893000D01*
X37973000Y-32893000D01*
X37973000Y-32873000D01*
X38227000Y-32873000D01*
X38227000Y-32893000D01*
X39420155Y-32893000D01*
X39541476Y-32663110D01*
X39496825Y-32515901D01*
X39371641Y-32253080D01*
X39197588Y-32019731D01*
X39113534Y-31943966D01*
X39194180Y-31919502D01*
X39304494Y-31860537D01*
X39401185Y-31781185D01*
X39480537Y-31684494D01*
X39539502Y-31574180D01*
X39575812Y-31454482D01*
X39588072Y-31330000D01*
X39588072Y-29630000D01*
X39575812Y-29505518D01*
X39539502Y-29385820D01*
X39480537Y-29275506D01*
X39401185Y-29178815D01*
X39304494Y-29099463D01*
X39194180Y-29040498D01*
X39074482Y-29004188D01*
X38950000Y-28991928D01*
X37250000Y-28991928D01*
X37125518Y-29004188D01*
X37005820Y-29040498D01*
X36895506Y-29099463D01*
X36798815Y-29178815D01*
X36719463Y-29275506D01*
X36660498Y-29385820D01*
X36624188Y-29505518D01*
X36611928Y-29630000D01*
X36220000Y-29630000D01*
X36220000Y-25432279D01*
X36258909Y-25035455D01*
X36364780Y-24684792D01*
X36536744Y-24361375D01*
X36768254Y-24077516D01*
X37050486Y-23844035D01*
X37372695Y-23669817D01*
X37722614Y-23561498D01*
X38117443Y-23520000D01*
X44615315Y-23520000D01*
X41269569Y-26865747D01*
G37*
X41269569Y-26865747D02*
X41233222Y-26895576D01*
X41114194Y-27040613D01*
X41025748Y-27206086D01*
X41000168Y-27290412D01*
X40971283Y-27385632D01*
X40952892Y-27572354D01*
X40957500Y-27619139D01*
X40957501Y-40245460D01*
X39610462Y-41592500D01*
X39247607Y-41592500D01*
X39046632Y-41391525D01*
X38803411Y-41229010D01*
X38533158Y-41117068D01*
X38246260Y-41060000D01*
X37953740Y-41060000D01*
X37666842Y-41117068D01*
X37396589Y-41229010D01*
X37153368Y-41391525D01*
X36946525Y-41598368D01*
X36784010Y-41841589D01*
X36672068Y-42111842D01*
X36615000Y-42398740D01*
X36615000Y-42691260D01*
X36672068Y-42978158D01*
X36784010Y-43248411D01*
X36946525Y-43491632D01*
X37153368Y-43698475D01*
X37327760Y-43815000D01*
X37153368Y-43931525D01*
X36946525Y-44138368D01*
X36784010Y-44381589D01*
X36672068Y-44651842D01*
X36615000Y-44938740D01*
X36615000Y-45231260D01*
X36672068Y-45518158D01*
X36784010Y-45788411D01*
X36946525Y-46031632D01*
X37153368Y-46238475D01*
X37327760Y-46355000D01*
X37153368Y-46471525D01*
X36946525Y-46678368D01*
X36784010Y-46921589D01*
X36672068Y-47191842D01*
X36615000Y-47478740D01*
X36615000Y-47771260D01*
X36672068Y-48058158D01*
X36784010Y-48328411D01*
X36946525Y-48571632D01*
X37078380Y-48703487D01*
X37005820Y-48725498D01*
X36895506Y-48784463D01*
X36798815Y-48863815D01*
X36719463Y-48960506D01*
X36660498Y-49070820D01*
X36624188Y-49190518D01*
X36611928Y-49315000D01*
X36611928Y-51015000D01*
X36624188Y-51139482D01*
X36660498Y-51259180D01*
X36719463Y-51369494D01*
X36798815Y-51466185D01*
X36895506Y-51545537D01*
X37005820Y-51604502D01*
X37125518Y-51640812D01*
X37250000Y-51653072D01*
X38950000Y-51653072D01*
X39074482Y-51640812D01*
X39194180Y-51604502D01*
X39304494Y-51545537D01*
X39401185Y-51466185D01*
X39480537Y-51369494D01*
X39539502Y-51259180D01*
X39575812Y-51139482D01*
X39580031Y-51096647D01*
X39736269Y-51049252D01*
X39901741Y-50960806D01*
X40046778Y-50841778D01*
X40076608Y-50805430D01*
X40645426Y-50236611D01*
X40681778Y-50206778D01*
X40800806Y-50061741D01*
X40871223Y-49930000D01*
X40889252Y-49896270D01*
X40943717Y-49716722D01*
X40962108Y-49530000D01*
X40957500Y-49483215D01*
X40957500Y-47930420D01*
X41191319Y-47696601D01*
X41227659Y-47666778D01*
X41346687Y-47521742D01*
X41352398Y-47511057D01*
X41435134Y-47356270D01*
X41489599Y-47176722D01*
X41507990Y-46990000D01*
X41503381Y-46943208D01*
X41503382Y-46660420D01*
X42315460Y-45848343D01*
X42351795Y-45818524D01*
X42381616Y-45782187D01*
X42381619Y-45782184D01*
X42470824Y-45673487D01*
X42559269Y-45508016D01*
X42613735Y-45328469D01*
X42632126Y-45141746D01*
X42627517Y-45094954D01*
X42627518Y-44812166D01*
X45090439Y-42349246D01*
X45126775Y-42319426D01*
X45156595Y-42283090D01*
X45156599Y-42283086D01*
X45245804Y-42174389D01*
X45334249Y-42008918D01*
X45388715Y-41829371D01*
X45407106Y-41642648D01*
X45402497Y-41595855D01*
X45402500Y-39958217D01*
X45402500Y-28969538D01*
X47384538Y-26987500D01*
X49461928Y-26987500D01*
X49461928Y-27485001D01*
X49478992Y-27658255D01*
X49529528Y-27824851D01*
X49611595Y-27978387D01*
X49722038Y-28112962D01*
X49809816Y-28185000D01*
X49722038Y-28257038D01*
X49611595Y-28391613D01*
X49529528Y-28545149D01*
X49478992Y-28711745D01*
X49461928Y-28884999D01*
X49461928Y-29535001D01*
X49478992Y-29708255D01*
X49527501Y-29868168D01*
X49527500Y-31287242D01*
X49521438Y-31275899D01*
X49518717Y-31248277D01*
X49464252Y-31068731D01*
X49375806Y-30903259D01*
X49256778Y-30758222D01*
X49220426Y-30728389D01*
X49219932Y-30727894D01*
X49177205Y-30624744D01*
X49063937Y-30455226D01*
X48919774Y-30311063D01*
X48750256Y-30197795D01*
X48561898Y-30119774D01*
X48361939Y-30080000D01*
X48158061Y-30080000D01*
X47958102Y-30119774D01*
X47769744Y-30197795D01*
X47600226Y-30311063D01*
X47456063Y-30455226D01*
X47342795Y-30624744D01*
X47264774Y-30813102D01*
X47225000Y-31013061D01*
X47225000Y-31216939D01*
X47264774Y-31416898D01*
X47342795Y-31605256D01*
X47456063Y-31774774D01*
X47541928Y-31860639D01*
X47541928Y-33510000D01*
X47554188Y-33634482D01*
X47590498Y-33754180D01*
X47649463Y-33864494D01*
X47728815Y-33961185D01*
X47825506Y-34040537D01*
X47935820Y-34099502D01*
X48055518Y-34135812D01*
X48180000Y-34148072D01*
X48691905Y-34148072D01*
X48678815Y-34158815D01*
X48599463Y-34255506D01*
X48540498Y-34365820D01*
X48504188Y-34485518D01*
X48491928Y-34610000D01*
X48491928Y-36510000D01*
X48504188Y-36634482D01*
X48540498Y-36754180D01*
X48577500Y-36823405D01*
X48577501Y-40762392D01*
X48376525Y-40963368D01*
X48214010Y-41206589D01*
X48102068Y-41476842D01*
X48045000Y-41763740D01*
X48045000Y-42056260D01*
X48102068Y-42343158D01*
X48214010Y-42613411D01*
X48376525Y-42856632D01*
X48508380Y-42988487D01*
X48435820Y-43010498D01*
X48325506Y-43069463D01*
X48228815Y-43148815D01*
X48149463Y-43245506D01*
X48090498Y-43355820D01*
X48054188Y-43475518D01*
X48041928Y-43600000D01*
X48041928Y-45300000D01*
X48054188Y-45424482D01*
X48090498Y-45544180D01*
X48149463Y-45654494D01*
X48228815Y-45751185D01*
X48325506Y-45830537D01*
X48435820Y-45889502D01*
X48555518Y-45925812D01*
X48680000Y-45938072D01*
X50380000Y-45938072D01*
X50504482Y-45925812D01*
X50624180Y-45889502D01*
X50734494Y-45830537D01*
X50831185Y-45751185D01*
X50910537Y-45654494D01*
X50969502Y-45544180D01*
X51005812Y-45424482D01*
X51007977Y-45402500D01*
X58212023Y-45402500D01*
X58214188Y-45424482D01*
X58250498Y-45544180D01*
X58309463Y-45654494D01*
X58388815Y-45751185D01*
X58485506Y-45830537D01*
X58595820Y-45889502D01*
X58715518Y-45925812D01*
X58840000Y-45938072D01*
X60540000Y-45938072D01*
X60664482Y-45925812D01*
X60784180Y-45889502D01*
X60894494Y-45830537D01*
X60991185Y-45751185D01*
X61070537Y-45654494D01*
X61129502Y-45544180D01*
X61165812Y-45424482D01*
X61167977Y-45402500D01*
X63817501Y-45402500D01*
X63817500Y-50576595D01*
X63780498Y-50645820D01*
X63744188Y-50765518D01*
X63731928Y-50890000D01*
X63731928Y-52790000D01*
X63744188Y-52914482D01*
X63780498Y-53034180D01*
X63839463Y-53144494D01*
X63918815Y-53241185D01*
X63931905Y-53251928D01*
X63420000Y-53251928D01*
X63295518Y-53264188D01*
X63175820Y-53300498D01*
X63065506Y-53359463D01*
X62968815Y-53438815D01*
X62889463Y-53535506D01*
X62830498Y-53645820D01*
X62794188Y-53765518D01*
X62788662Y-53821624D01*
X60396607Y-51429569D01*
X60366778Y-51393222D01*
X60221741Y-51274194D01*
X60056269Y-51185748D01*
X59876723Y-51131283D01*
X59736785Y-51117500D01*
X59690000Y-51112892D01*
X59643215Y-51117500D01*
X53333405Y-51117500D01*
X53264180Y-51080498D01*
X53144482Y-51044188D01*
X53022500Y-51032174D01*
X53022500Y-49973341D01*
X53022962Y-49972962D01*
X53133405Y-49838387D01*
X53215472Y-49684851D01*
X53266008Y-49518255D01*
X53283072Y-49345001D01*
X53283072Y-48444999D01*
X53266008Y-48271745D01*
X53215472Y-48105149D01*
X53133405Y-47951613D01*
X53022962Y-47817038D01*
X52888387Y-47706595D01*
X52734851Y-47624528D01*
X52568255Y-47573992D01*
X52395001Y-47556928D01*
X51744999Y-47556928D01*
X51571745Y-47573992D01*
X51405149Y-47624528D01*
X51251613Y-47706595D01*
X51117038Y-47817038D01*
X51045000Y-47904816D01*
X50972962Y-47817038D01*
X50838387Y-47706595D01*
X50684851Y-47624528D01*
X50518255Y-47573992D01*
X50345001Y-47556928D01*
X49694999Y-47556928D01*
X49521745Y-47573992D01*
X49355149Y-47624528D01*
X49201613Y-47706595D01*
X49067038Y-47817038D01*
X48956595Y-47951613D01*
X48874528Y-48105149D01*
X48823992Y-48271745D01*
X48806928Y-48444999D01*
X48806928Y-49345001D01*
X48823992Y-49518255D01*
X48874528Y-49684851D01*
X48956595Y-49838387D01*
X49067038Y-49972962D01*
X49201613Y-50083405D01*
X49355149Y-50165472D01*
X49521745Y-50216008D01*
X49694999Y-50233072D01*
X50345001Y-50233072D01*
X50518255Y-50216008D01*
X50684851Y-50165472D01*
X50838387Y-50083405D01*
X50972962Y-49972962D01*
X51045000Y-49885184D01*
X51117038Y-49972962D01*
X51117500Y-49973341D01*
X51117501Y-51032174D01*
X50995518Y-51044188D01*
X50875820Y-51080498D01*
X50765506Y-51139463D01*
X50668815Y-51218815D01*
X50589463Y-51315506D01*
X50530498Y-51425820D01*
X50494188Y-51545518D01*
X50481928Y-51670000D01*
X50481928Y-52181905D01*
X50471185Y-52168815D01*
X50374494Y-52089463D01*
X50264180Y-52030498D01*
X50144482Y-51994188D01*
X50020000Y-51981928D01*
X49355750Y-51985000D01*
X49197000Y-52143750D01*
X49197000Y-52893000D01*
X50496250Y-52893000D01*
X50580857Y-52808393D01*
X50589463Y-52824494D01*
X50668815Y-52921185D01*
X50765506Y-53000537D01*
X50801918Y-53020000D01*
X50765506Y-53039463D01*
X50668815Y-53118815D01*
X50589463Y-53215506D01*
X50580857Y-53231607D01*
X50496250Y-53147000D01*
X49197000Y-53147000D01*
X49197000Y-53896250D01*
X49355750Y-54055000D01*
X50020000Y-54058072D01*
X50144482Y-54045812D01*
X50264180Y-54009502D01*
X50374494Y-53950537D01*
X50471185Y-53871185D01*
X50481928Y-53858095D01*
X50481928Y-54370000D01*
X50494188Y-54494482D01*
X50530498Y-54614180D01*
X50589463Y-54724494D01*
X50668815Y-54821185D01*
X50765506Y-54900537D01*
X50875820Y-54959502D01*
X50995518Y-54995812D01*
X51120000Y-55008072D01*
X53020000Y-55008072D01*
X53144482Y-54995812D01*
X53264180Y-54959502D01*
X53333405Y-54922500D01*
X58655462Y-54922500D01*
X61843393Y-58110431D01*
X61873222Y-58146778D01*
X62018259Y-58265806D01*
X62183731Y-58354252D01*
X62363277Y-58408717D01*
X62549999Y-58427108D01*
X62596784Y-58422500D01*
X64767500Y-58422500D01*
X64767501Y-60007500D01*
X60768341Y-60007500D01*
X60767962Y-60007038D01*
X60633387Y-59896595D01*
X60479851Y-59814528D01*
X60313255Y-59763992D01*
X60140001Y-59746928D01*
X59239999Y-59746928D01*
X59066745Y-59763992D01*
X58900149Y-59814528D01*
X58746613Y-59896595D01*
X58612038Y-60007038D01*
X58611659Y-60007500D01*
X50608341Y-60007500D01*
X50607962Y-60007038D01*
X50473387Y-59896595D01*
X50319851Y-59814528D01*
X50153255Y-59763992D01*
X49980001Y-59746928D01*
X49079999Y-59746928D01*
X48906745Y-59763992D01*
X48740149Y-59814528D01*
X48586613Y-59896595D01*
X48452038Y-60007038D01*
X48341595Y-60141613D01*
X48259528Y-60295149D01*
X48208992Y-60461745D01*
X48191928Y-60634999D01*
X48191928Y-61285001D01*
X48208992Y-61458255D01*
X48259528Y-61624851D01*
X48341595Y-61778387D01*
X48452038Y-61912962D01*
X48539816Y-61985000D01*
X48452038Y-62057038D01*
X48341595Y-62191613D01*
X48259528Y-62345149D01*
X48208992Y-62511745D01*
X48191928Y-62684999D01*
X48191928Y-63335001D01*
X48208992Y-63508255D01*
X48259528Y-63674851D01*
X48341595Y-63828387D01*
X48452038Y-63962962D01*
X48577500Y-64065926D01*
X48577501Y-65816594D01*
X48540498Y-65885820D01*
X48504188Y-66005518D01*
X48491928Y-66130000D01*
X48491928Y-68030000D01*
X48504188Y-68154482D01*
X48540498Y-68274180D01*
X48599463Y-68384494D01*
X48678815Y-68481185D01*
X48691905Y-68491928D01*
X48180000Y-68491928D01*
X48055518Y-68504188D01*
X47935820Y-68540498D01*
X47825506Y-68599463D01*
X47728815Y-68678815D01*
X47649463Y-68775506D01*
X47590498Y-68885820D01*
X47554188Y-69005518D01*
X47541928Y-69130000D01*
X47541928Y-71030000D01*
X47554188Y-71154482D01*
X47590498Y-71274180D01*
X47627500Y-71343406D01*
X47627501Y-72466796D01*
X47470149Y-72514528D01*
X47316613Y-72596595D01*
X47182038Y-72707038D01*
X47071595Y-72841613D01*
X46989528Y-72995149D01*
X46938992Y-73161745D01*
X46921928Y-73334999D01*
X46921928Y-73985001D01*
X46938992Y-74158255D01*
X46989528Y-74324851D01*
X47071595Y-74478387D01*
X47182038Y-74612962D01*
X47269816Y-74685000D01*
X47182038Y-74757038D01*
X47071595Y-74891613D01*
X46989528Y-75045149D01*
X46938992Y-75211745D01*
X46921928Y-75384999D01*
X46921928Y-76035001D01*
X46924101Y-76057062D01*
X46037500Y-75170462D01*
X46037498Y-71434147D01*
X46042107Y-71387352D01*
X46023716Y-71200630D01*
X45969250Y-71021083D01*
X45880805Y-70855612D01*
X45791600Y-70746915D01*
X45791596Y-70746911D01*
X45761776Y-70710575D01*
X45725440Y-70680755D01*
X42525011Y-67480327D01*
X42525011Y-67019295D01*
X42529619Y-66972510D01*
X42511228Y-66785788D01*
X42479270Y-66680437D01*
X42456763Y-66606242D01*
X42368317Y-66440770D01*
X42249289Y-66295733D01*
X42212942Y-66265904D01*
X41690001Y-65742963D01*
X41690001Y-64914285D01*
X41694609Y-64867500D01*
X41676218Y-64680778D01*
X41655375Y-64612068D01*
X41621753Y-64501232D01*
X41533307Y-64335760D01*
X41414279Y-64190723D01*
X41377932Y-64160894D01*
X40076607Y-62859569D01*
X40046778Y-62823222D01*
X39901741Y-62704194D01*
X39736269Y-62615748D01*
X39580031Y-62568353D01*
X39575812Y-62525518D01*
X39539502Y-62405820D01*
X39480537Y-62295506D01*
X39401185Y-62198815D01*
X39304494Y-62119463D01*
X39194180Y-62060498D01*
X39074482Y-62024188D01*
X38950000Y-62011928D01*
X37250000Y-62011928D01*
X37125518Y-62024188D01*
X37005820Y-62060498D01*
X36895506Y-62119463D01*
X36798815Y-62198815D01*
X36719463Y-62295506D01*
X36660498Y-62405820D01*
X36624188Y-62525518D01*
X36611928Y-62650000D01*
X36611928Y-64350000D01*
X36624188Y-64474482D01*
X36660498Y-64594180D01*
X36719463Y-64704494D01*
X36798815Y-64801185D01*
X36895506Y-64880537D01*
X37005820Y-64939502D01*
X37078380Y-64961513D01*
X36946525Y-65093368D01*
X36784010Y-65336589D01*
X36672068Y-65606842D01*
X36615000Y-65893740D01*
X36615000Y-66186260D01*
X36672068Y-66473158D01*
X36784010Y-66743411D01*
X36946525Y-66986632D01*
X37153368Y-67193475D01*
X37327760Y-67310000D01*
X37153368Y-67426525D01*
X36946525Y-67633368D01*
X36784010Y-67876589D01*
X36672068Y-68146842D01*
X36615000Y-68433740D01*
X36615000Y-68726260D01*
X36672068Y-69013158D01*
X36784010Y-69283411D01*
X36946525Y-69526632D01*
X37153368Y-69733475D01*
X37327760Y-69850000D01*
X37153368Y-69966525D01*
X36946525Y-70173368D01*
X36784010Y-70416589D01*
X36672068Y-70686842D01*
X36615000Y-70973740D01*
X36615000Y-71266260D01*
X36672068Y-71553158D01*
X36784010Y-71823411D01*
X36946525Y-72066632D01*
X37153368Y-72273475D01*
X37396589Y-72435990D01*
X37666842Y-72547932D01*
X37953740Y-72605000D01*
X38246260Y-72605000D01*
X38533158Y-72547932D01*
X38803411Y-72435990D01*
X39046632Y-72273475D01*
X39247607Y-72072500D01*
X40880462Y-72072500D01*
X41627471Y-72819510D01*
X41627470Y-76555831D01*
X41622862Y-76602616D01*
X41636221Y-76738249D01*
X41641253Y-76789338D01*
X41695718Y-76968884D01*
X41784164Y-77134357D01*
X41903192Y-77279394D01*
X41939539Y-77309223D01*
X45045774Y-80415459D01*
X45075594Y-80451795D01*
X45111930Y-80481615D01*
X45111934Y-80481619D01*
X45220631Y-80570824D01*
X45312634Y-80620000D01*
X38132279Y-80620000D01*
X37735455Y-80581091D01*
X37384794Y-80475220D01*
X37061377Y-80303257D01*
X36777518Y-80071748D01*
X36544035Y-79789514D01*
X36369816Y-79467304D01*
X36261498Y-79117385D01*
X36220000Y-78722557D01*
X36220000Y-53420000D01*
X47481928Y-53420000D01*
X47494188Y-53544482D01*
X47530498Y-53664180D01*
X47589463Y-53774494D01*
X47668815Y-53871185D01*
X47765506Y-53950537D01*
X47875820Y-54009502D01*
X47995518Y-54045812D01*
X48120000Y-54058072D01*
X48784250Y-54055000D01*
X48943000Y-53896250D01*
X48943000Y-53147000D01*
X47643750Y-53147000D01*
X47485000Y-53305750D01*
X47481928Y-53420000D01*
X36220000Y-53420000D01*
X36220000Y-52620000D01*
X47481928Y-52620000D01*
X47485000Y-52734250D01*
X47643750Y-52893000D01*
X48943000Y-52893000D01*
X48943000Y-52143750D01*
X48784250Y-51985000D01*
X48120000Y-51981928D01*
X47995518Y-51994188D01*
X47875820Y-52030498D01*
X47765506Y-52089463D01*
X47668815Y-52168815D01*
X47589463Y-52265506D01*
X47530498Y-52375820D01*
X47494188Y-52495518D01*
X47481928Y-52620000D01*
X36220000Y-52620000D01*
X36220000Y-35413740D01*
X36615000Y-35413740D01*
X36615000Y-35706260D01*
X36672068Y-35993158D01*
X36784010Y-36263411D01*
X36946525Y-36506632D01*
X37153368Y-36713475D01*
X37396589Y-36875990D01*
X37666842Y-36987932D01*
X37953740Y-37045000D01*
X38246260Y-37045000D01*
X38533158Y-36987932D01*
X38803411Y-36875990D01*
X39046632Y-36713475D01*
X39253475Y-36506632D01*
X39415990Y-36263411D01*
X39527932Y-35993158D01*
X39585000Y-35706260D01*
X39585000Y-35413740D01*
X39527932Y-35126842D01*
X39415990Y-34856589D01*
X39253475Y-34613368D01*
X39046632Y-34406525D01*
X38864466Y-34284805D01*
X38981355Y-34215178D01*
X39197588Y-34020269D01*
X39371641Y-33786920D01*
X39496825Y-33524099D01*
X39541476Y-33376890D01*
X39420155Y-33147000D01*
X38227000Y-33147000D01*
X38227000Y-33167000D01*
X37973000Y-33167000D01*
X37973000Y-33147000D01*
X36779845Y-33147000D01*
X36658524Y-33376890D01*
X36703175Y-33524099D01*
X36828359Y-33786920D01*
X37002412Y-34020269D01*
X37218645Y-34215178D01*
X37335534Y-34284805D01*
X37153368Y-34406525D01*
X36946525Y-34613368D01*
X36784010Y-34856589D01*
X36672068Y-35126842D01*
X36615000Y-35413740D01*
X36220000Y-35413740D01*
X36220000Y-29630000D01*
X36611928Y-29630000D01*
X36611928Y-31330000D01*
X36624188Y-31454482D01*
X36660498Y-31574180D01*
X36719463Y-31684494D01*
X36798815Y-31781185D01*
X36895506Y-31860537D01*
X37005820Y-31919502D01*
X37086466Y-31943966D01*
X37002412Y-32019731D01*
X36828359Y-32253080D01*
X36703175Y-32515901D01*
X36658524Y-32663110D01*
X36779845Y-32893000D01*
X37973000Y-32893000D01*
X37973000Y-32873000D01*
X38227000Y-32873000D01*
X38227000Y-32893000D01*
X39420155Y-32893000D01*
X39541476Y-32663110D01*
X39496825Y-32515901D01*
X39371641Y-32253080D01*
X39197588Y-32019731D01*
X39113534Y-31943966D01*
X39194180Y-31919502D01*
X39304494Y-31860537D01*
X39401185Y-31781185D01*
X39480537Y-31684494D01*
X39539502Y-31574180D01*
X39575812Y-31454482D01*
X39588072Y-31330000D01*
X39588072Y-29630000D01*
X39575812Y-29505518D01*
X39539502Y-29385820D01*
X39480537Y-29275506D01*
X39401185Y-29178815D01*
X39304494Y-29099463D01*
X39194180Y-29040498D01*
X39074482Y-29004188D01*
X38950000Y-28991928D01*
X37250000Y-28991928D01*
X37125518Y-29004188D01*
X37005820Y-29040498D01*
X36895506Y-29099463D01*
X36798815Y-29178815D01*
X36719463Y-29275506D01*
X36660498Y-29385820D01*
X36624188Y-29505518D01*
X36611928Y-29630000D01*
X36220000Y-29630000D01*
X36220000Y-25432279D01*
X36258909Y-25035455D01*
X36364780Y-24684792D01*
X36536744Y-24361375D01*
X36768254Y-24077516D01*
X37050486Y-23844035D01*
X37372695Y-23669817D01*
X37722614Y-23561498D01*
X38117443Y-23520000D01*
X44615315Y-23520000D01*
X41269569Y-26865747D01*
G36*
X103234545Y-23558909D02*
G01*
X103585208Y-23664780D01*
X103908625Y-23836744D01*
X104192484Y-24068254D01*
X104425965Y-24350486D01*
X104600183Y-24672695D01*
X104708502Y-25022614D01*
X104750000Y-25417443D01*
X104750001Y-78707711D01*
X104711091Y-79104545D01*
X104605220Y-79455206D01*
X104433257Y-79778623D01*
X104201748Y-80062482D01*
X103919514Y-80295965D01*
X103597304Y-80470184D01*
X103247385Y-80578502D01*
X102852557Y-80620000D01*
X58916482Y-80620000D01*
X59008483Y-80570825D01*
X59153520Y-80451797D01*
X59183348Y-80415452D01*
X59706292Y-79892510D01*
X68333205Y-79892510D01*
X68379990Y-79897118D01*
X68426775Y-79892510D01*
X68566713Y-79878727D01*
X68746259Y-79824262D01*
X68911731Y-79735816D01*
X69056768Y-79616788D01*
X69086597Y-79580441D01*
X69609538Y-79057500D01*
X78058215Y-79057500D01*
X78105000Y-79062108D01*
X78151785Y-79057500D01*
X78291723Y-79043717D01*
X78471269Y-78989252D01*
X78636741Y-78900806D01*
X78781778Y-78781778D01*
X78811608Y-78745430D01*
X79380426Y-78176611D01*
X79416778Y-78146778D01*
X79535806Y-78001741D01*
X79580418Y-77918277D01*
X79624252Y-77836270D01*
X79678717Y-77656722D01*
X79680733Y-77636259D01*
X79692500Y-77516785D01*
X79697108Y-77470000D01*
X79692500Y-77423215D01*
X79692500Y-76765926D01*
X79817962Y-76662962D01*
X79928405Y-76528387D01*
X80010472Y-76374851D01*
X80061008Y-76208255D01*
X80078072Y-76035001D01*
X80078072Y-75384999D01*
X80061008Y-75211745D01*
X80010472Y-75045149D01*
X79928405Y-74891613D01*
X79817962Y-74757038D01*
X79730184Y-74685000D01*
X79817962Y-74612962D01*
X79928405Y-74478387D01*
X80010472Y-74324851D01*
X80061008Y-74158255D01*
X80078072Y-73985001D01*
X80078072Y-73334999D01*
X80061008Y-73161745D01*
X80012500Y-73001834D01*
X80012500Y-71352759D01*
X80029463Y-71384494D01*
X80108815Y-71481185D01*
X80205506Y-71560537D01*
X80315820Y-71619502D01*
X80435518Y-71655812D01*
X80560000Y-71668072D01*
X80674250Y-71665000D01*
X80833000Y-71506250D01*
X80833000Y-70207000D01*
X81087000Y-70207000D01*
X81087000Y-71506250D01*
X81245750Y-71665000D01*
X81360000Y-71668072D01*
X81484482Y-71655812D01*
X81604180Y-71619502D01*
X81714494Y-71560537D01*
X81811185Y-71481185D01*
X81890537Y-71384494D01*
X81949502Y-71274180D01*
X81985812Y-71154482D01*
X81998072Y-71030000D01*
X81995000Y-70365750D01*
X81836250Y-70207000D01*
X81087000Y-70207000D01*
X80833000Y-70207000D01*
X80813000Y-70207000D01*
X80813000Y-69953000D01*
X80833000Y-69953000D01*
X80833000Y-68653750D01*
X81087000Y-68653750D01*
X81087000Y-69953000D01*
X81836250Y-69953000D01*
X81995000Y-69794250D01*
X81998072Y-69130000D01*
X81985812Y-69005518D01*
X81949502Y-68885820D01*
X81890537Y-68775506D01*
X81811185Y-68678815D01*
X81714494Y-68599463D01*
X81604180Y-68540498D01*
X81484482Y-68504188D01*
X81360000Y-68491928D01*
X81245750Y-68495000D01*
X81087000Y-68653750D01*
X80833000Y-68653750D01*
X80748393Y-68569143D01*
X80764494Y-68560537D01*
X80861185Y-68481185D01*
X80940537Y-68384494D01*
X80999502Y-68274180D01*
X81035812Y-68154482D01*
X81048072Y-68030000D01*
X81048072Y-66130000D01*
X81035812Y-66005518D01*
X80999502Y-65885820D01*
X80962500Y-65816595D01*
X80962500Y-64065926D01*
X81087962Y-63962962D01*
X81198405Y-63828387D01*
X81280472Y-63674851D01*
X81331008Y-63508255D01*
X81348072Y-63335001D01*
X81348072Y-62684999D01*
X81331008Y-62511745D01*
X81280472Y-62345149D01*
X81198405Y-62191613D01*
X81087962Y-62057038D01*
X81000184Y-61985000D01*
X81087962Y-61912962D01*
X81198405Y-61778387D01*
X81280472Y-61624851D01*
X81331008Y-61458255D01*
X81348072Y-61285001D01*
X81348072Y-60900000D01*
X93276928Y-60900000D01*
X93289188Y-61024482D01*
X93325498Y-61144180D01*
X93384463Y-61254494D01*
X93463815Y-61351185D01*
X93560506Y-61430537D01*
X93670820Y-61489502D01*
X93790518Y-61525812D01*
X93915000Y-61538072D01*
X94329250Y-61535000D01*
X94488000Y-61376250D01*
X94488000Y-60452000D01*
X94742000Y-60452000D01*
X94742000Y-61376250D01*
X94900750Y-61535000D01*
X95315000Y-61538072D01*
X95439482Y-61525812D01*
X95559180Y-61489502D01*
X95669494Y-61430537D01*
X95766185Y-61351185D01*
X95845537Y-61254494D01*
X95904502Y-61144180D01*
X95940812Y-61024482D01*
X95953072Y-60900000D01*
X101531928Y-60900000D01*
X101544188Y-61024482D01*
X101580498Y-61144180D01*
X101639463Y-61254494D01*
X101718815Y-61351185D01*
X101815506Y-61430537D01*
X101925820Y-61489502D01*
X102045518Y-61525812D01*
X102170000Y-61538072D01*
X102584250Y-61535000D01*
X102743000Y-61376250D01*
X102743000Y-60452000D01*
X102997000Y-60452000D01*
X102997000Y-61376250D01*
X103155750Y-61535000D01*
X103570000Y-61538072D01*
X103694482Y-61525812D01*
X103814180Y-61489502D01*
X103924494Y-61430537D01*
X104021185Y-61351185D01*
X104100537Y-61254494D01*
X104159502Y-61144180D01*
X104195812Y-61024482D01*
X104208072Y-60900000D01*
X104205000Y-60610750D01*
X104046250Y-60452000D01*
X102997000Y-60452000D01*
X102743000Y-60452000D01*
X101693750Y-60452000D01*
X101535000Y-60610750D01*
X101531928Y-60900000D01*
X95953072Y-60900000D01*
X95950000Y-60610750D01*
X95791250Y-60452000D01*
X94742000Y-60452000D01*
X94488000Y-60452000D01*
X93438750Y-60452000D01*
X93280000Y-60610750D01*
X93276928Y-60900000D01*
X81348072Y-60900000D01*
X81348072Y-60634999D01*
X81331008Y-60461745D01*
X81280472Y-60295149D01*
X81198405Y-60141613D01*
X81087962Y-60007038D01*
X80953387Y-59896595D01*
X80799851Y-59814528D01*
X80633255Y-59763992D01*
X80460001Y-59746928D01*
X79559999Y-59746928D01*
X79386745Y-59763992D01*
X79220149Y-59814528D01*
X79066613Y-59896595D01*
X78932038Y-60007038D01*
X78931659Y-60007500D01*
X70928341Y-60007500D01*
X70927962Y-60007038D01*
X70793387Y-59896595D01*
X70639851Y-59814528D01*
X70473255Y-59763992D01*
X70300001Y-59746928D01*
X69399999Y-59746928D01*
X69226745Y-59763992D01*
X69060149Y-59814528D01*
X68906613Y-59896595D01*
X68772038Y-60007038D01*
X68771659Y-60007500D01*
X66672500Y-60007500D01*
X66672500Y-57516785D01*
X66677108Y-57470000D01*
X66672500Y-57423215D01*
X66672500Y-56103405D01*
X66709502Y-56034180D01*
X66745812Y-55914482D01*
X66758072Y-55790000D01*
X66758072Y-53890000D01*
X66745812Y-53765518D01*
X66709502Y-53645820D01*
X66650537Y-53535506D01*
X66571185Y-53438815D01*
X66474494Y-53359463D01*
X66364180Y-53300498D01*
X66244482Y-53264188D01*
X66120000Y-53251928D01*
X65608095Y-53251928D01*
X65621185Y-53241185D01*
X65700537Y-53144494D01*
X65721647Y-53105000D01*
X83271928Y-53105000D01*
X83284188Y-53229482D01*
X83320498Y-53349180D01*
X83379463Y-53459494D01*
X83458815Y-53556185D01*
X83555506Y-53635537D01*
X83665820Y-53694502D01*
X83785518Y-53730812D01*
X83910000Y-53743072D01*
X84574250Y-53740000D01*
X84733000Y-53581250D01*
X84733000Y-52832000D01*
X83433750Y-52832000D01*
X83275000Y-52990750D01*
X83271928Y-53105000D01*
X65721647Y-53105000D01*
X65759502Y-53034180D01*
X65795812Y-52914482D01*
X65808072Y-52790000D01*
X65808072Y-52305000D01*
X83271928Y-52305000D01*
X83275000Y-52419250D01*
X83433750Y-52578000D01*
X84733000Y-52578000D01*
X84733000Y-51828750D01*
X84574250Y-51670000D01*
X83910000Y-51666928D01*
X83785518Y-51679188D01*
X83665820Y-51715498D01*
X83555506Y-51774463D01*
X83458815Y-51853815D01*
X83379463Y-51950506D01*
X83320498Y-52060820D01*
X83284188Y-52180518D01*
X83271928Y-52305000D01*
X65808072Y-52305000D01*
X65808072Y-50890000D01*
X65795812Y-50765518D01*
X65759502Y-50645820D01*
X65722500Y-50576595D01*
X65722500Y-48444999D01*
X84366928Y-48444999D01*
X84366928Y-49345001D01*
X84383992Y-49518255D01*
X84434528Y-49684851D01*
X84516595Y-49838387D01*
X84627038Y-49972962D01*
X84761613Y-50083405D01*
X84915149Y-50165472D01*
X85081745Y-50216008D01*
X85254999Y-50233072D01*
X85905001Y-50233072D01*
X86078255Y-50216008D01*
X86244851Y-50165472D01*
X86398387Y-50083405D01*
X86532962Y-49972962D01*
X86605000Y-49885184D01*
X86677038Y-49972962D01*
X86677500Y-49973341D01*
X86677501Y-50761955D01*
X86665820Y-50765498D01*
X86555506Y-50824463D01*
X86458815Y-50903815D01*
X86379463Y-51000506D01*
X86320498Y-51110820D01*
X86284188Y-51230518D01*
X86271928Y-51355000D01*
X86271928Y-51866905D01*
X86261185Y-51853815D01*
X86164494Y-51774463D01*
X86054180Y-51715498D01*
X85934482Y-51679188D01*
X85810000Y-51666928D01*
X85145750Y-51670000D01*
X84987000Y-51828750D01*
X84987000Y-52578000D01*
X86286250Y-52578000D01*
X86370857Y-52493393D01*
X86379463Y-52509494D01*
X86458815Y-52606185D01*
X86555506Y-52685537D01*
X86591918Y-52705000D01*
X86555506Y-52724463D01*
X86458815Y-52803815D01*
X86379463Y-52900506D01*
X86370857Y-52916607D01*
X86286250Y-52832000D01*
X84987000Y-52832000D01*
X84987000Y-53581250D01*
X85145750Y-53740000D01*
X85810000Y-53743072D01*
X85934482Y-53730812D01*
X86054180Y-53694502D01*
X86164494Y-53635537D01*
X86261185Y-53556185D01*
X86271928Y-53543095D01*
X86271928Y-54055000D01*
X86284188Y-54179482D01*
X86320498Y-54299180D01*
X86379463Y-54409494D01*
X86458815Y-54506185D01*
X86555506Y-54585537D01*
X86665820Y-54644502D01*
X86785518Y-54680812D01*
X86910000Y-54693072D01*
X88810000Y-54693072D01*
X88934482Y-54680812D01*
X89054180Y-54644502D01*
X89123405Y-54607500D01*
X90090462Y-54607500D01*
X90487500Y-55004539D01*
X90487501Y-55484708D01*
X90482892Y-55531502D01*
X90501283Y-55718224D01*
X90555749Y-55897771D01*
X90628661Y-56034180D01*
X90644195Y-56063243D01*
X90763223Y-56208280D01*
X90799565Y-56238105D01*
X92031891Y-57470431D01*
X92061720Y-57506778D01*
X92206757Y-57625806D01*
X92372229Y-57714252D01*
X92551775Y-57768717D01*
X92738497Y-57787108D01*
X92785282Y-57782500D01*
X93293425Y-57782500D01*
X93276928Y-57949999D01*
X93276928Y-58600001D01*
X93293992Y-58773255D01*
X93344528Y-58939851D01*
X93426595Y-59093387D01*
X93537038Y-59227962D01*
X93543594Y-59233342D01*
X93463815Y-59298815D01*
X93384463Y-59395506D01*
X93325498Y-59505820D01*
X93289188Y-59625518D01*
X93276928Y-59750000D01*
X93280000Y-60039250D01*
X93438750Y-60198000D01*
X94488000Y-60198000D01*
X94488000Y-60178000D01*
X94742000Y-60178000D01*
X94742000Y-60198000D01*
X95791250Y-60198000D01*
X95950000Y-60039250D01*
X95953072Y-59750000D01*
X95940812Y-59625518D01*
X95904502Y-59505820D01*
X95845537Y-59395506D01*
X95766185Y-59298815D01*
X95686406Y-59233342D01*
X95692962Y-59227962D01*
X95803405Y-59093387D01*
X95885472Y-58939851D01*
X95936008Y-58773255D01*
X95953072Y-58600001D01*
X95953072Y-57949999D01*
X95936008Y-57776745D01*
X95885472Y-57610149D01*
X95882500Y-57604589D01*
X95882500Y-56876785D01*
X95887108Y-56830000D01*
X95882500Y-56783215D01*
X95882500Y-56103405D01*
X95919502Y-56034180D01*
X95955812Y-55914482D01*
X95968072Y-55790000D01*
X95968072Y-53890000D01*
X95955812Y-53765518D01*
X95919502Y-53645820D01*
X95860537Y-53535506D01*
X95781185Y-53438815D01*
X95684494Y-53359463D01*
X95574180Y-53300498D01*
X95454482Y-53264188D01*
X95330000Y-53251928D01*
X94818095Y-53251928D01*
X94831185Y-53241185D01*
X94910537Y-53144494D01*
X94969502Y-53034180D01*
X95005812Y-52914482D01*
X95018072Y-52790000D01*
X95018072Y-50890000D01*
X95005812Y-50765518D01*
X94969502Y-50645820D01*
X94932500Y-50576595D01*
X94932500Y-50570047D01*
X94975226Y-50466898D01*
X95015000Y-50266939D01*
X95015000Y-50063061D01*
X94975226Y-49863102D01*
X94968763Y-49847500D01*
X97224074Y-49847500D01*
X97327038Y-49972962D01*
X97461613Y-50083405D01*
X97615149Y-50165472D01*
X97781745Y-50216008D01*
X97954999Y-50233072D01*
X98605001Y-50233072D01*
X98778255Y-50216008D01*
X98944851Y-50165472D01*
X99098387Y-50083405D01*
X99232962Y-49972962D01*
X99305000Y-49885184D01*
X99377038Y-49972962D01*
X99377500Y-49973341D01*
X99377501Y-54219707D01*
X99372892Y-54266502D01*
X99391283Y-54453224D01*
X99445749Y-54632771D01*
X99534194Y-54798242D01*
X99568464Y-54840000D01*
X99653223Y-54943280D01*
X99689565Y-54973105D01*
X100196887Y-55480426D01*
X100226720Y-55516778D01*
X100246928Y-55533362D01*
X100246928Y-55790000D01*
X100259188Y-55914482D01*
X100295498Y-56034180D01*
X100354463Y-56144494D01*
X100433815Y-56241185D01*
X100530506Y-56320537D01*
X100640820Y-56379502D01*
X100760518Y-56415812D01*
X100885000Y-56428072D01*
X101685000Y-56428072D01*
X101809482Y-56415812D01*
X101929180Y-56379502D01*
X102039494Y-56320537D01*
X102136185Y-56241185D01*
X102215537Y-56144494D01*
X102232500Y-56112758D01*
X102232501Y-57083313D01*
X102080149Y-57129528D01*
X101926613Y-57211595D01*
X101792038Y-57322038D01*
X101681595Y-57456613D01*
X101599528Y-57610149D01*
X101548992Y-57776745D01*
X101531928Y-57949999D01*
X101531928Y-58600001D01*
X101548992Y-58773255D01*
X101599528Y-58939851D01*
X101681595Y-59093387D01*
X101792038Y-59227962D01*
X101798594Y-59233342D01*
X101718815Y-59298815D01*
X101639463Y-59395506D01*
X101580498Y-59505820D01*
X101544188Y-59625518D01*
X101531928Y-59750000D01*
X101535000Y-60039250D01*
X101693750Y-60198000D01*
X102743000Y-60198000D01*
X102743000Y-60178000D01*
X102997000Y-60178000D01*
X102997000Y-60198000D01*
X104046250Y-60198000D01*
X104205000Y-60039250D01*
X104208072Y-59750000D01*
X104195812Y-59625518D01*
X104159502Y-59505820D01*
X104100537Y-59395506D01*
X104021185Y-59298815D01*
X103941406Y-59233342D01*
X103947962Y-59227962D01*
X104058405Y-59093387D01*
X104140472Y-58939851D01*
X104191008Y-58773255D01*
X104208072Y-58600001D01*
X104208072Y-57949999D01*
X104191008Y-57776745D01*
X104140472Y-57610149D01*
X104137500Y-57604589D01*
X104137500Y-56103405D01*
X104174502Y-56034180D01*
X104210812Y-55914482D01*
X104223072Y-55790000D01*
X104223072Y-53890000D01*
X104210812Y-53765518D01*
X104174502Y-53645820D01*
X104115537Y-53535506D01*
X104036185Y-53438815D01*
X103939494Y-53359463D01*
X103829180Y-53300498D01*
X103709482Y-53264188D01*
X103585000Y-53251928D01*
X103073095Y-53251928D01*
X103086185Y-53241185D01*
X103165537Y-53144494D01*
X103224502Y-53034180D01*
X103260812Y-52914482D01*
X103273072Y-52790000D01*
X103273072Y-50890000D01*
X103260812Y-50765518D01*
X103224502Y-50645820D01*
X103187500Y-50576595D01*
X103187500Y-45927977D01*
X103209482Y-45925812D01*
X103329180Y-45889502D01*
X103439494Y-45830537D01*
X103536185Y-45751185D01*
X103615537Y-45654494D01*
X103674502Y-45544180D01*
X103710812Y-45424482D01*
X103723072Y-45300000D01*
X103723072Y-43600000D01*
X103710812Y-43475518D01*
X103674502Y-43355820D01*
X103615537Y-43245506D01*
X103536185Y-43148815D01*
X103439494Y-43069463D01*
X103329180Y-43010498D01*
X103256620Y-42988487D01*
X103388475Y-42856632D01*
X103550990Y-42613411D01*
X103662932Y-42343158D01*
X103720000Y-42056260D01*
X103720000Y-41763740D01*
X103662932Y-41476842D01*
X103550990Y-41206589D01*
X103388475Y-40963368D01*
X103181632Y-40756525D01*
X102938411Y-40594010D01*
X102668158Y-40482068D01*
X102381260Y-40425000D01*
X102088740Y-40425000D01*
X101801842Y-40482068D01*
X101531589Y-40594010D01*
X101288368Y-40756525D01*
X101081525Y-40963368D01*
X100919010Y-41206589D01*
X100807068Y-41476842D01*
X100750000Y-41763740D01*
X100750000Y-42056260D01*
X100807068Y-42343158D01*
X100919010Y-42613411D01*
X101081525Y-42856632D01*
X101213380Y-42988487D01*
X101140820Y-43010498D01*
X101030506Y-43069463D01*
X100933815Y-43148815D01*
X100854463Y-43245506D01*
X100795498Y-43355820D01*
X100759188Y-43475518D01*
X100746928Y-43600000D01*
X100746928Y-45300000D01*
X100759188Y-45424482D01*
X100795498Y-45544180D01*
X100854463Y-45654494D01*
X100933815Y-45751185D01*
X101030506Y-45830537D01*
X101140820Y-45889502D01*
X101260518Y-45925812D01*
X101282501Y-45927977D01*
X101282501Y-47816659D01*
X101148387Y-47706595D01*
X100994851Y-47624528D01*
X100828255Y-47573992D01*
X100655001Y-47556928D01*
X100004999Y-47556928D01*
X99831745Y-47573992D01*
X99665149Y-47624528D01*
X99511613Y-47706595D01*
X99377038Y-47817038D01*
X99305000Y-47904816D01*
X99232962Y-47817038D01*
X99098387Y-47706595D01*
X98944851Y-47624528D01*
X98778255Y-47573992D01*
X98605001Y-47556928D01*
X97954999Y-47556928D01*
X97781745Y-47573992D01*
X97615149Y-47624528D01*
X97461613Y-47706595D01*
X97327038Y-47817038D01*
X97224074Y-47942500D01*
X91199539Y-47942500D01*
X90241607Y-46984569D01*
X90211778Y-46948222D01*
X90066741Y-46829194D01*
X89901269Y-46740748D01*
X89721723Y-46686283D01*
X89581785Y-46672500D01*
X89535000Y-46667892D01*
X89488215Y-46672500D01*
X86896784Y-46672500D01*
X86849999Y-46667892D01*
X86663277Y-46686283D01*
X86483731Y-46740748D01*
X86318259Y-46829194D01*
X86173222Y-46948222D01*
X86143398Y-46984563D01*
X85571033Y-47556928D01*
X85254999Y-47556928D01*
X85081745Y-47573992D01*
X84915149Y-47624528D01*
X84761613Y-47706595D01*
X84627038Y-47817038D01*
X84516595Y-47951613D01*
X84434528Y-48105149D01*
X84383992Y-48271745D01*
X84366928Y-48444999D01*
X65722500Y-48444999D01*
X65722500Y-45402500D01*
X68372023Y-45402500D01*
X68374188Y-45424482D01*
X68410498Y-45544180D01*
X68469463Y-45654494D01*
X68548815Y-45751185D01*
X68645506Y-45830537D01*
X68755820Y-45889502D01*
X68875518Y-45925812D01*
X69000000Y-45938072D01*
X70700000Y-45938072D01*
X70824482Y-45925812D01*
X70944180Y-45889502D01*
X71054494Y-45830537D01*
X71151185Y-45751185D01*
X71230537Y-45654494D01*
X71289502Y-45544180D01*
X71325812Y-45424482D01*
X71327977Y-45402500D01*
X78532023Y-45402500D01*
X78534188Y-45424482D01*
X78570498Y-45544180D01*
X78629463Y-45654494D01*
X78708815Y-45751185D01*
X78805506Y-45830537D01*
X78915820Y-45889502D01*
X79035518Y-45925812D01*
X79160000Y-45938072D01*
X80860000Y-45938072D01*
X80984482Y-45925812D01*
X81104180Y-45889502D01*
X81214494Y-45830537D01*
X81311185Y-45751185D01*
X81390537Y-45654494D01*
X81449502Y-45544180D01*
X81485812Y-45424482D01*
X81498072Y-45300000D01*
X81498072Y-43600000D01*
X89316928Y-43600000D01*
X89316928Y-45300000D01*
X89329188Y-45424482D01*
X89365498Y-45544180D01*
X89424463Y-45654494D01*
X89503815Y-45751185D01*
X89600506Y-45830537D01*
X89710820Y-45889502D01*
X89830518Y-45925812D01*
X89955000Y-45938072D01*
X91655000Y-45938072D01*
X91779482Y-45925812D01*
X91899180Y-45889502D01*
X92009494Y-45830537D01*
X92106185Y-45751185D01*
X92185537Y-45654494D01*
X92244502Y-45544180D01*
X92280812Y-45424482D01*
X92293072Y-45300000D01*
X92293072Y-43600000D01*
X92280812Y-43475518D01*
X92244502Y-43355820D01*
X92185537Y-43245506D01*
X92106185Y-43148815D01*
X92009494Y-43069463D01*
X91899180Y-43010498D01*
X91826620Y-42988487D01*
X91958475Y-42856632D01*
X92120990Y-42613411D01*
X92232932Y-42343158D01*
X92290000Y-42056260D01*
X92290000Y-41763740D01*
X92232932Y-41476842D01*
X92120990Y-41206589D01*
X91958475Y-40963368D01*
X91751632Y-40756525D01*
X91508411Y-40594010D01*
X91238158Y-40482068D01*
X90951260Y-40425000D01*
X90658740Y-40425000D01*
X90371842Y-40482068D01*
X90101589Y-40594010D01*
X89858368Y-40756525D01*
X89651525Y-40963368D01*
X89489010Y-41206589D01*
X89377068Y-41476842D01*
X89320000Y-41763740D01*
X89320000Y-42056260D01*
X89377068Y-42343158D01*
X89489010Y-42613411D01*
X89651525Y-42856632D01*
X89783380Y-42988487D01*
X89710820Y-43010498D01*
X89600506Y-43069463D01*
X89503815Y-43148815D01*
X89424463Y-43245506D01*
X89365498Y-43355820D01*
X89329188Y-43475518D01*
X89316928Y-43600000D01*
X81498072Y-43600000D01*
X81485812Y-43475518D01*
X81449502Y-43355820D01*
X81390537Y-43245506D01*
X81311185Y-43148815D01*
X81214494Y-43069463D01*
X81104180Y-43010498D01*
X81031620Y-42988487D01*
X81163475Y-42856632D01*
X81325990Y-42613411D01*
X81437932Y-42343158D01*
X81495000Y-42056260D01*
X81495000Y-41763740D01*
X81437932Y-41476842D01*
X81325990Y-41206589D01*
X81163475Y-40963368D01*
X80962500Y-40762393D01*
X80962500Y-36823405D01*
X80999502Y-36754180D01*
X81035812Y-36634482D01*
X81048072Y-36510000D01*
X81048072Y-34610000D01*
X81035812Y-34485518D01*
X80999502Y-34365820D01*
X80940537Y-34255506D01*
X80861185Y-34158815D01*
X80848095Y-34148072D01*
X81360000Y-34148072D01*
X81484482Y-34135812D01*
X81604180Y-34099502D01*
X81714494Y-34040537D01*
X81811185Y-33961185D01*
X81890537Y-33864494D01*
X81949502Y-33754180D01*
X81985812Y-33634482D01*
X81998072Y-33510000D01*
X81998072Y-31610000D01*
X81985812Y-31485518D01*
X81949502Y-31365820D01*
X81912500Y-31296595D01*
X81912500Y-30403204D01*
X82069851Y-30355472D01*
X82223387Y-30273405D01*
X82357962Y-30162962D01*
X82468405Y-30028387D01*
X82550472Y-29874851D01*
X82601008Y-29708255D01*
X82618072Y-29535001D01*
X82618072Y-28884999D01*
X82601008Y-28711745D01*
X82550472Y-28545149D01*
X82468405Y-28391613D01*
X82357962Y-28257038D01*
X82270184Y-28185000D01*
X82357962Y-28112962D01*
X82468405Y-27978387D01*
X82550472Y-27824851D01*
X82601008Y-27658255D01*
X82618072Y-27485001D01*
X82618072Y-26834999D01*
X82601008Y-26661745D01*
X82550472Y-26495149D01*
X82468405Y-26341613D01*
X82357962Y-26207038D01*
X82232500Y-26104074D01*
X82232500Y-24811784D01*
X82237108Y-24764999D01*
X82218717Y-24578277D01*
X82217709Y-24574954D01*
X82164252Y-24398731D01*
X82075806Y-24233259D01*
X81956778Y-24088222D01*
X81920431Y-24058393D01*
X81382038Y-23520000D01*
X102837721Y-23520000D01*
X103234545Y-23558909D01*
G37*
X103234545Y-23558909D02*
X103585208Y-23664780D01*
X103908625Y-23836744D01*
X104192484Y-24068254D01*
X104425965Y-24350486D01*
X104600183Y-24672695D01*
X104708502Y-25022614D01*
X104750000Y-25417443D01*
X104750001Y-78707711D01*
X104711091Y-79104545D01*
X104605220Y-79455206D01*
X104433257Y-79778623D01*
X104201748Y-80062482D01*
X103919514Y-80295965D01*
X103597304Y-80470184D01*
X103247385Y-80578502D01*
X102852557Y-80620000D01*
X58916482Y-80620000D01*
X59008483Y-80570825D01*
X59153520Y-80451797D01*
X59183348Y-80415452D01*
X59706292Y-79892510D01*
X68333205Y-79892510D01*
X68379990Y-79897118D01*
X68426775Y-79892510D01*
X68566713Y-79878727D01*
X68746259Y-79824262D01*
X68911731Y-79735816D01*
X69056768Y-79616788D01*
X69086597Y-79580441D01*
X69609538Y-79057500D01*
X78058215Y-79057500D01*
X78105000Y-79062108D01*
X78151785Y-79057500D01*
X78291723Y-79043717D01*
X78471269Y-78989252D01*
X78636741Y-78900806D01*
X78781778Y-78781778D01*
X78811608Y-78745430D01*
X79380426Y-78176611D01*
X79416778Y-78146778D01*
X79535806Y-78001741D01*
X79580418Y-77918277D01*
X79624252Y-77836270D01*
X79678717Y-77656722D01*
X79680733Y-77636259D01*
X79692500Y-77516785D01*
X79697108Y-77470000D01*
X79692500Y-77423215D01*
X79692500Y-76765926D01*
X79817962Y-76662962D01*
X79928405Y-76528387D01*
X80010472Y-76374851D01*
X80061008Y-76208255D01*
X80078072Y-76035001D01*
X80078072Y-75384999D01*
X80061008Y-75211745D01*
X80010472Y-75045149D01*
X79928405Y-74891613D01*
X79817962Y-74757038D01*
X79730184Y-74685000D01*
X79817962Y-74612962D01*
X79928405Y-74478387D01*
X80010472Y-74324851D01*
X80061008Y-74158255D01*
X80078072Y-73985001D01*
X80078072Y-73334999D01*
X80061008Y-73161745D01*
X80012500Y-73001834D01*
X80012500Y-71352759D01*
X80029463Y-71384494D01*
X80108815Y-71481185D01*
X80205506Y-71560537D01*
X80315820Y-71619502D01*
X80435518Y-71655812D01*
X80560000Y-71668072D01*
X80674250Y-71665000D01*
X80833000Y-71506250D01*
X80833000Y-70207000D01*
X81087000Y-70207000D01*
X81087000Y-71506250D01*
X81245750Y-71665000D01*
X81360000Y-71668072D01*
X81484482Y-71655812D01*
X81604180Y-71619502D01*
X81714494Y-71560537D01*
X81811185Y-71481185D01*
X81890537Y-71384494D01*
X81949502Y-71274180D01*
X81985812Y-71154482D01*
X81998072Y-71030000D01*
X81995000Y-70365750D01*
X81836250Y-70207000D01*
X81087000Y-70207000D01*
X80833000Y-70207000D01*
X80813000Y-70207000D01*
X80813000Y-69953000D01*
X80833000Y-69953000D01*
X80833000Y-68653750D01*
X81087000Y-68653750D01*
X81087000Y-69953000D01*
X81836250Y-69953000D01*
X81995000Y-69794250D01*
X81998072Y-69130000D01*
X81985812Y-69005518D01*
X81949502Y-68885820D01*
X81890537Y-68775506D01*
X81811185Y-68678815D01*
X81714494Y-68599463D01*
X81604180Y-68540498D01*
X81484482Y-68504188D01*
X81360000Y-68491928D01*
X81245750Y-68495000D01*
X81087000Y-68653750D01*
X80833000Y-68653750D01*
X80748393Y-68569143D01*
X80764494Y-68560537D01*
X80861185Y-68481185D01*
X80940537Y-68384494D01*
X80999502Y-68274180D01*
X81035812Y-68154482D01*
X81048072Y-68030000D01*
X81048072Y-66130000D01*
X81035812Y-66005518D01*
X80999502Y-65885820D01*
X80962500Y-65816595D01*
X80962500Y-64065926D01*
X81087962Y-63962962D01*
X81198405Y-63828387D01*
X81280472Y-63674851D01*
X81331008Y-63508255D01*
X81348072Y-63335001D01*
X81348072Y-62684999D01*
X81331008Y-62511745D01*
X81280472Y-62345149D01*
X81198405Y-62191613D01*
X81087962Y-62057038D01*
X81000184Y-61985000D01*
X81087962Y-61912962D01*
X81198405Y-61778387D01*
X81280472Y-61624851D01*
X81331008Y-61458255D01*
X81348072Y-61285001D01*
X81348072Y-60900000D01*
X93276928Y-60900000D01*
X93289188Y-61024482D01*
X93325498Y-61144180D01*
X93384463Y-61254494D01*
X93463815Y-61351185D01*
X93560506Y-61430537D01*
X93670820Y-61489502D01*
X93790518Y-61525812D01*
X93915000Y-61538072D01*
X94329250Y-61535000D01*
X94488000Y-61376250D01*
X94488000Y-60452000D01*
X94742000Y-60452000D01*
X94742000Y-61376250D01*
X94900750Y-61535000D01*
X95315000Y-61538072D01*
X95439482Y-61525812D01*
X95559180Y-61489502D01*
X95669494Y-61430537D01*
X95766185Y-61351185D01*
X95845537Y-61254494D01*
X95904502Y-61144180D01*
X95940812Y-61024482D01*
X95953072Y-60900000D01*
X101531928Y-60900000D01*
X101544188Y-61024482D01*
X101580498Y-61144180D01*
X101639463Y-61254494D01*
X101718815Y-61351185D01*
X101815506Y-61430537D01*
X101925820Y-61489502D01*
X102045518Y-61525812D01*
X102170000Y-61538072D01*
X102584250Y-61535000D01*
X102743000Y-61376250D01*
X102743000Y-60452000D01*
X102997000Y-60452000D01*
X102997000Y-61376250D01*
X103155750Y-61535000D01*
X103570000Y-61538072D01*
X103694482Y-61525812D01*
X103814180Y-61489502D01*
X103924494Y-61430537D01*
X104021185Y-61351185D01*
X104100537Y-61254494D01*
X104159502Y-61144180D01*
X104195812Y-61024482D01*
X104208072Y-60900000D01*
X104205000Y-60610750D01*
X104046250Y-60452000D01*
X102997000Y-60452000D01*
X102743000Y-60452000D01*
X101693750Y-60452000D01*
X101535000Y-60610750D01*
X101531928Y-60900000D01*
X95953072Y-60900000D01*
X95950000Y-60610750D01*
X95791250Y-60452000D01*
X94742000Y-60452000D01*
X94488000Y-60452000D01*
X93438750Y-60452000D01*
X93280000Y-60610750D01*
X93276928Y-60900000D01*
X81348072Y-60900000D01*
X81348072Y-60634999D01*
X81331008Y-60461745D01*
X81280472Y-60295149D01*
X81198405Y-60141613D01*
X81087962Y-60007038D01*
X80953387Y-59896595D01*
X80799851Y-59814528D01*
X80633255Y-59763992D01*
X80460001Y-59746928D01*
X79559999Y-59746928D01*
X79386745Y-59763992D01*
X79220149Y-59814528D01*
X79066613Y-59896595D01*
X78932038Y-60007038D01*
X78931659Y-60007500D01*
X70928341Y-60007500D01*
X70927962Y-60007038D01*
X70793387Y-59896595D01*
X70639851Y-59814528D01*
X70473255Y-59763992D01*
X70300001Y-59746928D01*
X69399999Y-59746928D01*
X69226745Y-59763992D01*
X69060149Y-59814528D01*
X68906613Y-59896595D01*
X68772038Y-60007038D01*
X68771659Y-60007500D01*
X66672500Y-60007500D01*
X66672500Y-57516785D01*
X66677108Y-57470000D01*
X66672500Y-57423215D01*
X66672500Y-56103405D01*
X66709502Y-56034180D01*
X66745812Y-55914482D01*
X66758072Y-55790000D01*
X66758072Y-53890000D01*
X66745812Y-53765518D01*
X66709502Y-53645820D01*
X66650537Y-53535506D01*
X66571185Y-53438815D01*
X66474494Y-53359463D01*
X66364180Y-53300498D01*
X66244482Y-53264188D01*
X66120000Y-53251928D01*
X65608095Y-53251928D01*
X65621185Y-53241185D01*
X65700537Y-53144494D01*
X65721647Y-53105000D01*
X83271928Y-53105000D01*
X83284188Y-53229482D01*
X83320498Y-53349180D01*
X83379463Y-53459494D01*
X83458815Y-53556185D01*
X83555506Y-53635537D01*
X83665820Y-53694502D01*
X83785518Y-53730812D01*
X83910000Y-53743072D01*
X84574250Y-53740000D01*
X84733000Y-53581250D01*
X84733000Y-52832000D01*
X83433750Y-52832000D01*
X83275000Y-52990750D01*
X83271928Y-53105000D01*
X65721647Y-53105000D01*
X65759502Y-53034180D01*
X65795812Y-52914482D01*
X65808072Y-52790000D01*
X65808072Y-52305000D01*
X83271928Y-52305000D01*
X83275000Y-52419250D01*
X83433750Y-52578000D01*
X84733000Y-52578000D01*
X84733000Y-51828750D01*
X84574250Y-51670000D01*
X83910000Y-51666928D01*
X83785518Y-51679188D01*
X83665820Y-51715498D01*
X83555506Y-51774463D01*
X83458815Y-51853815D01*
X83379463Y-51950506D01*
X83320498Y-52060820D01*
X83284188Y-52180518D01*
X83271928Y-52305000D01*
X65808072Y-52305000D01*
X65808072Y-50890000D01*
X65795812Y-50765518D01*
X65759502Y-50645820D01*
X65722500Y-50576595D01*
X65722500Y-48444999D01*
X84366928Y-48444999D01*
X84366928Y-49345001D01*
X84383992Y-49518255D01*
X84434528Y-49684851D01*
X84516595Y-49838387D01*
X84627038Y-49972962D01*
X84761613Y-50083405D01*
X84915149Y-50165472D01*
X85081745Y-50216008D01*
X85254999Y-50233072D01*
X85905001Y-50233072D01*
X86078255Y-50216008D01*
X86244851Y-50165472D01*
X86398387Y-50083405D01*
X86532962Y-49972962D01*
X86605000Y-49885184D01*
X86677038Y-49972962D01*
X86677500Y-49973341D01*
X86677501Y-50761955D01*
X86665820Y-50765498D01*
X86555506Y-50824463D01*
X86458815Y-50903815D01*
X86379463Y-51000506D01*
X86320498Y-51110820D01*
X86284188Y-51230518D01*
X86271928Y-51355000D01*
X86271928Y-51866905D01*
X86261185Y-51853815D01*
X86164494Y-51774463D01*
X86054180Y-51715498D01*
X85934482Y-51679188D01*
X85810000Y-51666928D01*
X85145750Y-51670000D01*
X84987000Y-51828750D01*
X84987000Y-52578000D01*
X86286250Y-52578000D01*
X86370857Y-52493393D01*
X86379463Y-52509494D01*
X86458815Y-52606185D01*
X86555506Y-52685537D01*
X86591918Y-52705000D01*
X86555506Y-52724463D01*
X86458815Y-52803815D01*
X86379463Y-52900506D01*
X86370857Y-52916607D01*
X86286250Y-52832000D01*
X84987000Y-52832000D01*
X84987000Y-53581250D01*
X85145750Y-53740000D01*
X85810000Y-53743072D01*
X85934482Y-53730812D01*
X86054180Y-53694502D01*
X86164494Y-53635537D01*
X86261185Y-53556185D01*
X86271928Y-53543095D01*
X86271928Y-54055000D01*
X86284188Y-54179482D01*
X86320498Y-54299180D01*
X86379463Y-54409494D01*
X86458815Y-54506185D01*
X86555506Y-54585537D01*
X86665820Y-54644502D01*
X86785518Y-54680812D01*
X86910000Y-54693072D01*
X88810000Y-54693072D01*
X88934482Y-54680812D01*
X89054180Y-54644502D01*
X89123405Y-54607500D01*
X90090462Y-54607500D01*
X90487500Y-55004539D01*
X90487501Y-55484708D01*
X90482892Y-55531502D01*
X90501283Y-55718224D01*
X90555749Y-55897771D01*
X90628661Y-56034180D01*
X90644195Y-56063243D01*
X90763223Y-56208280D01*
X90799565Y-56238105D01*
X92031891Y-57470431D01*
X92061720Y-57506778D01*
X92206757Y-57625806D01*
X92372229Y-57714252D01*
X92551775Y-57768717D01*
X92738497Y-57787108D01*
X92785282Y-57782500D01*
X93293425Y-57782500D01*
X93276928Y-57949999D01*
X93276928Y-58600001D01*
X93293992Y-58773255D01*
X93344528Y-58939851D01*
X93426595Y-59093387D01*
X93537038Y-59227962D01*
X93543594Y-59233342D01*
X93463815Y-59298815D01*
X93384463Y-59395506D01*
X93325498Y-59505820D01*
X93289188Y-59625518D01*
X93276928Y-59750000D01*
X93280000Y-60039250D01*
X93438750Y-60198000D01*
X94488000Y-60198000D01*
X94488000Y-60178000D01*
X94742000Y-60178000D01*
X94742000Y-60198000D01*
X95791250Y-60198000D01*
X95950000Y-60039250D01*
X95953072Y-59750000D01*
X95940812Y-59625518D01*
X95904502Y-59505820D01*
X95845537Y-59395506D01*
X95766185Y-59298815D01*
X95686406Y-59233342D01*
X95692962Y-59227962D01*
X95803405Y-59093387D01*
X95885472Y-58939851D01*
X95936008Y-58773255D01*
X95953072Y-58600001D01*
X95953072Y-57949999D01*
X95936008Y-57776745D01*
X95885472Y-57610149D01*
X95882500Y-57604589D01*
X95882500Y-56876785D01*
X95887108Y-56830000D01*
X95882500Y-56783215D01*
X95882500Y-56103405D01*
X95919502Y-56034180D01*
X95955812Y-55914482D01*
X95968072Y-55790000D01*
X95968072Y-53890000D01*
X95955812Y-53765518D01*
X95919502Y-53645820D01*
X95860537Y-53535506D01*
X95781185Y-53438815D01*
X95684494Y-53359463D01*
X95574180Y-53300498D01*
X95454482Y-53264188D01*
X95330000Y-53251928D01*
X94818095Y-53251928D01*
X94831185Y-53241185D01*
X94910537Y-53144494D01*
X94969502Y-53034180D01*
X95005812Y-52914482D01*
X95018072Y-52790000D01*
X95018072Y-50890000D01*
X95005812Y-50765518D01*
X94969502Y-50645820D01*
X94932500Y-50576595D01*
X94932500Y-50570047D01*
X94975226Y-50466898D01*
X95015000Y-50266939D01*
X95015000Y-50063061D01*
X94975226Y-49863102D01*
X94968763Y-49847500D01*
X97224074Y-49847500D01*
X97327038Y-49972962D01*
X97461613Y-50083405D01*
X97615149Y-50165472D01*
X97781745Y-50216008D01*
X97954999Y-50233072D01*
X98605001Y-50233072D01*
X98778255Y-50216008D01*
X98944851Y-50165472D01*
X99098387Y-50083405D01*
X99232962Y-49972962D01*
X99305000Y-49885184D01*
X99377038Y-49972962D01*
X99377500Y-49973341D01*
X99377501Y-54219707D01*
X99372892Y-54266502D01*
X99391283Y-54453224D01*
X99445749Y-54632771D01*
X99534194Y-54798242D01*
X99568464Y-54840000D01*
X99653223Y-54943280D01*
X99689565Y-54973105D01*
X100196887Y-55480426D01*
X100226720Y-55516778D01*
X100246928Y-55533362D01*
X100246928Y-55790000D01*
X100259188Y-55914482D01*
X100295498Y-56034180D01*
X100354463Y-56144494D01*
X100433815Y-56241185D01*
X100530506Y-56320537D01*
X100640820Y-56379502D01*
X100760518Y-56415812D01*
X100885000Y-56428072D01*
X101685000Y-56428072D01*
X101809482Y-56415812D01*
X101929180Y-56379502D01*
X102039494Y-56320537D01*
X102136185Y-56241185D01*
X102215537Y-56144494D01*
X102232500Y-56112758D01*
X102232501Y-57083313D01*
X102080149Y-57129528D01*
X101926613Y-57211595D01*
X101792038Y-57322038D01*
X101681595Y-57456613D01*
X101599528Y-57610149D01*
X101548992Y-57776745D01*
X101531928Y-57949999D01*
X101531928Y-58600001D01*
X101548992Y-58773255D01*
X101599528Y-58939851D01*
X101681595Y-59093387D01*
X101792038Y-59227962D01*
X101798594Y-59233342D01*
X101718815Y-59298815D01*
X101639463Y-59395506D01*
X101580498Y-59505820D01*
X101544188Y-59625518D01*
X101531928Y-59750000D01*
X101535000Y-60039250D01*
X101693750Y-60198000D01*
X102743000Y-60198000D01*
X102743000Y-60178000D01*
X102997000Y-60178000D01*
X102997000Y-60198000D01*
X104046250Y-60198000D01*
X104205000Y-60039250D01*
X104208072Y-59750000D01*
X104195812Y-59625518D01*
X104159502Y-59505820D01*
X104100537Y-59395506D01*
X104021185Y-59298815D01*
X103941406Y-59233342D01*
X103947962Y-59227962D01*
X104058405Y-59093387D01*
X104140472Y-58939851D01*
X104191008Y-58773255D01*
X104208072Y-58600001D01*
X104208072Y-57949999D01*
X104191008Y-57776745D01*
X104140472Y-57610149D01*
X104137500Y-57604589D01*
X104137500Y-56103405D01*
X104174502Y-56034180D01*
X104210812Y-55914482D01*
X104223072Y-55790000D01*
X104223072Y-53890000D01*
X104210812Y-53765518D01*
X104174502Y-53645820D01*
X104115537Y-53535506D01*
X104036185Y-53438815D01*
X103939494Y-53359463D01*
X103829180Y-53300498D01*
X103709482Y-53264188D01*
X103585000Y-53251928D01*
X103073095Y-53251928D01*
X103086185Y-53241185D01*
X103165537Y-53144494D01*
X103224502Y-53034180D01*
X103260812Y-52914482D01*
X103273072Y-52790000D01*
X103273072Y-50890000D01*
X103260812Y-50765518D01*
X103224502Y-50645820D01*
X103187500Y-50576595D01*
X103187500Y-45927977D01*
X103209482Y-45925812D01*
X103329180Y-45889502D01*
X103439494Y-45830537D01*
X103536185Y-45751185D01*
X103615537Y-45654494D01*
X103674502Y-45544180D01*
X103710812Y-45424482D01*
X103723072Y-45300000D01*
X103723072Y-43600000D01*
X103710812Y-43475518D01*
X103674502Y-43355820D01*
X103615537Y-43245506D01*
X103536185Y-43148815D01*
X103439494Y-43069463D01*
X103329180Y-43010498D01*
X103256620Y-42988487D01*
X103388475Y-42856632D01*
X103550990Y-42613411D01*
X103662932Y-42343158D01*
X103720000Y-42056260D01*
X103720000Y-41763740D01*
X103662932Y-41476842D01*
X103550990Y-41206589D01*
X103388475Y-40963368D01*
X103181632Y-40756525D01*
X102938411Y-40594010D01*
X102668158Y-40482068D01*
X102381260Y-40425000D01*
X102088740Y-40425000D01*
X101801842Y-40482068D01*
X101531589Y-40594010D01*
X101288368Y-40756525D01*
X101081525Y-40963368D01*
X100919010Y-41206589D01*
X100807068Y-41476842D01*
X100750000Y-41763740D01*
X100750000Y-42056260D01*
X100807068Y-42343158D01*
X100919010Y-42613411D01*
X101081525Y-42856632D01*
X101213380Y-42988487D01*
X101140820Y-43010498D01*
X101030506Y-43069463D01*
X100933815Y-43148815D01*
X100854463Y-43245506D01*
X100795498Y-43355820D01*
X100759188Y-43475518D01*
X100746928Y-43600000D01*
X100746928Y-45300000D01*
X100759188Y-45424482D01*
X100795498Y-45544180D01*
X100854463Y-45654494D01*
X100933815Y-45751185D01*
X101030506Y-45830537D01*
X101140820Y-45889502D01*
X101260518Y-45925812D01*
X101282501Y-45927977D01*
X101282501Y-47816659D01*
X101148387Y-47706595D01*
X100994851Y-47624528D01*
X100828255Y-47573992D01*
X100655001Y-47556928D01*
X100004999Y-47556928D01*
X99831745Y-47573992D01*
X99665149Y-47624528D01*
X99511613Y-47706595D01*
X99377038Y-47817038D01*
X99305000Y-47904816D01*
X99232962Y-47817038D01*
X99098387Y-47706595D01*
X98944851Y-47624528D01*
X98778255Y-47573992D01*
X98605001Y-47556928D01*
X97954999Y-47556928D01*
X97781745Y-47573992D01*
X97615149Y-47624528D01*
X97461613Y-47706595D01*
X97327038Y-47817038D01*
X97224074Y-47942500D01*
X91199539Y-47942500D01*
X90241607Y-46984569D01*
X90211778Y-46948222D01*
X90066741Y-46829194D01*
X89901269Y-46740748D01*
X89721723Y-46686283D01*
X89581785Y-46672500D01*
X89535000Y-46667892D01*
X89488215Y-46672500D01*
X86896784Y-46672500D01*
X86849999Y-46667892D01*
X86663277Y-46686283D01*
X86483731Y-46740748D01*
X86318259Y-46829194D01*
X86173222Y-46948222D01*
X86143398Y-46984563D01*
X85571033Y-47556928D01*
X85254999Y-47556928D01*
X85081745Y-47573992D01*
X84915149Y-47624528D01*
X84761613Y-47706595D01*
X84627038Y-47817038D01*
X84516595Y-47951613D01*
X84434528Y-48105149D01*
X84383992Y-48271745D01*
X84366928Y-48444999D01*
X65722500Y-48444999D01*
X65722500Y-45402500D01*
X68372023Y-45402500D01*
X68374188Y-45424482D01*
X68410498Y-45544180D01*
X68469463Y-45654494D01*
X68548815Y-45751185D01*
X68645506Y-45830537D01*
X68755820Y-45889502D01*
X68875518Y-45925812D01*
X69000000Y-45938072D01*
X70700000Y-45938072D01*
X70824482Y-45925812D01*
X70944180Y-45889502D01*
X71054494Y-45830537D01*
X71151185Y-45751185D01*
X71230537Y-45654494D01*
X71289502Y-45544180D01*
X71325812Y-45424482D01*
X71327977Y-45402500D01*
X78532023Y-45402500D01*
X78534188Y-45424482D01*
X78570498Y-45544180D01*
X78629463Y-45654494D01*
X78708815Y-45751185D01*
X78805506Y-45830537D01*
X78915820Y-45889502D01*
X79035518Y-45925812D01*
X79160000Y-45938072D01*
X80860000Y-45938072D01*
X80984482Y-45925812D01*
X81104180Y-45889502D01*
X81214494Y-45830537D01*
X81311185Y-45751185D01*
X81390537Y-45654494D01*
X81449502Y-45544180D01*
X81485812Y-45424482D01*
X81498072Y-45300000D01*
X81498072Y-43600000D01*
X89316928Y-43600000D01*
X89316928Y-45300000D01*
X89329188Y-45424482D01*
X89365498Y-45544180D01*
X89424463Y-45654494D01*
X89503815Y-45751185D01*
X89600506Y-45830537D01*
X89710820Y-45889502D01*
X89830518Y-45925812D01*
X89955000Y-45938072D01*
X91655000Y-45938072D01*
X91779482Y-45925812D01*
X91899180Y-45889502D01*
X92009494Y-45830537D01*
X92106185Y-45751185D01*
X92185537Y-45654494D01*
X92244502Y-45544180D01*
X92280812Y-45424482D01*
X92293072Y-45300000D01*
X92293072Y-43600000D01*
X92280812Y-43475518D01*
X92244502Y-43355820D01*
X92185537Y-43245506D01*
X92106185Y-43148815D01*
X92009494Y-43069463D01*
X91899180Y-43010498D01*
X91826620Y-42988487D01*
X91958475Y-42856632D01*
X92120990Y-42613411D01*
X92232932Y-42343158D01*
X92290000Y-42056260D01*
X92290000Y-41763740D01*
X92232932Y-41476842D01*
X92120990Y-41206589D01*
X91958475Y-40963368D01*
X91751632Y-40756525D01*
X91508411Y-40594010D01*
X91238158Y-40482068D01*
X90951260Y-40425000D01*
X90658740Y-40425000D01*
X90371842Y-40482068D01*
X90101589Y-40594010D01*
X89858368Y-40756525D01*
X89651525Y-40963368D01*
X89489010Y-41206589D01*
X89377068Y-41476842D01*
X89320000Y-41763740D01*
X89320000Y-42056260D01*
X89377068Y-42343158D01*
X89489010Y-42613411D01*
X89651525Y-42856632D01*
X89783380Y-42988487D01*
X89710820Y-43010498D01*
X89600506Y-43069463D01*
X89503815Y-43148815D01*
X89424463Y-43245506D01*
X89365498Y-43355820D01*
X89329188Y-43475518D01*
X89316928Y-43600000D01*
X81498072Y-43600000D01*
X81485812Y-43475518D01*
X81449502Y-43355820D01*
X81390537Y-43245506D01*
X81311185Y-43148815D01*
X81214494Y-43069463D01*
X81104180Y-43010498D01*
X81031620Y-42988487D01*
X81163475Y-42856632D01*
X81325990Y-42613411D01*
X81437932Y-42343158D01*
X81495000Y-42056260D01*
X81495000Y-41763740D01*
X81437932Y-41476842D01*
X81325990Y-41206589D01*
X81163475Y-40963368D01*
X80962500Y-40762393D01*
X80962500Y-36823405D01*
X80999502Y-36754180D01*
X81035812Y-36634482D01*
X81048072Y-36510000D01*
X81048072Y-34610000D01*
X81035812Y-34485518D01*
X80999502Y-34365820D01*
X80940537Y-34255506D01*
X80861185Y-34158815D01*
X80848095Y-34148072D01*
X81360000Y-34148072D01*
X81484482Y-34135812D01*
X81604180Y-34099502D01*
X81714494Y-34040537D01*
X81811185Y-33961185D01*
X81890537Y-33864494D01*
X81949502Y-33754180D01*
X81985812Y-33634482D01*
X81998072Y-33510000D01*
X81998072Y-31610000D01*
X81985812Y-31485518D01*
X81949502Y-31365820D01*
X81912500Y-31296595D01*
X81912500Y-30403204D01*
X82069851Y-30355472D01*
X82223387Y-30273405D01*
X82357962Y-30162962D01*
X82468405Y-30028387D01*
X82550472Y-29874851D01*
X82601008Y-29708255D01*
X82618072Y-29535001D01*
X82618072Y-28884999D01*
X82601008Y-28711745D01*
X82550472Y-28545149D01*
X82468405Y-28391613D01*
X82357962Y-28257038D01*
X82270184Y-28185000D01*
X82357962Y-28112962D01*
X82468405Y-27978387D01*
X82550472Y-27824851D01*
X82601008Y-27658255D01*
X82618072Y-27485001D01*
X82618072Y-26834999D01*
X82601008Y-26661745D01*
X82550472Y-26495149D01*
X82468405Y-26341613D01*
X82357962Y-26207038D01*
X82232500Y-26104074D01*
X82232500Y-24811784D01*
X82237108Y-24764999D01*
X82218717Y-24578277D01*
X82217709Y-24574954D01*
X82164252Y-24398731D01*
X82075806Y-24233259D01*
X81956778Y-24088222D01*
X81920431Y-24058393D01*
X81382038Y-23520000D01*
X102837721Y-23520000D01*
X103234545Y-23558909D01*
G36*
X78932038Y-61912962D02*
G01*
X79019816Y-61985000D01*
X78932038Y-62057038D01*
X78821595Y-62191613D01*
X78739528Y-62345149D01*
X78688992Y-62511745D01*
X78671928Y-62684999D01*
X78671928Y-63335001D01*
X78688992Y-63508255D01*
X78739528Y-63674851D01*
X78821595Y-63828387D01*
X78932038Y-63962962D01*
X79057501Y-64065927D01*
X79057500Y-65816595D01*
X79020498Y-65885820D01*
X78984188Y-66005518D01*
X78971928Y-66130000D01*
X78971928Y-68030000D01*
X78984188Y-68154482D01*
X79020498Y-68274180D01*
X79079463Y-68384494D01*
X79158815Y-68481185D01*
X79171905Y-68491928D01*
X78660000Y-68491928D01*
X78535518Y-68504188D01*
X78415820Y-68540498D01*
X78305506Y-68599463D01*
X78208815Y-68678815D01*
X78129463Y-68775506D01*
X78070498Y-68885820D01*
X78034188Y-69005518D01*
X78021928Y-69130000D01*
X78021928Y-71030000D01*
X78034188Y-71154482D01*
X78070498Y-71274180D01*
X78107500Y-71343406D01*
X78107501Y-72466796D01*
X77950149Y-72514528D01*
X77796613Y-72596595D01*
X77662038Y-72707038D01*
X77551595Y-72841613D01*
X77469528Y-72995149D01*
X77418992Y-73161745D01*
X77401928Y-73334999D01*
X77401928Y-73985001D01*
X77418992Y-74158255D01*
X77469528Y-74324851D01*
X77551595Y-74478387D01*
X77662038Y-74612962D01*
X77749816Y-74685000D01*
X77662038Y-74757038D01*
X77551595Y-74891613D01*
X77469528Y-75045149D01*
X77418992Y-75211745D01*
X77401928Y-75384999D01*
X77401928Y-76035001D01*
X77418992Y-76208255D01*
X77469528Y-76374851D01*
X77551595Y-76528387D01*
X77662038Y-76662962D01*
X77787501Y-76765927D01*
X77787501Y-77075462D01*
X77710462Y-77152500D01*
X69532500Y-77152500D01*
X69532500Y-76765926D01*
X69657962Y-76662962D01*
X69768405Y-76528387D01*
X69850472Y-76374851D01*
X69901008Y-76208255D01*
X69918072Y-76035001D01*
X69918072Y-75384999D01*
X69901008Y-75211745D01*
X69850472Y-75045149D01*
X69768405Y-74891613D01*
X69657962Y-74757038D01*
X69570184Y-74685000D01*
X69657962Y-74612962D01*
X69768405Y-74478387D01*
X69850472Y-74324851D01*
X69901008Y-74158255D01*
X69918072Y-73985001D01*
X69918072Y-73334999D01*
X69901008Y-73161745D01*
X69852500Y-73001834D01*
X69852500Y-71352759D01*
X69869463Y-71384494D01*
X69948815Y-71481185D01*
X70045506Y-71560537D01*
X70155820Y-71619502D01*
X70275518Y-71655812D01*
X70400000Y-71668072D01*
X70514250Y-71665000D01*
X70673000Y-71506250D01*
X70673000Y-70207000D01*
X70927000Y-70207000D01*
X70927000Y-71506250D01*
X71085750Y-71665000D01*
X71200000Y-71668072D01*
X71324482Y-71655812D01*
X71444180Y-71619502D01*
X71554494Y-71560537D01*
X71651185Y-71481185D01*
X71730537Y-71384494D01*
X71789502Y-71274180D01*
X71825812Y-71154482D01*
X71838072Y-71030000D01*
X71835000Y-70365750D01*
X71676250Y-70207000D01*
X70927000Y-70207000D01*
X70673000Y-70207000D01*
X70653000Y-70207000D01*
X70653000Y-69953000D01*
X70673000Y-69953000D01*
X70673000Y-68653750D01*
X70927000Y-68653750D01*
X70927000Y-69953000D01*
X71676250Y-69953000D01*
X71835000Y-69794250D01*
X71838072Y-69130000D01*
X71825812Y-69005518D01*
X71789502Y-68885820D01*
X71730537Y-68775506D01*
X71651185Y-68678815D01*
X71554494Y-68599463D01*
X71444180Y-68540498D01*
X71324482Y-68504188D01*
X71200000Y-68491928D01*
X71085750Y-68495000D01*
X70927000Y-68653750D01*
X70673000Y-68653750D01*
X70588393Y-68569143D01*
X70604494Y-68560537D01*
X70701185Y-68481185D01*
X70780537Y-68384494D01*
X70839502Y-68274180D01*
X70875812Y-68154482D01*
X70888072Y-68030000D01*
X70888072Y-66130000D01*
X70875812Y-66005518D01*
X70839502Y-65885820D01*
X70802500Y-65816595D01*
X70802500Y-64065926D01*
X70927962Y-63962962D01*
X71038405Y-63828387D01*
X71120472Y-63674851D01*
X71171008Y-63508255D01*
X71188072Y-63335001D01*
X71188072Y-62684999D01*
X71171008Y-62511745D01*
X71120472Y-62345149D01*
X71038405Y-62191613D01*
X70927962Y-62057038D01*
X70840184Y-61985000D01*
X70927962Y-61912962D01*
X70928341Y-61912500D01*
X78931659Y-61912500D01*
X78932038Y-61912962D01*
G37*
X78932038Y-61912962D02*
X79019816Y-61985000D01*
X78932038Y-62057038D01*
X78821595Y-62191613D01*
X78739528Y-62345149D01*
X78688992Y-62511745D01*
X78671928Y-62684999D01*
X78671928Y-63335001D01*
X78688992Y-63508255D01*
X78739528Y-63674851D01*
X78821595Y-63828387D01*
X78932038Y-63962962D01*
X79057501Y-64065927D01*
X79057500Y-65816595D01*
X79020498Y-65885820D01*
X78984188Y-66005518D01*
X78971928Y-66130000D01*
X78971928Y-68030000D01*
X78984188Y-68154482D01*
X79020498Y-68274180D01*
X79079463Y-68384494D01*
X79158815Y-68481185D01*
X79171905Y-68491928D01*
X78660000Y-68491928D01*
X78535518Y-68504188D01*
X78415820Y-68540498D01*
X78305506Y-68599463D01*
X78208815Y-68678815D01*
X78129463Y-68775506D01*
X78070498Y-68885820D01*
X78034188Y-69005518D01*
X78021928Y-69130000D01*
X78021928Y-71030000D01*
X78034188Y-71154482D01*
X78070498Y-71274180D01*
X78107500Y-71343406D01*
X78107501Y-72466796D01*
X77950149Y-72514528D01*
X77796613Y-72596595D01*
X77662038Y-72707038D01*
X77551595Y-72841613D01*
X77469528Y-72995149D01*
X77418992Y-73161745D01*
X77401928Y-73334999D01*
X77401928Y-73985001D01*
X77418992Y-74158255D01*
X77469528Y-74324851D01*
X77551595Y-74478387D01*
X77662038Y-74612962D01*
X77749816Y-74685000D01*
X77662038Y-74757038D01*
X77551595Y-74891613D01*
X77469528Y-75045149D01*
X77418992Y-75211745D01*
X77401928Y-75384999D01*
X77401928Y-76035001D01*
X77418992Y-76208255D01*
X77469528Y-76374851D01*
X77551595Y-76528387D01*
X77662038Y-76662962D01*
X77787501Y-76765927D01*
X77787501Y-77075462D01*
X77710462Y-77152500D01*
X69532500Y-77152500D01*
X69532500Y-76765926D01*
X69657962Y-76662962D01*
X69768405Y-76528387D01*
X69850472Y-76374851D01*
X69901008Y-76208255D01*
X69918072Y-76035001D01*
X69918072Y-75384999D01*
X69901008Y-75211745D01*
X69850472Y-75045149D01*
X69768405Y-74891613D01*
X69657962Y-74757038D01*
X69570184Y-74685000D01*
X69657962Y-74612962D01*
X69768405Y-74478387D01*
X69850472Y-74324851D01*
X69901008Y-74158255D01*
X69918072Y-73985001D01*
X69918072Y-73334999D01*
X69901008Y-73161745D01*
X69852500Y-73001834D01*
X69852500Y-71352759D01*
X69869463Y-71384494D01*
X69948815Y-71481185D01*
X70045506Y-71560537D01*
X70155820Y-71619502D01*
X70275518Y-71655812D01*
X70400000Y-71668072D01*
X70514250Y-71665000D01*
X70673000Y-71506250D01*
X70673000Y-70207000D01*
X70927000Y-70207000D01*
X70927000Y-71506250D01*
X71085750Y-71665000D01*
X71200000Y-71668072D01*
X71324482Y-71655812D01*
X71444180Y-71619502D01*
X71554494Y-71560537D01*
X71651185Y-71481185D01*
X71730537Y-71384494D01*
X71789502Y-71274180D01*
X71825812Y-71154482D01*
X71838072Y-71030000D01*
X71835000Y-70365750D01*
X71676250Y-70207000D01*
X70927000Y-70207000D01*
X70673000Y-70207000D01*
X70653000Y-70207000D01*
X70653000Y-69953000D01*
X70673000Y-69953000D01*
X70673000Y-68653750D01*
X70927000Y-68653750D01*
X70927000Y-69953000D01*
X71676250Y-69953000D01*
X71835000Y-69794250D01*
X71838072Y-69130000D01*
X71825812Y-69005518D01*
X71789502Y-68885820D01*
X71730537Y-68775506D01*
X71651185Y-68678815D01*
X71554494Y-68599463D01*
X71444180Y-68540498D01*
X71324482Y-68504188D01*
X71200000Y-68491928D01*
X71085750Y-68495000D01*
X70927000Y-68653750D01*
X70673000Y-68653750D01*
X70588393Y-68569143D01*
X70604494Y-68560537D01*
X70701185Y-68481185D01*
X70780537Y-68384494D01*
X70839502Y-68274180D01*
X70875812Y-68154482D01*
X70888072Y-68030000D01*
X70888072Y-66130000D01*
X70875812Y-66005518D01*
X70839502Y-65885820D01*
X70802500Y-65816595D01*
X70802500Y-64065926D01*
X70927962Y-63962962D01*
X71038405Y-63828387D01*
X71120472Y-63674851D01*
X71171008Y-63508255D01*
X71188072Y-63335001D01*
X71188072Y-62684999D01*
X71171008Y-62511745D01*
X71120472Y-62345149D01*
X71038405Y-62191613D01*
X70927962Y-62057038D01*
X70840184Y-61985000D01*
X70927962Y-61912962D01*
X70928341Y-61912500D01*
X78931659Y-61912500D01*
X78932038Y-61912962D01*
G36*
X66039999Y-61917108D02*
G01*
X66086784Y-61912500D01*
X68771659Y-61912500D01*
X68772038Y-61912962D01*
X68859816Y-61985000D01*
X68772038Y-62057038D01*
X68661595Y-62191613D01*
X68579528Y-62345149D01*
X68528992Y-62511745D01*
X68511928Y-62684999D01*
X68511928Y-63335001D01*
X68528992Y-63508255D01*
X68579528Y-63674851D01*
X68661595Y-63828387D01*
X68772038Y-63962962D01*
X68897500Y-64065926D01*
X68897501Y-65816594D01*
X68860498Y-65885820D01*
X68824188Y-66005518D01*
X68811928Y-66130000D01*
X68811928Y-68030000D01*
X68824188Y-68154482D01*
X68860498Y-68274180D01*
X68919463Y-68384494D01*
X68998815Y-68481185D01*
X69011905Y-68491928D01*
X68500000Y-68491928D01*
X68375518Y-68504188D01*
X68255820Y-68540498D01*
X68145506Y-68599463D01*
X68048815Y-68678815D01*
X67969463Y-68775506D01*
X67910498Y-68885820D01*
X67874188Y-69005518D01*
X67861928Y-69130000D01*
X67861928Y-71030000D01*
X67874188Y-71154482D01*
X67910498Y-71274180D01*
X67947500Y-71343406D01*
X67947501Y-72466796D01*
X67790149Y-72514528D01*
X67636613Y-72596595D01*
X67502038Y-72707038D01*
X67391595Y-72841613D01*
X67309528Y-72995149D01*
X67258992Y-73161745D01*
X67241928Y-73334999D01*
X67241928Y-73985001D01*
X67258992Y-74158255D01*
X67309528Y-74324851D01*
X67391595Y-74478387D01*
X67502038Y-74612962D01*
X67589816Y-74685000D01*
X67502038Y-74757038D01*
X67391595Y-74891613D01*
X67309528Y-75045149D01*
X67258992Y-75211745D01*
X67241928Y-75384999D01*
X67241928Y-76035001D01*
X67258992Y-76208255D01*
X67309528Y-76374851D01*
X67391595Y-76528387D01*
X67502038Y-76662962D01*
X67627501Y-76765927D01*
X67627501Y-77075462D01*
X67550462Y-77152500D01*
X59372500Y-77152500D01*
X59372500Y-76765926D01*
X59497962Y-76662962D01*
X59608405Y-76528387D01*
X59690472Y-76374851D01*
X59741008Y-76208255D01*
X59758072Y-76035001D01*
X59758072Y-75384999D01*
X59741008Y-75211745D01*
X59690472Y-75045149D01*
X59608405Y-74891613D01*
X59497962Y-74757038D01*
X59410184Y-74685000D01*
X59497962Y-74612962D01*
X59608405Y-74478387D01*
X59690472Y-74324851D01*
X59741008Y-74158255D01*
X59758072Y-73985001D01*
X59758072Y-73334999D01*
X59741008Y-73161745D01*
X59692500Y-73001834D01*
X59692500Y-71352759D01*
X59709463Y-71384494D01*
X59788815Y-71481185D01*
X59885506Y-71560537D01*
X59995820Y-71619502D01*
X60115518Y-71655812D01*
X60240000Y-71668072D01*
X60354250Y-71665000D01*
X60513000Y-71506250D01*
X60513000Y-70207000D01*
X60767000Y-70207000D01*
X60767000Y-71506250D01*
X60925750Y-71665000D01*
X61040000Y-71668072D01*
X61164482Y-71655812D01*
X61284180Y-71619502D01*
X61394494Y-71560537D01*
X61491185Y-71481185D01*
X61570537Y-71384494D01*
X61629502Y-71274180D01*
X61665812Y-71154482D01*
X61678072Y-71030000D01*
X61675000Y-70365750D01*
X61516250Y-70207000D01*
X60767000Y-70207000D01*
X60513000Y-70207000D01*
X60493000Y-70207000D01*
X60493000Y-69953000D01*
X60513000Y-69953000D01*
X60513000Y-68653750D01*
X60767000Y-68653750D01*
X60767000Y-69953000D01*
X61516250Y-69953000D01*
X61675000Y-69794250D01*
X61678072Y-69130000D01*
X61665812Y-69005518D01*
X61629502Y-68885820D01*
X61570537Y-68775506D01*
X61491185Y-68678815D01*
X61394494Y-68599463D01*
X61284180Y-68540498D01*
X61164482Y-68504188D01*
X61040000Y-68491928D01*
X60925750Y-68495000D01*
X60767000Y-68653750D01*
X60513000Y-68653750D01*
X60428393Y-68569143D01*
X60444494Y-68560537D01*
X60541185Y-68481185D01*
X60620537Y-68384494D01*
X60679502Y-68274180D01*
X60715812Y-68154482D01*
X60728072Y-68030000D01*
X60728072Y-66130000D01*
X60715812Y-66005518D01*
X60679502Y-65885820D01*
X60642500Y-65816595D01*
X60642500Y-64065926D01*
X60767962Y-63962962D01*
X60878405Y-63828387D01*
X60960472Y-63674851D01*
X61011008Y-63508255D01*
X61028072Y-63335001D01*
X61028072Y-62684999D01*
X61011008Y-62511745D01*
X60960472Y-62345149D01*
X60878405Y-62191613D01*
X60767962Y-62057038D01*
X60680184Y-61985000D01*
X60767962Y-61912962D01*
X60768341Y-61912500D01*
X65993214Y-61912500D01*
X66039999Y-61917108D01*
G37*
X66039999Y-61917108D02*
X66086784Y-61912500D01*
X68771659Y-61912500D01*
X68772038Y-61912962D01*
X68859816Y-61985000D01*
X68772038Y-62057038D01*
X68661595Y-62191613D01*
X68579528Y-62345149D01*
X68528992Y-62511745D01*
X68511928Y-62684999D01*
X68511928Y-63335001D01*
X68528992Y-63508255D01*
X68579528Y-63674851D01*
X68661595Y-63828387D01*
X68772038Y-63962962D01*
X68897500Y-64065926D01*
X68897501Y-65816594D01*
X68860498Y-65885820D01*
X68824188Y-66005518D01*
X68811928Y-66130000D01*
X68811928Y-68030000D01*
X68824188Y-68154482D01*
X68860498Y-68274180D01*
X68919463Y-68384494D01*
X68998815Y-68481185D01*
X69011905Y-68491928D01*
X68500000Y-68491928D01*
X68375518Y-68504188D01*
X68255820Y-68540498D01*
X68145506Y-68599463D01*
X68048815Y-68678815D01*
X67969463Y-68775506D01*
X67910498Y-68885820D01*
X67874188Y-69005518D01*
X67861928Y-69130000D01*
X67861928Y-71030000D01*
X67874188Y-71154482D01*
X67910498Y-71274180D01*
X67947500Y-71343406D01*
X67947501Y-72466796D01*
X67790149Y-72514528D01*
X67636613Y-72596595D01*
X67502038Y-72707038D01*
X67391595Y-72841613D01*
X67309528Y-72995149D01*
X67258992Y-73161745D01*
X67241928Y-73334999D01*
X67241928Y-73985001D01*
X67258992Y-74158255D01*
X67309528Y-74324851D01*
X67391595Y-74478387D01*
X67502038Y-74612962D01*
X67589816Y-74685000D01*
X67502038Y-74757038D01*
X67391595Y-74891613D01*
X67309528Y-75045149D01*
X67258992Y-75211745D01*
X67241928Y-75384999D01*
X67241928Y-76035001D01*
X67258992Y-76208255D01*
X67309528Y-76374851D01*
X67391595Y-76528387D01*
X67502038Y-76662962D01*
X67627501Y-76765927D01*
X67627501Y-77075462D01*
X67550462Y-77152500D01*
X59372500Y-77152500D01*
X59372500Y-76765926D01*
X59497962Y-76662962D01*
X59608405Y-76528387D01*
X59690472Y-76374851D01*
X59741008Y-76208255D01*
X59758072Y-76035001D01*
X59758072Y-75384999D01*
X59741008Y-75211745D01*
X59690472Y-75045149D01*
X59608405Y-74891613D01*
X59497962Y-74757038D01*
X59410184Y-74685000D01*
X59497962Y-74612962D01*
X59608405Y-74478387D01*
X59690472Y-74324851D01*
X59741008Y-74158255D01*
X59758072Y-73985001D01*
X59758072Y-73334999D01*
X59741008Y-73161745D01*
X59692500Y-73001834D01*
X59692500Y-71352759D01*
X59709463Y-71384494D01*
X59788815Y-71481185D01*
X59885506Y-71560537D01*
X59995820Y-71619502D01*
X60115518Y-71655812D01*
X60240000Y-71668072D01*
X60354250Y-71665000D01*
X60513000Y-71506250D01*
X60513000Y-70207000D01*
X60767000Y-70207000D01*
X60767000Y-71506250D01*
X60925750Y-71665000D01*
X61040000Y-71668072D01*
X61164482Y-71655812D01*
X61284180Y-71619502D01*
X61394494Y-71560537D01*
X61491185Y-71481185D01*
X61570537Y-71384494D01*
X61629502Y-71274180D01*
X61665812Y-71154482D01*
X61678072Y-71030000D01*
X61675000Y-70365750D01*
X61516250Y-70207000D01*
X60767000Y-70207000D01*
X60513000Y-70207000D01*
X60493000Y-70207000D01*
X60493000Y-69953000D01*
X60513000Y-69953000D01*
X60513000Y-68653750D01*
X60767000Y-68653750D01*
X60767000Y-69953000D01*
X61516250Y-69953000D01*
X61675000Y-69794250D01*
X61678072Y-69130000D01*
X61665812Y-69005518D01*
X61629502Y-68885820D01*
X61570537Y-68775506D01*
X61491185Y-68678815D01*
X61394494Y-68599463D01*
X61284180Y-68540498D01*
X61164482Y-68504188D01*
X61040000Y-68491928D01*
X60925750Y-68495000D01*
X60767000Y-68653750D01*
X60513000Y-68653750D01*
X60428393Y-68569143D01*
X60444494Y-68560537D01*
X60541185Y-68481185D01*
X60620537Y-68384494D01*
X60679502Y-68274180D01*
X60715812Y-68154482D01*
X60728072Y-68030000D01*
X60728072Y-66130000D01*
X60715812Y-66005518D01*
X60679502Y-65885820D01*
X60642500Y-65816595D01*
X60642500Y-64065926D01*
X60767962Y-63962962D01*
X60878405Y-63828387D01*
X60960472Y-63674851D01*
X61011008Y-63508255D01*
X61028072Y-63335001D01*
X61028072Y-62684999D01*
X61011008Y-62511745D01*
X60960472Y-62345149D01*
X60878405Y-62191613D01*
X60767962Y-62057038D01*
X60680184Y-61985000D01*
X60767962Y-61912962D01*
X60768341Y-61912500D01*
X65993214Y-61912500D01*
X66039999Y-61917108D01*
G36*
X58612038Y-61912962D02*
G01*
X58699816Y-61985000D01*
X58612038Y-62057038D01*
X58501595Y-62191613D01*
X58419528Y-62345149D01*
X58368992Y-62511745D01*
X58351928Y-62684999D01*
X58351928Y-63335001D01*
X58368992Y-63508255D01*
X58419528Y-63674851D01*
X58501595Y-63828387D01*
X58612038Y-63962962D01*
X58737500Y-64065926D01*
X58737501Y-65816594D01*
X58700498Y-65885820D01*
X58664188Y-66005518D01*
X58651928Y-66130000D01*
X58651928Y-68030000D01*
X58664188Y-68154482D01*
X58700498Y-68274180D01*
X58759463Y-68384494D01*
X58838815Y-68481185D01*
X58851905Y-68491928D01*
X58340000Y-68491928D01*
X58215518Y-68504188D01*
X58095820Y-68540498D01*
X57985506Y-68599463D01*
X57888815Y-68678815D01*
X57809463Y-68775506D01*
X57750498Y-68885820D01*
X57714188Y-69005518D01*
X57701928Y-69130000D01*
X57701928Y-71030000D01*
X57714188Y-71154482D01*
X57750498Y-71274180D01*
X57787500Y-71343406D01*
X57787501Y-72466796D01*
X57630149Y-72514528D01*
X57476613Y-72596595D01*
X57342038Y-72707038D01*
X57231595Y-72841613D01*
X57149528Y-72995149D01*
X57098992Y-73161745D01*
X57081928Y-73334999D01*
X57081928Y-73985001D01*
X57098992Y-74158255D01*
X57149528Y-74324851D01*
X57231595Y-74478387D01*
X57342038Y-74612962D01*
X57429816Y-74685000D01*
X57342038Y-74757038D01*
X57231595Y-74891613D01*
X57149528Y-75045149D01*
X57098992Y-75211745D01*
X57081928Y-75384999D01*
X57081928Y-76035001D01*
X57098992Y-76208255D01*
X57149528Y-76374851D01*
X57231595Y-76528387D01*
X57342038Y-76662962D01*
X57467501Y-76765927D01*
X57467501Y-77075462D01*
X57390462Y-77152500D01*
X49063413Y-77152500D01*
X49116837Y-77052549D01*
X49144252Y-77001260D01*
X49198717Y-76821712D01*
X49203483Y-76773326D01*
X49337962Y-76662962D01*
X49448405Y-76528387D01*
X49530472Y-76374851D01*
X49581008Y-76208255D01*
X49598072Y-76035001D01*
X49598072Y-75384999D01*
X49581008Y-75211745D01*
X49530472Y-75045149D01*
X49448405Y-74891613D01*
X49337962Y-74757038D01*
X49250184Y-74685000D01*
X49337962Y-74612962D01*
X49448405Y-74478387D01*
X49530472Y-74324851D01*
X49581008Y-74158255D01*
X49598072Y-73985001D01*
X49598072Y-73334999D01*
X49581008Y-73161745D01*
X49532500Y-73001834D01*
X49532500Y-71352759D01*
X49549463Y-71384494D01*
X49628815Y-71481185D01*
X49725506Y-71560537D01*
X49835820Y-71619502D01*
X49955518Y-71655812D01*
X50080000Y-71668072D01*
X50194250Y-71665000D01*
X50353000Y-71506250D01*
X50353000Y-70207000D01*
X50607000Y-70207000D01*
X50607000Y-71506250D01*
X50765750Y-71665000D01*
X50880000Y-71668072D01*
X51004482Y-71655812D01*
X51124180Y-71619502D01*
X51234494Y-71560537D01*
X51331185Y-71481185D01*
X51410537Y-71384494D01*
X51469502Y-71274180D01*
X51505812Y-71154482D01*
X51518072Y-71030000D01*
X51515000Y-70365750D01*
X51356250Y-70207000D01*
X50607000Y-70207000D01*
X50353000Y-70207000D01*
X50333000Y-70207000D01*
X50333000Y-69953000D01*
X50353000Y-69953000D01*
X50353000Y-68653750D01*
X50607000Y-68653750D01*
X50607000Y-69953000D01*
X51356250Y-69953000D01*
X51515000Y-69794250D01*
X51518072Y-69130000D01*
X51505812Y-69005518D01*
X51469502Y-68885820D01*
X51410537Y-68775506D01*
X51331185Y-68678815D01*
X51234494Y-68599463D01*
X51124180Y-68540498D01*
X51004482Y-68504188D01*
X50880000Y-68491928D01*
X50765750Y-68495000D01*
X50607000Y-68653750D01*
X50353000Y-68653750D01*
X50268393Y-68569143D01*
X50284494Y-68560537D01*
X50381185Y-68481185D01*
X50460537Y-68384494D01*
X50519502Y-68274180D01*
X50555812Y-68154482D01*
X50568072Y-68030000D01*
X50568072Y-66130000D01*
X50555812Y-66005518D01*
X50519502Y-65885820D01*
X50482500Y-65816595D01*
X50482500Y-64065926D01*
X50607962Y-63962962D01*
X50718405Y-63828387D01*
X50800472Y-63674851D01*
X50851008Y-63508255D01*
X50868072Y-63335001D01*
X50868072Y-62684999D01*
X50851008Y-62511745D01*
X50800472Y-62345149D01*
X50718405Y-62191613D01*
X50607962Y-62057038D01*
X50520184Y-61985000D01*
X50607962Y-61912962D01*
X50608341Y-61912500D01*
X58611659Y-61912500D01*
X58612038Y-61912962D01*
G37*
X58612038Y-61912962D02*
X58699816Y-61985000D01*
X58612038Y-62057038D01*
X58501595Y-62191613D01*
X58419528Y-62345149D01*
X58368992Y-62511745D01*
X58351928Y-62684999D01*
X58351928Y-63335001D01*
X58368992Y-63508255D01*
X58419528Y-63674851D01*
X58501595Y-63828387D01*
X58612038Y-63962962D01*
X58737500Y-64065926D01*
X58737501Y-65816594D01*
X58700498Y-65885820D01*
X58664188Y-66005518D01*
X58651928Y-66130000D01*
X58651928Y-68030000D01*
X58664188Y-68154482D01*
X58700498Y-68274180D01*
X58759463Y-68384494D01*
X58838815Y-68481185D01*
X58851905Y-68491928D01*
X58340000Y-68491928D01*
X58215518Y-68504188D01*
X58095820Y-68540498D01*
X57985506Y-68599463D01*
X57888815Y-68678815D01*
X57809463Y-68775506D01*
X57750498Y-68885820D01*
X57714188Y-69005518D01*
X57701928Y-69130000D01*
X57701928Y-71030000D01*
X57714188Y-71154482D01*
X57750498Y-71274180D01*
X57787500Y-71343406D01*
X57787501Y-72466796D01*
X57630149Y-72514528D01*
X57476613Y-72596595D01*
X57342038Y-72707038D01*
X57231595Y-72841613D01*
X57149528Y-72995149D01*
X57098992Y-73161745D01*
X57081928Y-73334999D01*
X57081928Y-73985001D01*
X57098992Y-74158255D01*
X57149528Y-74324851D01*
X57231595Y-74478387D01*
X57342038Y-74612962D01*
X57429816Y-74685000D01*
X57342038Y-74757038D01*
X57231595Y-74891613D01*
X57149528Y-75045149D01*
X57098992Y-75211745D01*
X57081928Y-75384999D01*
X57081928Y-76035001D01*
X57098992Y-76208255D01*
X57149528Y-76374851D01*
X57231595Y-76528387D01*
X57342038Y-76662962D01*
X57467501Y-76765927D01*
X57467501Y-77075462D01*
X57390462Y-77152500D01*
X49063413Y-77152500D01*
X49116837Y-77052549D01*
X49144252Y-77001260D01*
X49198717Y-76821712D01*
X49203483Y-76773326D01*
X49337962Y-76662962D01*
X49448405Y-76528387D01*
X49530472Y-76374851D01*
X49581008Y-76208255D01*
X49598072Y-76035001D01*
X49598072Y-75384999D01*
X49581008Y-75211745D01*
X49530472Y-75045149D01*
X49448405Y-74891613D01*
X49337962Y-74757038D01*
X49250184Y-74685000D01*
X49337962Y-74612962D01*
X49448405Y-74478387D01*
X49530472Y-74324851D01*
X49581008Y-74158255D01*
X49598072Y-73985001D01*
X49598072Y-73334999D01*
X49581008Y-73161745D01*
X49532500Y-73001834D01*
X49532500Y-71352759D01*
X49549463Y-71384494D01*
X49628815Y-71481185D01*
X49725506Y-71560537D01*
X49835820Y-71619502D01*
X49955518Y-71655812D01*
X50080000Y-71668072D01*
X50194250Y-71665000D01*
X50353000Y-71506250D01*
X50353000Y-70207000D01*
X50607000Y-70207000D01*
X50607000Y-71506250D01*
X50765750Y-71665000D01*
X50880000Y-71668072D01*
X51004482Y-71655812D01*
X51124180Y-71619502D01*
X51234494Y-71560537D01*
X51331185Y-71481185D01*
X51410537Y-71384494D01*
X51469502Y-71274180D01*
X51505812Y-71154482D01*
X51518072Y-71030000D01*
X51515000Y-70365750D01*
X51356250Y-70207000D01*
X50607000Y-70207000D01*
X50353000Y-70207000D01*
X50333000Y-70207000D01*
X50333000Y-69953000D01*
X50353000Y-69953000D01*
X50353000Y-68653750D01*
X50607000Y-68653750D01*
X50607000Y-69953000D01*
X51356250Y-69953000D01*
X51515000Y-69794250D01*
X51518072Y-69130000D01*
X51505812Y-69005518D01*
X51469502Y-68885820D01*
X51410537Y-68775506D01*
X51331185Y-68678815D01*
X51234494Y-68599463D01*
X51124180Y-68540498D01*
X51004482Y-68504188D01*
X50880000Y-68491928D01*
X50765750Y-68495000D01*
X50607000Y-68653750D01*
X50353000Y-68653750D01*
X50268393Y-68569143D01*
X50284494Y-68560537D01*
X50381185Y-68481185D01*
X50460537Y-68384494D01*
X50519502Y-68274180D01*
X50555812Y-68154482D01*
X50568072Y-68030000D01*
X50568072Y-66130000D01*
X50555812Y-66005518D01*
X50519502Y-65885820D01*
X50482500Y-65816595D01*
X50482500Y-64065926D01*
X50607962Y-63962962D01*
X50718405Y-63828387D01*
X50800472Y-63674851D01*
X50851008Y-63508255D01*
X50868072Y-63335001D01*
X50868072Y-62684999D01*
X50851008Y-62511745D01*
X50800472Y-62345149D01*
X50718405Y-62191613D01*
X50607962Y-62057038D01*
X50520184Y-61985000D01*
X50607962Y-61912962D01*
X50608341Y-61912500D01*
X58611659Y-61912500D01*
X58612038Y-61912962D01*
G36*
X70167501Y-25794539D02*
G01*
X70167501Y-26104073D01*
X70042038Y-26207038D01*
X69931595Y-26341613D01*
X69849528Y-26495149D01*
X69798992Y-26661745D01*
X69781928Y-26834999D01*
X69781928Y-27485001D01*
X69798992Y-27658255D01*
X69849528Y-27824851D01*
X69931595Y-27978387D01*
X70042038Y-28112962D01*
X70129816Y-28185000D01*
X70042038Y-28257038D01*
X69931595Y-28391613D01*
X69849528Y-28545149D01*
X69798992Y-28711745D01*
X69781928Y-28884999D01*
X69781928Y-29535001D01*
X69798992Y-29708255D01*
X69847501Y-29868168D01*
X69847500Y-31287242D01*
X69841438Y-31275899D01*
X69838717Y-31248277D01*
X69784252Y-31068731D01*
X69695806Y-30903259D01*
X69576778Y-30758222D01*
X69540426Y-30728389D01*
X69539932Y-30727894D01*
X69497205Y-30624744D01*
X69383937Y-30455226D01*
X69239774Y-30311063D01*
X69070256Y-30197795D01*
X68881898Y-30119774D01*
X68681939Y-30080000D01*
X68478061Y-30080000D01*
X68278102Y-30119774D01*
X68089744Y-30197795D01*
X67920226Y-30311063D01*
X67776063Y-30455226D01*
X67662795Y-30624744D01*
X67584774Y-30813102D01*
X67545000Y-31013061D01*
X67545000Y-31216939D01*
X67584774Y-31416898D01*
X67662795Y-31605256D01*
X67776063Y-31774774D01*
X67861928Y-31860639D01*
X67861928Y-33510000D01*
X67874188Y-33634482D01*
X67910498Y-33754180D01*
X67969463Y-33864494D01*
X68048815Y-33961185D01*
X68145506Y-34040537D01*
X68255820Y-34099502D01*
X68375518Y-34135812D01*
X68500000Y-34148072D01*
X69011905Y-34148072D01*
X68998815Y-34158815D01*
X68919463Y-34255506D01*
X68860498Y-34365820D01*
X68824188Y-34485518D01*
X68811928Y-34610000D01*
X68811928Y-36510000D01*
X68824188Y-36634482D01*
X68860498Y-36754180D01*
X68897500Y-36823405D01*
X68897501Y-40762392D01*
X68696525Y-40963368D01*
X68534010Y-41206589D01*
X68422068Y-41476842D01*
X68365000Y-41763740D01*
X68365000Y-42056260D01*
X68422068Y-42343158D01*
X68534010Y-42613411D01*
X68696525Y-42856632D01*
X68828380Y-42988487D01*
X68755820Y-43010498D01*
X68645506Y-43069463D01*
X68548815Y-43148815D01*
X68469463Y-43245506D01*
X68410498Y-43355820D01*
X68374188Y-43475518D01*
X68372023Y-43497500D01*
X64816785Y-43497500D01*
X64770000Y-43492892D01*
X64723215Y-43497500D01*
X61167977Y-43497500D01*
X61165812Y-43475518D01*
X61129502Y-43355820D01*
X61070537Y-43245506D01*
X60991185Y-43148815D01*
X60894494Y-43069463D01*
X60784180Y-43010498D01*
X60711620Y-42988487D01*
X60843475Y-42856632D01*
X61005990Y-42613411D01*
X61117932Y-42343158D01*
X61175000Y-42056260D01*
X61175000Y-41763740D01*
X61117932Y-41476842D01*
X61005990Y-41206589D01*
X60843475Y-40963368D01*
X60642500Y-40762393D01*
X60642500Y-36823405D01*
X60679502Y-36754180D01*
X60715812Y-36634482D01*
X60728072Y-36510000D01*
X60728072Y-34610000D01*
X60715812Y-34485518D01*
X60679502Y-34365820D01*
X60620537Y-34255506D01*
X60541185Y-34158815D01*
X60528095Y-34148072D01*
X61040000Y-34148072D01*
X61164482Y-34135812D01*
X61284180Y-34099502D01*
X61394494Y-34040537D01*
X61491185Y-33961185D01*
X61570537Y-33864494D01*
X61629502Y-33754180D01*
X61665812Y-33634482D01*
X61678072Y-33510000D01*
X61678072Y-31610000D01*
X61665812Y-31485518D01*
X61629502Y-31365820D01*
X61592500Y-31296595D01*
X61592500Y-30403204D01*
X61749851Y-30355472D01*
X61903387Y-30273405D01*
X62037962Y-30162962D01*
X62148405Y-30028387D01*
X62230472Y-29874851D01*
X62281008Y-29708255D01*
X62298072Y-29535001D01*
X62298072Y-28884999D01*
X62281008Y-28711745D01*
X62230472Y-28545149D01*
X62148405Y-28391613D01*
X62037962Y-28257038D01*
X61950184Y-28185000D01*
X62037962Y-28112962D01*
X62148405Y-27978387D01*
X62230472Y-27824851D01*
X62281008Y-27658255D01*
X62298072Y-27485001D01*
X62298072Y-26834999D01*
X62281008Y-26661745D01*
X62230472Y-26495149D01*
X62148405Y-26341613D01*
X62037962Y-26207038D01*
X61912500Y-26104074D01*
X61912500Y-26081784D01*
X61917108Y-26034999D01*
X61898717Y-25848277D01*
X61889272Y-25817140D01*
X61844252Y-25668731D01*
X61755806Y-25503259D01*
X61636778Y-25358222D01*
X61600431Y-25328393D01*
X61589520Y-25317482D01*
X69690444Y-25317482D01*
X70167501Y-25794539D01*
G37*
X70167501Y-25794539D02*
X70167501Y-26104073D01*
X70042038Y-26207038D01*
X69931595Y-26341613D01*
X69849528Y-26495149D01*
X69798992Y-26661745D01*
X69781928Y-26834999D01*
X69781928Y-27485001D01*
X69798992Y-27658255D01*
X69849528Y-27824851D01*
X69931595Y-27978387D01*
X70042038Y-28112962D01*
X70129816Y-28185000D01*
X70042038Y-28257038D01*
X69931595Y-28391613D01*
X69849528Y-28545149D01*
X69798992Y-28711745D01*
X69781928Y-28884999D01*
X69781928Y-29535001D01*
X69798992Y-29708255D01*
X69847501Y-29868168D01*
X69847500Y-31287242D01*
X69841438Y-31275899D01*
X69838717Y-31248277D01*
X69784252Y-31068731D01*
X69695806Y-30903259D01*
X69576778Y-30758222D01*
X69540426Y-30728389D01*
X69539932Y-30727894D01*
X69497205Y-30624744D01*
X69383937Y-30455226D01*
X69239774Y-30311063D01*
X69070256Y-30197795D01*
X68881898Y-30119774D01*
X68681939Y-30080000D01*
X68478061Y-30080000D01*
X68278102Y-30119774D01*
X68089744Y-30197795D01*
X67920226Y-30311063D01*
X67776063Y-30455226D01*
X67662795Y-30624744D01*
X67584774Y-30813102D01*
X67545000Y-31013061D01*
X67545000Y-31216939D01*
X67584774Y-31416898D01*
X67662795Y-31605256D01*
X67776063Y-31774774D01*
X67861928Y-31860639D01*
X67861928Y-33510000D01*
X67874188Y-33634482D01*
X67910498Y-33754180D01*
X67969463Y-33864494D01*
X68048815Y-33961185D01*
X68145506Y-34040537D01*
X68255820Y-34099502D01*
X68375518Y-34135812D01*
X68500000Y-34148072D01*
X69011905Y-34148072D01*
X68998815Y-34158815D01*
X68919463Y-34255506D01*
X68860498Y-34365820D01*
X68824188Y-34485518D01*
X68811928Y-34610000D01*
X68811928Y-36510000D01*
X68824188Y-36634482D01*
X68860498Y-36754180D01*
X68897500Y-36823405D01*
X68897501Y-40762392D01*
X68696525Y-40963368D01*
X68534010Y-41206589D01*
X68422068Y-41476842D01*
X68365000Y-41763740D01*
X68365000Y-42056260D01*
X68422068Y-42343158D01*
X68534010Y-42613411D01*
X68696525Y-42856632D01*
X68828380Y-42988487D01*
X68755820Y-43010498D01*
X68645506Y-43069463D01*
X68548815Y-43148815D01*
X68469463Y-43245506D01*
X68410498Y-43355820D01*
X68374188Y-43475518D01*
X68372023Y-43497500D01*
X64816785Y-43497500D01*
X64770000Y-43492892D01*
X64723215Y-43497500D01*
X61167977Y-43497500D01*
X61165812Y-43475518D01*
X61129502Y-43355820D01*
X61070537Y-43245506D01*
X60991185Y-43148815D01*
X60894494Y-43069463D01*
X60784180Y-43010498D01*
X60711620Y-42988487D01*
X60843475Y-42856632D01*
X61005990Y-42613411D01*
X61117932Y-42343158D01*
X61175000Y-42056260D01*
X61175000Y-41763740D01*
X61117932Y-41476842D01*
X61005990Y-41206589D01*
X60843475Y-40963368D01*
X60642500Y-40762393D01*
X60642500Y-36823405D01*
X60679502Y-36754180D01*
X60715812Y-36634482D01*
X60728072Y-36510000D01*
X60728072Y-34610000D01*
X60715812Y-34485518D01*
X60679502Y-34365820D01*
X60620537Y-34255506D01*
X60541185Y-34158815D01*
X60528095Y-34148072D01*
X61040000Y-34148072D01*
X61164482Y-34135812D01*
X61284180Y-34099502D01*
X61394494Y-34040537D01*
X61491185Y-33961185D01*
X61570537Y-33864494D01*
X61629502Y-33754180D01*
X61665812Y-33634482D01*
X61678072Y-33510000D01*
X61678072Y-31610000D01*
X61665812Y-31485518D01*
X61629502Y-31365820D01*
X61592500Y-31296595D01*
X61592500Y-30403204D01*
X61749851Y-30355472D01*
X61903387Y-30273405D01*
X62037962Y-30162962D01*
X62148405Y-30028387D01*
X62230472Y-29874851D01*
X62281008Y-29708255D01*
X62298072Y-29535001D01*
X62298072Y-28884999D01*
X62281008Y-28711745D01*
X62230472Y-28545149D01*
X62148405Y-28391613D01*
X62037962Y-28257038D01*
X61950184Y-28185000D01*
X62037962Y-28112962D01*
X62148405Y-27978387D01*
X62230472Y-27824851D01*
X62281008Y-27658255D01*
X62298072Y-27485001D01*
X62298072Y-26834999D01*
X62281008Y-26661745D01*
X62230472Y-26495149D01*
X62148405Y-26341613D01*
X62037962Y-26207038D01*
X61912500Y-26104074D01*
X61912500Y-26081784D01*
X61917108Y-26034999D01*
X61898717Y-25848277D01*
X61889272Y-25817140D01*
X61844252Y-25668731D01*
X61755806Y-25503259D01*
X61636778Y-25358222D01*
X61600431Y-25328393D01*
X61589520Y-25317482D01*
X69690444Y-25317482D01*
X70167501Y-25794539D01*
G36*
X80327501Y-25159539D02*
G01*
X80327500Y-26104073D01*
X80202038Y-26207038D01*
X80091595Y-26341613D01*
X80009528Y-26495149D01*
X79958992Y-26661745D01*
X79941928Y-26834999D01*
X79941928Y-27485001D01*
X79958992Y-27658255D01*
X80009528Y-27824851D01*
X80091595Y-27978387D01*
X80202038Y-28112962D01*
X80289816Y-28185000D01*
X80202038Y-28257038D01*
X80091595Y-28391613D01*
X80009528Y-28545149D01*
X79958992Y-28711745D01*
X79941928Y-28884999D01*
X79941928Y-29535001D01*
X79958992Y-29708255D01*
X80007501Y-29868168D01*
X80007500Y-31287242D01*
X80001438Y-31275899D01*
X79998717Y-31248277D01*
X79944252Y-31068731D01*
X79855806Y-30903259D01*
X79736778Y-30758222D01*
X79700426Y-30728389D01*
X79699932Y-30727894D01*
X79657205Y-30624744D01*
X79543937Y-30455226D01*
X79399774Y-30311063D01*
X79230256Y-30197795D01*
X79041898Y-30119774D01*
X78841939Y-30080000D01*
X78638061Y-30080000D01*
X78438102Y-30119774D01*
X78249744Y-30197795D01*
X78080226Y-30311063D01*
X77936063Y-30455226D01*
X77822795Y-30624744D01*
X77744774Y-30813102D01*
X77705000Y-31013061D01*
X77705000Y-31216939D01*
X77744774Y-31416898D01*
X77822795Y-31605256D01*
X77936063Y-31774774D01*
X78021928Y-31860639D01*
X78021928Y-33510000D01*
X78034188Y-33634482D01*
X78070498Y-33754180D01*
X78129463Y-33864494D01*
X78208815Y-33961185D01*
X78305506Y-34040537D01*
X78415820Y-34099502D01*
X78535518Y-34135812D01*
X78660000Y-34148072D01*
X79171905Y-34148072D01*
X79158815Y-34158815D01*
X79079463Y-34255506D01*
X79020498Y-34365820D01*
X78984188Y-34485518D01*
X78971928Y-34610000D01*
X78971928Y-36510000D01*
X78984188Y-36634482D01*
X79020498Y-36754180D01*
X79057501Y-36823406D01*
X79057500Y-40762393D01*
X78856525Y-40963368D01*
X78694010Y-41206589D01*
X78582068Y-41476842D01*
X78525000Y-41763740D01*
X78525000Y-42056260D01*
X78582068Y-42343158D01*
X78694010Y-42613411D01*
X78856525Y-42856632D01*
X78988380Y-42988487D01*
X78915820Y-43010498D01*
X78805506Y-43069463D01*
X78708815Y-43148815D01*
X78629463Y-43245506D01*
X78570498Y-43355820D01*
X78534188Y-43475518D01*
X78532023Y-43497500D01*
X71327977Y-43497500D01*
X71325812Y-43475518D01*
X71289502Y-43355820D01*
X71230537Y-43245506D01*
X71151185Y-43148815D01*
X71054494Y-43069463D01*
X70944180Y-43010498D01*
X70871620Y-42988487D01*
X71003475Y-42856632D01*
X71165990Y-42613411D01*
X71277932Y-42343158D01*
X71335000Y-42056260D01*
X71335000Y-41763740D01*
X71277932Y-41476842D01*
X71165990Y-41206589D01*
X71003475Y-40963368D01*
X70802500Y-40762393D01*
X70802500Y-36823405D01*
X70839502Y-36754180D01*
X70875812Y-36634482D01*
X70888072Y-36510000D01*
X70888072Y-34610000D01*
X70875812Y-34485518D01*
X70839502Y-34365820D01*
X70780537Y-34255506D01*
X70701185Y-34158815D01*
X70688095Y-34148072D01*
X71200000Y-34148072D01*
X71324482Y-34135812D01*
X71444180Y-34099502D01*
X71554494Y-34040537D01*
X71651185Y-33961185D01*
X71730537Y-33864494D01*
X71789502Y-33754180D01*
X71825812Y-33634482D01*
X71838072Y-33510000D01*
X71838072Y-31610000D01*
X71825812Y-31485518D01*
X71789502Y-31365820D01*
X71752500Y-31296595D01*
X71752500Y-30403204D01*
X71909851Y-30355472D01*
X72063387Y-30273405D01*
X72197962Y-30162962D01*
X72308405Y-30028387D01*
X72390472Y-29874851D01*
X72441008Y-29708255D01*
X72458072Y-29535001D01*
X72458072Y-28884999D01*
X72441008Y-28711745D01*
X72390472Y-28545149D01*
X72308405Y-28391613D01*
X72197962Y-28257038D01*
X72110184Y-28185000D01*
X72197962Y-28112962D01*
X72308405Y-27978387D01*
X72390472Y-27824851D01*
X72441008Y-27658255D01*
X72458072Y-27485001D01*
X72458072Y-26834999D01*
X72441008Y-26661745D01*
X72390472Y-26495149D01*
X72308405Y-26341613D01*
X72197962Y-26207038D01*
X72072500Y-26104074D01*
X72072500Y-25446784D01*
X72077108Y-25399999D01*
X72058717Y-25213277D01*
X72054686Y-25199990D01*
X72004252Y-25033731D01*
X71915806Y-24868259D01*
X71796778Y-24723222D01*
X71760431Y-24693393D01*
X71549509Y-24482471D01*
X79650433Y-24482471D01*
X80327501Y-25159539D01*
G37*
X80327501Y-25159539D02*
X80327500Y-26104073D01*
X80202038Y-26207038D01*
X80091595Y-26341613D01*
X80009528Y-26495149D01*
X79958992Y-26661745D01*
X79941928Y-26834999D01*
X79941928Y-27485001D01*
X79958992Y-27658255D01*
X80009528Y-27824851D01*
X80091595Y-27978387D01*
X80202038Y-28112962D01*
X80289816Y-28185000D01*
X80202038Y-28257038D01*
X80091595Y-28391613D01*
X80009528Y-28545149D01*
X79958992Y-28711745D01*
X79941928Y-28884999D01*
X79941928Y-29535001D01*
X79958992Y-29708255D01*
X80007501Y-29868168D01*
X80007500Y-31287242D01*
X80001438Y-31275899D01*
X79998717Y-31248277D01*
X79944252Y-31068731D01*
X79855806Y-30903259D01*
X79736778Y-30758222D01*
X79700426Y-30728389D01*
X79699932Y-30727894D01*
X79657205Y-30624744D01*
X79543937Y-30455226D01*
X79399774Y-30311063D01*
X79230256Y-30197795D01*
X79041898Y-30119774D01*
X78841939Y-30080000D01*
X78638061Y-30080000D01*
X78438102Y-30119774D01*
X78249744Y-30197795D01*
X78080226Y-30311063D01*
X77936063Y-30455226D01*
X77822795Y-30624744D01*
X77744774Y-30813102D01*
X77705000Y-31013061D01*
X77705000Y-31216939D01*
X77744774Y-31416898D01*
X77822795Y-31605256D01*
X77936063Y-31774774D01*
X78021928Y-31860639D01*
X78021928Y-33510000D01*
X78034188Y-33634482D01*
X78070498Y-33754180D01*
X78129463Y-33864494D01*
X78208815Y-33961185D01*
X78305506Y-34040537D01*
X78415820Y-34099502D01*
X78535518Y-34135812D01*
X78660000Y-34148072D01*
X79171905Y-34148072D01*
X79158815Y-34158815D01*
X79079463Y-34255506D01*
X79020498Y-34365820D01*
X78984188Y-34485518D01*
X78971928Y-34610000D01*
X78971928Y-36510000D01*
X78984188Y-36634482D01*
X79020498Y-36754180D01*
X79057501Y-36823406D01*
X79057500Y-40762393D01*
X78856525Y-40963368D01*
X78694010Y-41206589D01*
X78582068Y-41476842D01*
X78525000Y-41763740D01*
X78525000Y-42056260D01*
X78582068Y-42343158D01*
X78694010Y-42613411D01*
X78856525Y-42856632D01*
X78988380Y-42988487D01*
X78915820Y-43010498D01*
X78805506Y-43069463D01*
X78708815Y-43148815D01*
X78629463Y-43245506D01*
X78570498Y-43355820D01*
X78534188Y-43475518D01*
X78532023Y-43497500D01*
X71327977Y-43497500D01*
X71325812Y-43475518D01*
X71289502Y-43355820D01*
X71230537Y-43245506D01*
X71151185Y-43148815D01*
X71054494Y-43069463D01*
X70944180Y-43010498D01*
X70871620Y-42988487D01*
X71003475Y-42856632D01*
X71165990Y-42613411D01*
X71277932Y-42343158D01*
X71335000Y-42056260D01*
X71335000Y-41763740D01*
X71277932Y-41476842D01*
X71165990Y-41206589D01*
X71003475Y-40963368D01*
X70802500Y-40762393D01*
X70802500Y-36823405D01*
X70839502Y-36754180D01*
X70875812Y-36634482D01*
X70888072Y-36510000D01*
X70888072Y-34610000D01*
X70875812Y-34485518D01*
X70839502Y-34365820D01*
X70780537Y-34255506D01*
X70701185Y-34158815D01*
X70688095Y-34148072D01*
X71200000Y-34148072D01*
X71324482Y-34135812D01*
X71444180Y-34099502D01*
X71554494Y-34040537D01*
X71651185Y-33961185D01*
X71730537Y-33864494D01*
X71789502Y-33754180D01*
X71825812Y-33634482D01*
X71838072Y-33510000D01*
X71838072Y-31610000D01*
X71825812Y-31485518D01*
X71789502Y-31365820D01*
X71752500Y-31296595D01*
X71752500Y-30403204D01*
X71909851Y-30355472D01*
X72063387Y-30273405D01*
X72197962Y-30162962D01*
X72308405Y-30028387D01*
X72390472Y-29874851D01*
X72441008Y-29708255D01*
X72458072Y-29535001D01*
X72458072Y-28884999D01*
X72441008Y-28711745D01*
X72390472Y-28545149D01*
X72308405Y-28391613D01*
X72197962Y-28257038D01*
X72110184Y-28185000D01*
X72197962Y-28112962D01*
X72308405Y-27978387D01*
X72390472Y-27824851D01*
X72441008Y-27658255D01*
X72458072Y-27485001D01*
X72458072Y-26834999D01*
X72441008Y-26661745D01*
X72390472Y-26495149D01*
X72308405Y-26341613D01*
X72197962Y-26207038D01*
X72072500Y-26104074D01*
X72072500Y-25446784D01*
X72077108Y-25399999D01*
X72058717Y-25213277D01*
X72054686Y-25199990D01*
X72004252Y-25033731D01*
X71915806Y-24868259D01*
X71796778Y-24723222D01*
X71760431Y-24693393D01*
X71549509Y-24482471D01*
X79650433Y-24482471D01*
X80327501Y-25159539D01*
G36*
X59838298Y-26260336D02*
G01*
X59771595Y-26341613D01*
X59689528Y-26495149D01*
X59638992Y-26661745D01*
X59621928Y-26834999D01*
X59621928Y-27485001D01*
X59638992Y-27658255D01*
X59689528Y-27824851D01*
X59771595Y-27978387D01*
X59882038Y-28112962D01*
X59969816Y-28185000D01*
X59882038Y-28257038D01*
X59771595Y-28391613D01*
X59689528Y-28545149D01*
X59638992Y-28711745D01*
X59621928Y-28884999D01*
X59621928Y-29535001D01*
X59638992Y-29708255D01*
X59687501Y-29868168D01*
X59687500Y-31287242D01*
X59681438Y-31275899D01*
X59678717Y-31248277D01*
X59624252Y-31068731D01*
X59535806Y-30903259D01*
X59416778Y-30758222D01*
X59380426Y-30728389D01*
X59379932Y-30727894D01*
X59337205Y-30624744D01*
X59223937Y-30455226D01*
X59079774Y-30311063D01*
X58910256Y-30197795D01*
X58721898Y-30119774D01*
X58521939Y-30080000D01*
X58318061Y-30080000D01*
X58118102Y-30119774D01*
X57929744Y-30197795D01*
X57760226Y-30311063D01*
X57616063Y-30455226D01*
X57502795Y-30624744D01*
X57424774Y-30813102D01*
X57385000Y-31013061D01*
X57385000Y-31216939D01*
X57424774Y-31416898D01*
X57502795Y-31605256D01*
X57616063Y-31774774D01*
X57701928Y-31860639D01*
X57701928Y-33510000D01*
X57714188Y-33634482D01*
X57750498Y-33754180D01*
X57809463Y-33864494D01*
X57888815Y-33961185D01*
X57985506Y-34040537D01*
X58095820Y-34099502D01*
X58215518Y-34135812D01*
X58340000Y-34148072D01*
X58851905Y-34148072D01*
X58838815Y-34158815D01*
X58759463Y-34255506D01*
X58700498Y-34365820D01*
X58664188Y-34485518D01*
X58651928Y-34610000D01*
X58651928Y-36510000D01*
X58664188Y-36634482D01*
X58700498Y-36754180D01*
X58737500Y-36823405D01*
X58737501Y-40762392D01*
X58536525Y-40963368D01*
X58374010Y-41206589D01*
X58262068Y-41476842D01*
X58205000Y-41763740D01*
X58205000Y-42056260D01*
X58262068Y-42343158D01*
X58374010Y-42613411D01*
X58536525Y-42856632D01*
X58668380Y-42988487D01*
X58595820Y-43010498D01*
X58485506Y-43069463D01*
X58388815Y-43148815D01*
X58309463Y-43245506D01*
X58250498Y-43355820D01*
X58214188Y-43475518D01*
X58212023Y-43497500D01*
X51007977Y-43497500D01*
X51005812Y-43475518D01*
X50969502Y-43355820D01*
X50910537Y-43245506D01*
X50831185Y-43148815D01*
X50734494Y-43069463D01*
X50624180Y-43010498D01*
X50551620Y-42988487D01*
X50683475Y-42856632D01*
X50845990Y-42613411D01*
X50957932Y-42343158D01*
X51015000Y-42056260D01*
X51015000Y-41763740D01*
X50957932Y-41476842D01*
X50845990Y-41206589D01*
X50683475Y-40963368D01*
X50482500Y-40762393D01*
X50482500Y-36823405D01*
X50519502Y-36754180D01*
X50555812Y-36634482D01*
X50568072Y-36510000D01*
X50568072Y-34610000D01*
X50555812Y-34485518D01*
X50519502Y-34365820D01*
X50460537Y-34255506D01*
X50381185Y-34158815D01*
X50368095Y-34148072D01*
X50880000Y-34148072D01*
X51004482Y-34135812D01*
X51124180Y-34099502D01*
X51234494Y-34040537D01*
X51331185Y-33961185D01*
X51410537Y-33864494D01*
X51469502Y-33754180D01*
X51505812Y-33634482D01*
X51518072Y-33510000D01*
X51518072Y-31610000D01*
X51505812Y-31485518D01*
X51469502Y-31365820D01*
X51432500Y-31296595D01*
X51432500Y-30403204D01*
X51589851Y-30355472D01*
X51743387Y-30273405D01*
X51877962Y-30162962D01*
X51988405Y-30028387D01*
X52070472Y-29874851D01*
X52121008Y-29708255D01*
X52138072Y-29535001D01*
X52138072Y-28884999D01*
X52121008Y-28711745D01*
X52070472Y-28545149D01*
X51988405Y-28391613D01*
X51877962Y-28257038D01*
X51790184Y-28185000D01*
X51877962Y-28112962D01*
X51988405Y-27978387D01*
X52070472Y-27824851D01*
X52121008Y-27658255D01*
X52138072Y-27485001D01*
X52138072Y-26834999D01*
X52121008Y-26661745D01*
X52070472Y-26495149D01*
X51988405Y-26341613D01*
X51877962Y-26207038D01*
X51811495Y-26152490D01*
X59730451Y-26152489D01*
X59838298Y-26260336D01*
G37*
X59838298Y-26260336D02*
X59771595Y-26341613D01*
X59689528Y-26495149D01*
X59638992Y-26661745D01*
X59621928Y-26834999D01*
X59621928Y-27485001D01*
X59638992Y-27658255D01*
X59689528Y-27824851D01*
X59771595Y-27978387D01*
X59882038Y-28112962D01*
X59969816Y-28185000D01*
X59882038Y-28257038D01*
X59771595Y-28391613D01*
X59689528Y-28545149D01*
X59638992Y-28711745D01*
X59621928Y-28884999D01*
X59621928Y-29535001D01*
X59638992Y-29708255D01*
X59687501Y-29868168D01*
X59687500Y-31287242D01*
X59681438Y-31275899D01*
X59678717Y-31248277D01*
X59624252Y-31068731D01*
X59535806Y-30903259D01*
X59416778Y-30758222D01*
X59380426Y-30728389D01*
X59379932Y-30727894D01*
X59337205Y-30624744D01*
X59223937Y-30455226D01*
X59079774Y-30311063D01*
X58910256Y-30197795D01*
X58721898Y-30119774D01*
X58521939Y-30080000D01*
X58318061Y-30080000D01*
X58118102Y-30119774D01*
X57929744Y-30197795D01*
X57760226Y-30311063D01*
X57616063Y-30455226D01*
X57502795Y-30624744D01*
X57424774Y-30813102D01*
X57385000Y-31013061D01*
X57385000Y-31216939D01*
X57424774Y-31416898D01*
X57502795Y-31605256D01*
X57616063Y-31774774D01*
X57701928Y-31860639D01*
X57701928Y-33510000D01*
X57714188Y-33634482D01*
X57750498Y-33754180D01*
X57809463Y-33864494D01*
X57888815Y-33961185D01*
X57985506Y-34040537D01*
X58095820Y-34099502D01*
X58215518Y-34135812D01*
X58340000Y-34148072D01*
X58851905Y-34148072D01*
X58838815Y-34158815D01*
X58759463Y-34255506D01*
X58700498Y-34365820D01*
X58664188Y-34485518D01*
X58651928Y-34610000D01*
X58651928Y-36510000D01*
X58664188Y-36634482D01*
X58700498Y-36754180D01*
X58737500Y-36823405D01*
X58737501Y-40762392D01*
X58536525Y-40963368D01*
X58374010Y-41206589D01*
X58262068Y-41476842D01*
X58205000Y-41763740D01*
X58205000Y-42056260D01*
X58262068Y-42343158D01*
X58374010Y-42613411D01*
X58536525Y-42856632D01*
X58668380Y-42988487D01*
X58595820Y-43010498D01*
X58485506Y-43069463D01*
X58388815Y-43148815D01*
X58309463Y-43245506D01*
X58250498Y-43355820D01*
X58214188Y-43475518D01*
X58212023Y-43497500D01*
X51007977Y-43497500D01*
X51005812Y-43475518D01*
X50969502Y-43355820D01*
X50910537Y-43245506D01*
X50831185Y-43148815D01*
X50734494Y-43069463D01*
X50624180Y-43010498D01*
X50551620Y-42988487D01*
X50683475Y-42856632D01*
X50845990Y-42613411D01*
X50957932Y-42343158D01*
X51015000Y-42056260D01*
X51015000Y-41763740D01*
X50957932Y-41476842D01*
X50845990Y-41206589D01*
X50683475Y-40963368D01*
X50482500Y-40762393D01*
X50482500Y-36823405D01*
X50519502Y-36754180D01*
X50555812Y-36634482D01*
X50568072Y-36510000D01*
X50568072Y-34610000D01*
X50555812Y-34485518D01*
X50519502Y-34365820D01*
X50460537Y-34255506D01*
X50381185Y-34158815D01*
X50368095Y-34148072D01*
X50880000Y-34148072D01*
X51004482Y-34135812D01*
X51124180Y-34099502D01*
X51234494Y-34040537D01*
X51331185Y-33961185D01*
X51410537Y-33864494D01*
X51469502Y-33754180D01*
X51505812Y-33634482D01*
X51518072Y-33510000D01*
X51518072Y-31610000D01*
X51505812Y-31485518D01*
X51469502Y-31365820D01*
X51432500Y-31296595D01*
X51432500Y-30403204D01*
X51589851Y-30355472D01*
X51743387Y-30273405D01*
X51877962Y-30162962D01*
X51988405Y-30028387D01*
X52070472Y-29874851D01*
X52121008Y-29708255D01*
X52138072Y-29535001D01*
X52138072Y-28884999D01*
X52121008Y-28711745D01*
X52070472Y-28545149D01*
X51988405Y-28391613D01*
X51877962Y-28257038D01*
X51790184Y-28185000D01*
X51877962Y-28112962D01*
X51988405Y-27978387D01*
X52070472Y-27824851D01*
X52121008Y-27658255D01*
X52138072Y-27485001D01*
X52138072Y-26834999D01*
X52121008Y-26661745D01*
X52070472Y-26495149D01*
X51988405Y-26341613D01*
X51877962Y-26207038D01*
X51811495Y-26152490D01*
X59730451Y-26152489D01*
X59838298Y-26260336D01*
%TD*%
M02*
