%TF.GenerationSoftware,KiCad,Pcbnew,(5.1.6)-1*%
%TF.CreationDate,2021-04-07T17:42:24+02:00*%
%TF.ProjectId,constant_current,636f6e73-7461-46e7-945f-63757272656e,rev?*%
%TF.SameCoordinates,Original*%
%TF.FileFunction,Copper,L2,Bot*%
%TF.FilePolarity,Positive*%
%FSLAX46Y46*%
G04 Gerber Fmt 4.6, Leading zero omitted, Abs format (unit mm)*
G04 Created by KiCad (PCBNEW (5.1.6)-1) date 2021-04-07 17:42:24*
%MOMM*%
%LPD*%
G01*
G04 APERTURE LIST*
%TA.AperFunction,ComponentPad*%
%ADD10R,1.700000X1.700000*%
%TD*%
%TA.AperFunction,ComponentPad*%
%ADD11O,1.700000X1.700000*%
%TD*%
%TA.AperFunction,ViaPad*%
%ADD12C,0.800000*%
%TD*%
%TA.AperFunction,Conductor*%
%ADD13C,0.635000*%
%TD*%
%TA.AperFunction,Conductor*%
%ADD14C,0.254000*%
%TD*%
G04 APERTURE END LIST*
D10*
%TO.P,J1,1*%
%TO.N,+5V*%
X38100000Y-30480000D03*
D11*
%TO.P,J1,2*%
%TO.N,GND*%
X38100000Y-33020000D03*
%TO.P,J1,3*%
%TO.N,pwm*%
X38100000Y-35560000D03*
%TD*%
%TO.P,LED,2*%
%TO.N,+5V*%
X90805000Y-41910000D03*
D10*
%TO.P,LED,1*%
%TO.N,Net-(J2-Pad1)*%
X90805000Y-44450000D03*
%TD*%
%TO.P,LED,1*%
%TO.N,Net-(J3-Pad1)*%
X102235000Y-44450000D03*
D11*
%TO.P,LED,2*%
%TO.N,+5V*%
X102235000Y-41910000D03*
%TD*%
D10*
%TO.P,J4,1*%
%TO.N,~A*%
X38100000Y-50165000D03*
D11*
%TO.P,J4,2*%
%TO.N,~B*%
X38100000Y-47625000D03*
%TO.P,J4,3*%
%TO.N,~C*%
X38100000Y-45085000D03*
%TO.P,J4,4*%
%TO.N,~D*%
X38100000Y-42545000D03*
%TD*%
%TO.P,J5,4*%
%TO.N,D*%
X38100000Y-71120000D03*
%TO.P,J5,3*%
%TO.N,C*%
X38100000Y-68580000D03*
%TO.P,J5,2*%
%TO.N,B*%
X38100000Y-66040000D03*
D10*
%TO.P,J5,1*%
%TO.N,A*%
X38100000Y-63500000D03*
%TD*%
D11*
%TO.P,LED A,2*%
%TO.N,Net-(J6-Pad2)*%
X49530000Y-41910000D03*
D10*
%TO.P,LED A,1*%
%TO.N,Net-(J6-Pad1)*%
X49530000Y-44450000D03*
%TD*%
%TO.P,LED B,1*%
%TO.N,Net-(J6-Pad1)*%
X59690000Y-44450000D03*
D11*
%TO.P,LED B,2*%
%TO.N,Net-(J7-Pad2)*%
X59690000Y-41910000D03*
%TD*%
%TO.P,LED C,2*%
%TO.N,Net-(J8-Pad2)*%
X69850000Y-41910000D03*
D10*
%TO.P,LED C,1*%
%TO.N,Net-(J6-Pad1)*%
X69850000Y-44450000D03*
%TD*%
%TO.P,LED D,1*%
%TO.N,Net-(J6-Pad1)*%
X80010000Y-44450000D03*
D11*
%TO.P,LED D,2*%
%TO.N,Net-(J9-Pad2)*%
X80010000Y-41910000D03*
%TD*%
D12*
%TO.N,GND*%
X104140000Y-25400000D03*
X104140000Y-48260000D03*
X104140000Y-63500000D03*
X104140000Y-66040000D03*
X104140000Y-68580000D03*
X104140000Y-71120000D03*
X104140000Y-73660000D03*
X104140000Y-76200000D03*
X104140000Y-78740000D03*
%TO.N,+5V*%
X48260000Y-31115000D03*
X58420000Y-31115000D03*
X68580000Y-31115000D03*
X78740000Y-31115000D03*
%TO.N,GND*%
X38100000Y-53340000D03*
X38100000Y-55880000D03*
X38100000Y-58420000D03*
X38100000Y-60960000D03*
X40640000Y-60960000D03*
X43180000Y-60960000D03*
X45720000Y-60960000D03*
X45720000Y-58420000D03*
X43180000Y-58420000D03*
X40640000Y-58420000D03*
X40640000Y-55880000D03*
X40640000Y-53340000D03*
X43180000Y-53340000D03*
X43180000Y-55880000D03*
X45720000Y-55880000D03*
X45720000Y-53340000D03*
X48260000Y-55880000D03*
X48260000Y-58420000D03*
X50800000Y-58420000D03*
X50800000Y-55880000D03*
X53340000Y-55880000D03*
X53340000Y-58420000D03*
X55880000Y-58420000D03*
X55880000Y-55880000D03*
X58420000Y-55880000D03*
X58420000Y-58420000D03*
X60960000Y-58420000D03*
X45720000Y-50800000D03*
X43180000Y-50800000D03*
X40640000Y-50800000D03*
X43180000Y-48260000D03*
X45720000Y-48260000D03*
X43180000Y-45720000D03*
X68580000Y-58420000D03*
X68580000Y-55880000D03*
X68580000Y-53340000D03*
X68580000Y-50800000D03*
X68580000Y-48260000D03*
X71120000Y-48260000D03*
X73660000Y-48260000D03*
X76200000Y-48260000D03*
X78740000Y-48260000D03*
X81280000Y-48260000D03*
X81280000Y-50800000D03*
X81280000Y-53340000D03*
X81280000Y-55880000D03*
X81280000Y-58420000D03*
X78740000Y-58420000D03*
X76200000Y-58420000D03*
X73660000Y-58420000D03*
X71120000Y-58420000D03*
X71120000Y-55880000D03*
X73660000Y-55880000D03*
X76200000Y-55880000D03*
X78740000Y-55880000D03*
X78740000Y-53340000D03*
X76200000Y-53340000D03*
X73660000Y-53340000D03*
X71120000Y-53340000D03*
X71120000Y-50800000D03*
X73660000Y-50800000D03*
X76200000Y-50800000D03*
X78740000Y-50800000D03*
X66040000Y-48260000D03*
X63500000Y-48260000D03*
X60960000Y-48260000D03*
X58420000Y-48260000D03*
X55880000Y-48260000D03*
X55880000Y-50800000D03*
X58420000Y-50800000D03*
X60960000Y-50800000D03*
X63500000Y-50800000D03*
X83820000Y-55880000D03*
X86360000Y-55880000D03*
X88900000Y-55880000D03*
X91440000Y-58420000D03*
X88900000Y-58420000D03*
X86360000Y-58420000D03*
X83820000Y-58420000D03*
X83820000Y-60960000D03*
X86360000Y-60960000D03*
X88900000Y-60960000D03*
X91440000Y-60960000D03*
X96520000Y-60960000D03*
X96520000Y-58420000D03*
X99060000Y-58420000D03*
X99060000Y-60960000D03*
X101600000Y-63500000D03*
X101600000Y-68580000D03*
X101600000Y-66040000D03*
X101600000Y-71120000D03*
X101600000Y-73660000D03*
X101600000Y-76200000D03*
X96520000Y-76200000D03*
X101600000Y-78740000D03*
X99060000Y-78740000D03*
X96520000Y-78740000D03*
X91440000Y-78740000D03*
X93980000Y-78740000D03*
X88900000Y-78740000D03*
X83820000Y-78740000D03*
X86360000Y-78740000D03*
X81280000Y-78740000D03*
X81280000Y-76200000D03*
X83820000Y-76200000D03*
X81280000Y-73660000D03*
X83820000Y-73660000D03*
X83820000Y-71120000D03*
X83820000Y-68580000D03*
X83820000Y-66040000D03*
X83820000Y-63500000D03*
X86360000Y-63500000D03*
X86360000Y-66040000D03*
X86360000Y-68580000D03*
X86360000Y-71120000D03*
X86360000Y-73660000D03*
X86360000Y-76200000D03*
X88900000Y-76200000D03*
X88900000Y-73660000D03*
X88900000Y-71120000D03*
X88900000Y-68580000D03*
X88900000Y-66040000D03*
X88900000Y-63500000D03*
X91440000Y-63500000D03*
X91440000Y-66040000D03*
X91440000Y-68580000D03*
X91440000Y-71120000D03*
X91440000Y-73660000D03*
X91440000Y-76200000D03*
X93980000Y-76200000D03*
X93980000Y-73660000D03*
X96520000Y-73660000D03*
X99060000Y-73660000D03*
X99060000Y-76200000D03*
X99060000Y-71120000D03*
X96520000Y-71120000D03*
X93980000Y-71120000D03*
X93980000Y-68580000D03*
X96520000Y-68580000D03*
X99060000Y-68580000D03*
X99060000Y-66040000D03*
X96520000Y-66040000D03*
X93980000Y-66040000D03*
X93980000Y-63500000D03*
X96520000Y-63500000D03*
X99060000Y-63500000D03*
X99060000Y-55880000D03*
X96520000Y-55880000D03*
X96520000Y-53340000D03*
X96520000Y-50800000D03*
X99060000Y-45720000D03*
X96520000Y-45720000D03*
X86360000Y-45720000D03*
X83820000Y-45720000D03*
X83820000Y-43180000D03*
X86360000Y-43180000D03*
X86360000Y-40640000D03*
X83820000Y-40640000D03*
X83820000Y-38100000D03*
X86360000Y-38100000D03*
X86360000Y-35560000D03*
X83820000Y-35560000D03*
X83820000Y-33020000D03*
X86360000Y-33020000D03*
X76200000Y-33020000D03*
X73660000Y-33020000D03*
X73660000Y-35560000D03*
X73660000Y-38100000D03*
X73660000Y-40640000D03*
X73660000Y-43180000D03*
X76200000Y-43180000D03*
X76200000Y-40640000D03*
X76200000Y-38100000D03*
X76200000Y-35560000D03*
X66040000Y-33020000D03*
X63500000Y-33020000D03*
X63500000Y-35560000D03*
X63500000Y-38100000D03*
X63500000Y-40640000D03*
X63500000Y-43180000D03*
X66040000Y-43180000D03*
X66040000Y-40640000D03*
X66040000Y-38100000D03*
X66040000Y-35560000D03*
X55880000Y-33020000D03*
X53340000Y-33020000D03*
X53340000Y-35560000D03*
X55880000Y-35560000D03*
X55880000Y-38100000D03*
X53340000Y-38100000D03*
X53340000Y-40640000D03*
X55880000Y-40640000D03*
X55880000Y-43180000D03*
X53340000Y-43180000D03*
X45720000Y-33020000D03*
X45720000Y-35560000D03*
X40640000Y-33020000D03*
X38100000Y-25400000D03*
X40640000Y-25400000D03*
X83820000Y-25400000D03*
X78740000Y-25400000D03*
X76200000Y-25400000D03*
X73660000Y-25400000D03*
X86360000Y-25400000D03*
X88900000Y-25400000D03*
X91440000Y-25400000D03*
X93980000Y-25400000D03*
X96520000Y-25400000D03*
X99060000Y-25400000D03*
X101600000Y-25400000D03*
X76200000Y-63500000D03*
X76200000Y-66040000D03*
X76200000Y-68580000D03*
X76200000Y-71120000D03*
X76200000Y-73660000D03*
X76200000Y-76200000D03*
X73660000Y-76200000D03*
X73660000Y-73660000D03*
X71120000Y-73660000D03*
X71120000Y-76200000D03*
X73660000Y-71120000D03*
X73660000Y-68580000D03*
X73660000Y-66040000D03*
X73660000Y-63500000D03*
X66040000Y-63500000D03*
X66040000Y-66040000D03*
X66040000Y-68580000D03*
X66040000Y-71120000D03*
X66040000Y-73660000D03*
X66040000Y-76200000D03*
X63500000Y-76200000D03*
X60960000Y-76200000D03*
X60960000Y-73660000D03*
X63500000Y-73660000D03*
X63500000Y-71120000D03*
X63500000Y-68580000D03*
X63500000Y-66040000D03*
X63500000Y-63500000D03*
X55880000Y-63500000D03*
X55880000Y-66040000D03*
X55880000Y-68580000D03*
X55880000Y-71120000D03*
X55880000Y-73660000D03*
X55880000Y-76200000D03*
X53340000Y-76200000D03*
X50800000Y-76200000D03*
X50800000Y-73660000D03*
X53340000Y-73660000D03*
X53340000Y-71120000D03*
X53340000Y-68580000D03*
X53340000Y-66040000D03*
X53340000Y-63500000D03*
X45720000Y-63500000D03*
X45720000Y-66040000D03*
X45720000Y-68580000D03*
X43180000Y-66040000D03*
X43180000Y-63500000D03*
X38100000Y-76200000D03*
X38100000Y-78740000D03*
X40640000Y-78740000D03*
X40640000Y-76200000D03*
X40640000Y-73660000D03*
X38100000Y-73660000D03*
%TO.N,pwm*%
X85580000Y-48895000D03*
X50020000Y-48895000D03*
%TO.N,Net-(J2-Pad1)*%
X93980000Y-50165000D03*
%TD*%
D13*
%TO.N,pwm*%
X38100000Y-35560000D02*
X43180000Y-35560000D01*
X43180000Y-35560000D02*
X45720000Y-38100000D01*
X83675000Y-46990000D02*
X85580000Y-48895000D01*
X48260000Y-46990000D02*
X83675000Y-46990000D01*
X48260000Y-46990000D02*
X45720000Y-44450000D01*
X45720000Y-38100000D02*
X45720000Y-44450000D01*
X48260000Y-46990000D02*
X49530000Y-48260000D01*
X49530000Y-48260000D02*
X49530000Y-48405000D01*
X49530000Y-48405000D02*
X50020000Y-48895000D01*
%TO.N,Net-(J2-Pad1)*%
X93980000Y-50165000D02*
X93980000Y-45720000D01*
X92710000Y-44450000D02*
X90805000Y-44450000D01*
X93980000Y-45720000D02*
X92710000Y-44450000D01*
%TD*%
D14*
%TO.N,+5V*%
G36*
X102675189Y-26814376D02*
G01*
X102838850Y-26864022D01*
X102989672Y-26944638D01*
X103121870Y-27053130D01*
X103230362Y-27185328D01*
X103310978Y-27336150D01*
X103360624Y-27499811D01*
X103378000Y-27676234D01*
X103378000Y-40970614D01*
X103332588Y-40909731D01*
X103116355Y-40714822D01*
X102866252Y-40565843D01*
X102591891Y-40468519D01*
X102362000Y-40589186D01*
X102362000Y-41783000D01*
X102382000Y-41783000D01*
X102382000Y-42037000D01*
X102362000Y-42037000D01*
X102362000Y-42057000D01*
X102108000Y-42057000D01*
X102108000Y-42037000D01*
X100914845Y-42037000D01*
X100793524Y-42266890D01*
X100838175Y-42414099D01*
X100963359Y-42676920D01*
X101137412Y-42910269D01*
X101221466Y-42986034D01*
X101140820Y-43010498D01*
X101061306Y-43053000D01*
X91978694Y-43053000D01*
X91899180Y-43010498D01*
X91818534Y-42986034D01*
X91902588Y-42910269D01*
X92076641Y-42676920D01*
X92201825Y-42414099D01*
X92246476Y-42266890D01*
X92125155Y-42037000D01*
X90932000Y-42037000D01*
X90932000Y-42057000D01*
X90678000Y-42057000D01*
X90678000Y-42037000D01*
X90658000Y-42037000D01*
X90658000Y-41783000D01*
X90678000Y-41783000D01*
X90678000Y-40589186D01*
X90932000Y-40589186D01*
X90932000Y-41783000D01*
X92125155Y-41783000D01*
X92246476Y-41553110D01*
X100793524Y-41553110D01*
X100914845Y-41783000D01*
X102108000Y-41783000D01*
X102108000Y-40589186D01*
X101878109Y-40468519D01*
X101603748Y-40565843D01*
X101353645Y-40714822D01*
X101137412Y-40909731D01*
X100963359Y-41143080D01*
X100838175Y-41405901D01*
X100793524Y-41553110D01*
X92246476Y-41553110D01*
X92201825Y-41405901D01*
X92076641Y-41143080D01*
X91902588Y-40909731D01*
X91686355Y-40714822D01*
X91436252Y-40565843D01*
X91161891Y-40468519D01*
X90932000Y-40589186D01*
X90678000Y-40589186D01*
X90448109Y-40468519D01*
X90173748Y-40565843D01*
X89923645Y-40714822D01*
X89707412Y-40909731D01*
X89662000Y-40970614D01*
X89662000Y-32750000D01*
X89661388Y-32737552D01*
X89642173Y-32542462D01*
X89637317Y-32518044D01*
X89580412Y-32330451D01*
X89570884Y-32307450D01*
X89478474Y-32134563D01*
X89464642Y-32113862D01*
X89340279Y-31962325D01*
X89322675Y-31944721D01*
X89171138Y-31820358D01*
X89150437Y-31806526D01*
X88977550Y-31714116D01*
X88954549Y-31704588D01*
X88766956Y-31647683D01*
X88742538Y-31642827D01*
X88547448Y-31623612D01*
X88535000Y-31623000D01*
X39513407Y-31623000D01*
X39539502Y-31574180D01*
X39575812Y-31454482D01*
X39588072Y-31330000D01*
X39585000Y-30765750D01*
X39426250Y-30607000D01*
X38227000Y-30607000D01*
X38227000Y-30627000D01*
X37973000Y-30627000D01*
X37973000Y-30607000D01*
X37953000Y-30607000D01*
X37953000Y-30353000D01*
X37973000Y-30353000D01*
X37973000Y-29153750D01*
X38227000Y-29153750D01*
X38227000Y-30353000D01*
X39426250Y-30353000D01*
X39585000Y-30194250D01*
X39588072Y-29630000D01*
X39575812Y-29505518D01*
X39539502Y-29385820D01*
X39480537Y-29275506D01*
X39401185Y-29178815D01*
X39304494Y-29099463D01*
X39194180Y-29040498D01*
X39074482Y-29004188D01*
X38950000Y-28991928D01*
X38385750Y-28995000D01*
X38227000Y-29153750D01*
X37973000Y-29153750D01*
X37814250Y-28995000D01*
X37250000Y-28991928D01*
X37125518Y-29004188D01*
X37005820Y-29040498D01*
X36957000Y-29066593D01*
X36957000Y-27676234D01*
X36974376Y-27499811D01*
X37024022Y-27336150D01*
X37104638Y-27185328D01*
X37213130Y-27053130D01*
X37345328Y-26944638D01*
X37496150Y-26864022D01*
X37659811Y-26814376D01*
X37836234Y-26797000D01*
X102498766Y-26797000D01*
X102675189Y-26814376D01*
G37*
X102675189Y-26814376D02*
X102838850Y-26864022D01*
X102989672Y-26944638D01*
X103121870Y-27053130D01*
X103230362Y-27185328D01*
X103310978Y-27336150D01*
X103360624Y-27499811D01*
X103378000Y-27676234D01*
X103378000Y-40970614D01*
X103332588Y-40909731D01*
X103116355Y-40714822D01*
X102866252Y-40565843D01*
X102591891Y-40468519D01*
X102362000Y-40589186D01*
X102362000Y-41783000D01*
X102382000Y-41783000D01*
X102382000Y-42037000D01*
X102362000Y-42037000D01*
X102362000Y-42057000D01*
X102108000Y-42057000D01*
X102108000Y-42037000D01*
X100914845Y-42037000D01*
X100793524Y-42266890D01*
X100838175Y-42414099D01*
X100963359Y-42676920D01*
X101137412Y-42910269D01*
X101221466Y-42986034D01*
X101140820Y-43010498D01*
X101061306Y-43053000D01*
X91978694Y-43053000D01*
X91899180Y-43010498D01*
X91818534Y-42986034D01*
X91902588Y-42910269D01*
X92076641Y-42676920D01*
X92201825Y-42414099D01*
X92246476Y-42266890D01*
X92125155Y-42037000D01*
X90932000Y-42037000D01*
X90932000Y-42057000D01*
X90678000Y-42057000D01*
X90678000Y-42037000D01*
X90658000Y-42037000D01*
X90658000Y-41783000D01*
X90678000Y-41783000D01*
X90678000Y-40589186D01*
X90932000Y-40589186D01*
X90932000Y-41783000D01*
X92125155Y-41783000D01*
X92246476Y-41553110D01*
X100793524Y-41553110D01*
X100914845Y-41783000D01*
X102108000Y-41783000D01*
X102108000Y-40589186D01*
X101878109Y-40468519D01*
X101603748Y-40565843D01*
X101353645Y-40714822D01*
X101137412Y-40909731D01*
X100963359Y-41143080D01*
X100838175Y-41405901D01*
X100793524Y-41553110D01*
X92246476Y-41553110D01*
X92201825Y-41405901D01*
X92076641Y-41143080D01*
X91902588Y-40909731D01*
X91686355Y-40714822D01*
X91436252Y-40565843D01*
X91161891Y-40468519D01*
X90932000Y-40589186D01*
X90678000Y-40589186D01*
X90448109Y-40468519D01*
X90173748Y-40565843D01*
X89923645Y-40714822D01*
X89707412Y-40909731D01*
X89662000Y-40970614D01*
X89662000Y-32750000D01*
X89661388Y-32737552D01*
X89642173Y-32542462D01*
X89637317Y-32518044D01*
X89580412Y-32330451D01*
X89570884Y-32307450D01*
X89478474Y-32134563D01*
X89464642Y-32113862D01*
X89340279Y-31962325D01*
X89322675Y-31944721D01*
X89171138Y-31820358D01*
X89150437Y-31806526D01*
X88977550Y-31714116D01*
X88954549Y-31704588D01*
X88766956Y-31647683D01*
X88742538Y-31642827D01*
X88547448Y-31623612D01*
X88535000Y-31623000D01*
X39513407Y-31623000D01*
X39539502Y-31574180D01*
X39575812Y-31454482D01*
X39588072Y-31330000D01*
X39585000Y-30765750D01*
X39426250Y-30607000D01*
X38227000Y-30607000D01*
X38227000Y-30627000D01*
X37973000Y-30627000D01*
X37973000Y-30607000D01*
X37953000Y-30607000D01*
X37953000Y-30353000D01*
X37973000Y-30353000D01*
X37973000Y-29153750D01*
X38227000Y-29153750D01*
X38227000Y-30353000D01*
X39426250Y-30353000D01*
X39585000Y-30194250D01*
X39588072Y-29630000D01*
X39575812Y-29505518D01*
X39539502Y-29385820D01*
X39480537Y-29275506D01*
X39401185Y-29178815D01*
X39304494Y-29099463D01*
X39194180Y-29040498D01*
X39074482Y-29004188D01*
X38950000Y-28991928D01*
X38385750Y-28995000D01*
X38227000Y-29153750D01*
X37973000Y-29153750D01*
X37814250Y-28995000D01*
X37250000Y-28991928D01*
X37125518Y-29004188D01*
X37005820Y-29040498D01*
X36957000Y-29066593D01*
X36957000Y-27676234D01*
X36974376Y-27499811D01*
X37024022Y-27336150D01*
X37104638Y-27185328D01*
X37213130Y-27053130D01*
X37345328Y-26944638D01*
X37496150Y-26864022D01*
X37659811Y-26814376D01*
X37836234Y-26797000D01*
X102498766Y-26797000D01*
X102675189Y-26814376D01*
%TO.N,GND*%
G36*
X103234545Y-23558909D02*
G01*
X103585208Y-23664780D01*
X103908625Y-23836744D01*
X104192484Y-24068254D01*
X104425965Y-24350486D01*
X104600183Y-24672695D01*
X104708502Y-25022614D01*
X104750000Y-25417443D01*
X104750001Y-78707711D01*
X104711091Y-79104545D01*
X104605220Y-79455206D01*
X104433257Y-79778623D01*
X104201748Y-80062482D01*
X103919514Y-80295965D01*
X103597304Y-80470184D01*
X103247385Y-80578502D01*
X102852557Y-80620000D01*
X38132279Y-80620000D01*
X37735455Y-80581091D01*
X37384794Y-80475220D01*
X37061377Y-80303257D01*
X36777518Y-80071748D01*
X36544035Y-79789514D01*
X36369816Y-79467304D01*
X36261498Y-79117385D01*
X36220000Y-78722557D01*
X36220000Y-62650000D01*
X36611928Y-62650000D01*
X36611928Y-64350000D01*
X36624188Y-64474482D01*
X36660498Y-64594180D01*
X36719463Y-64704494D01*
X36798815Y-64801185D01*
X36895506Y-64880537D01*
X37005820Y-64939502D01*
X37078380Y-64961513D01*
X36946525Y-65093368D01*
X36784010Y-65336589D01*
X36672068Y-65606842D01*
X36615000Y-65893740D01*
X36615000Y-66186260D01*
X36672068Y-66473158D01*
X36784010Y-66743411D01*
X36946525Y-66986632D01*
X37153368Y-67193475D01*
X37327760Y-67310000D01*
X37153368Y-67426525D01*
X36946525Y-67633368D01*
X36784010Y-67876589D01*
X36672068Y-68146842D01*
X36615000Y-68433740D01*
X36615000Y-68726260D01*
X36672068Y-69013158D01*
X36784010Y-69283411D01*
X36946525Y-69526632D01*
X37153368Y-69733475D01*
X37327760Y-69850000D01*
X37153368Y-69966525D01*
X36946525Y-70173368D01*
X36784010Y-70416589D01*
X36672068Y-70686842D01*
X36615000Y-70973740D01*
X36615000Y-71266260D01*
X36672068Y-71553158D01*
X36784010Y-71823411D01*
X36946525Y-72066632D01*
X37153368Y-72273475D01*
X37396589Y-72435990D01*
X37666842Y-72547932D01*
X37953740Y-72605000D01*
X38246260Y-72605000D01*
X38533158Y-72547932D01*
X38803411Y-72435990D01*
X39046632Y-72273475D01*
X39253475Y-72066632D01*
X39415990Y-71823411D01*
X39527932Y-71553158D01*
X39585000Y-71266260D01*
X39585000Y-70973740D01*
X39527932Y-70686842D01*
X39415990Y-70416589D01*
X39253475Y-70173368D01*
X39046632Y-69966525D01*
X38872240Y-69850000D01*
X39046632Y-69733475D01*
X39253475Y-69526632D01*
X39415990Y-69283411D01*
X39527932Y-69013158D01*
X39585000Y-68726260D01*
X39585000Y-68433740D01*
X39527932Y-68146842D01*
X39415990Y-67876589D01*
X39253475Y-67633368D01*
X39046632Y-67426525D01*
X38872240Y-67310000D01*
X39046632Y-67193475D01*
X39253475Y-66986632D01*
X39415990Y-66743411D01*
X39527932Y-66473158D01*
X39585000Y-66186260D01*
X39585000Y-65893740D01*
X39527932Y-65606842D01*
X39415990Y-65336589D01*
X39253475Y-65093368D01*
X39121620Y-64961513D01*
X39194180Y-64939502D01*
X39304494Y-64880537D01*
X39401185Y-64801185D01*
X39480537Y-64704494D01*
X39539502Y-64594180D01*
X39575812Y-64474482D01*
X39588072Y-64350000D01*
X39588072Y-62650000D01*
X39575812Y-62525518D01*
X39539502Y-62405820D01*
X39480537Y-62295506D01*
X39401185Y-62198815D01*
X39304494Y-62119463D01*
X39194180Y-62060498D01*
X39074482Y-62024188D01*
X38950000Y-62011928D01*
X37250000Y-62011928D01*
X37125518Y-62024188D01*
X37005820Y-62060498D01*
X36895506Y-62119463D01*
X36798815Y-62198815D01*
X36719463Y-62295506D01*
X36660498Y-62405820D01*
X36624188Y-62525518D01*
X36611928Y-62650000D01*
X36220000Y-62650000D01*
X36220000Y-49315000D01*
X36611928Y-49315000D01*
X36611928Y-51015000D01*
X36624188Y-51139482D01*
X36660498Y-51259180D01*
X36719463Y-51369494D01*
X36798815Y-51466185D01*
X36895506Y-51545537D01*
X37005820Y-51604502D01*
X37125518Y-51640812D01*
X37250000Y-51653072D01*
X38950000Y-51653072D01*
X39074482Y-51640812D01*
X39194180Y-51604502D01*
X39304494Y-51545537D01*
X39401185Y-51466185D01*
X39480537Y-51369494D01*
X39539502Y-51259180D01*
X39575812Y-51139482D01*
X39588072Y-51015000D01*
X39588072Y-49315000D01*
X39575812Y-49190518D01*
X39539502Y-49070820D01*
X39480537Y-48960506D01*
X39401185Y-48863815D01*
X39304494Y-48784463D01*
X39194180Y-48725498D01*
X39121620Y-48703487D01*
X39253475Y-48571632D01*
X39415990Y-48328411D01*
X39527932Y-48058158D01*
X39585000Y-47771260D01*
X39585000Y-47478740D01*
X39527932Y-47191842D01*
X39415990Y-46921589D01*
X39253475Y-46678368D01*
X39046632Y-46471525D01*
X38872240Y-46355000D01*
X39046632Y-46238475D01*
X39253475Y-46031632D01*
X39415990Y-45788411D01*
X39527932Y-45518158D01*
X39585000Y-45231260D01*
X39585000Y-44938740D01*
X39527932Y-44651842D01*
X39415990Y-44381589D01*
X39253475Y-44138368D01*
X39046632Y-43931525D01*
X38872240Y-43815000D01*
X39046632Y-43698475D01*
X39253475Y-43491632D01*
X39415990Y-43248411D01*
X39527932Y-42978158D01*
X39585000Y-42691260D01*
X39585000Y-42398740D01*
X39527932Y-42111842D01*
X39415990Y-41841589D01*
X39253475Y-41598368D01*
X39046632Y-41391525D01*
X38803411Y-41229010D01*
X38533158Y-41117068D01*
X38246260Y-41060000D01*
X37953740Y-41060000D01*
X37666842Y-41117068D01*
X37396589Y-41229010D01*
X37153368Y-41391525D01*
X36946525Y-41598368D01*
X36784010Y-41841589D01*
X36672068Y-42111842D01*
X36615000Y-42398740D01*
X36615000Y-42691260D01*
X36672068Y-42978158D01*
X36784010Y-43248411D01*
X36946525Y-43491632D01*
X37153368Y-43698475D01*
X37327760Y-43815000D01*
X37153368Y-43931525D01*
X36946525Y-44138368D01*
X36784010Y-44381589D01*
X36672068Y-44651842D01*
X36615000Y-44938740D01*
X36615000Y-45231260D01*
X36672068Y-45518158D01*
X36784010Y-45788411D01*
X36946525Y-46031632D01*
X37153368Y-46238475D01*
X37327760Y-46355000D01*
X37153368Y-46471525D01*
X36946525Y-46678368D01*
X36784010Y-46921589D01*
X36672068Y-47191842D01*
X36615000Y-47478740D01*
X36615000Y-47771260D01*
X36672068Y-48058158D01*
X36784010Y-48328411D01*
X36946525Y-48571632D01*
X37078380Y-48703487D01*
X37005820Y-48725498D01*
X36895506Y-48784463D01*
X36798815Y-48863815D01*
X36719463Y-48960506D01*
X36660498Y-49070820D01*
X36624188Y-49190518D01*
X36611928Y-49315000D01*
X36220000Y-49315000D01*
X36220000Y-35413740D01*
X36615000Y-35413740D01*
X36615000Y-35706260D01*
X36672068Y-35993158D01*
X36784010Y-36263411D01*
X36946525Y-36506632D01*
X37153368Y-36713475D01*
X37396589Y-36875990D01*
X37666842Y-36987932D01*
X37953740Y-37045000D01*
X38246260Y-37045000D01*
X38533158Y-36987932D01*
X38803411Y-36875990D01*
X39046632Y-36713475D01*
X39247607Y-36512500D01*
X42785462Y-36512500D01*
X44767500Y-38494538D01*
X44767501Y-44403205D01*
X44762892Y-44450000D01*
X44781283Y-44636722D01*
X44835749Y-44816269D01*
X44901211Y-44938740D01*
X44924195Y-44981741D01*
X45043223Y-45126778D01*
X45079565Y-45156603D01*
X47553393Y-47630431D01*
X47583222Y-47666778D01*
X47619569Y-47696607D01*
X48624637Y-48701676D01*
X48645748Y-48771269D01*
X48734194Y-48936741D01*
X48853222Y-49081778D01*
X48889570Y-49111608D01*
X49060069Y-49282106D01*
X49102795Y-49385256D01*
X49216063Y-49554774D01*
X49360226Y-49698937D01*
X49529744Y-49812205D01*
X49718102Y-49890226D01*
X49918061Y-49930000D01*
X50121939Y-49930000D01*
X50321898Y-49890226D01*
X50510256Y-49812205D01*
X50679774Y-49698937D01*
X50823937Y-49554774D01*
X50937205Y-49385256D01*
X51015226Y-49196898D01*
X51055000Y-48996939D01*
X51055000Y-48793061D01*
X51015226Y-48593102D01*
X50937205Y-48404744D01*
X50823937Y-48235226D01*
X50679774Y-48091063D01*
X50510256Y-47977795D01*
X50429621Y-47944395D01*
X50429046Y-47942500D01*
X83280462Y-47942500D01*
X84620070Y-49282108D01*
X84662795Y-49385256D01*
X84776063Y-49554774D01*
X84920226Y-49698937D01*
X85089744Y-49812205D01*
X85278102Y-49890226D01*
X85478061Y-49930000D01*
X85681939Y-49930000D01*
X85881898Y-49890226D01*
X86070256Y-49812205D01*
X86239774Y-49698937D01*
X86383937Y-49554774D01*
X86497205Y-49385256D01*
X86575226Y-49196898D01*
X86615000Y-48996939D01*
X86615000Y-48793061D01*
X86575226Y-48593102D01*
X86497205Y-48404744D01*
X86383937Y-48235226D01*
X86239774Y-48091063D01*
X86070256Y-47977795D01*
X85967108Y-47935070D01*
X84381607Y-46349569D01*
X84351778Y-46313222D01*
X84206741Y-46194194D01*
X84041269Y-46105748D01*
X83861723Y-46051283D01*
X83721785Y-46037500D01*
X83675000Y-46032892D01*
X83628215Y-46037500D01*
X48654538Y-46037500D01*
X48537334Y-45920296D01*
X48555518Y-45925812D01*
X48680000Y-45938072D01*
X50380000Y-45938072D01*
X50504482Y-45925812D01*
X50624180Y-45889502D01*
X50734494Y-45830537D01*
X50831185Y-45751185D01*
X50910537Y-45654494D01*
X50969502Y-45544180D01*
X51005812Y-45424482D01*
X51018072Y-45300000D01*
X51018072Y-43600000D01*
X58201928Y-43600000D01*
X58201928Y-45300000D01*
X58214188Y-45424482D01*
X58250498Y-45544180D01*
X58309463Y-45654494D01*
X58388815Y-45751185D01*
X58485506Y-45830537D01*
X58595820Y-45889502D01*
X58715518Y-45925812D01*
X58840000Y-45938072D01*
X60540000Y-45938072D01*
X60664482Y-45925812D01*
X60784180Y-45889502D01*
X60894494Y-45830537D01*
X60991185Y-45751185D01*
X61070537Y-45654494D01*
X61129502Y-45544180D01*
X61165812Y-45424482D01*
X61178072Y-45300000D01*
X61178072Y-43600000D01*
X68361928Y-43600000D01*
X68361928Y-45300000D01*
X68374188Y-45424482D01*
X68410498Y-45544180D01*
X68469463Y-45654494D01*
X68548815Y-45751185D01*
X68645506Y-45830537D01*
X68755820Y-45889502D01*
X68875518Y-45925812D01*
X69000000Y-45938072D01*
X70700000Y-45938072D01*
X70824482Y-45925812D01*
X70944180Y-45889502D01*
X71054494Y-45830537D01*
X71151185Y-45751185D01*
X71230537Y-45654494D01*
X71289502Y-45544180D01*
X71325812Y-45424482D01*
X71338072Y-45300000D01*
X71338072Y-43600000D01*
X78521928Y-43600000D01*
X78521928Y-45300000D01*
X78534188Y-45424482D01*
X78570498Y-45544180D01*
X78629463Y-45654494D01*
X78708815Y-45751185D01*
X78805506Y-45830537D01*
X78915820Y-45889502D01*
X79035518Y-45925812D01*
X79160000Y-45938072D01*
X80860000Y-45938072D01*
X80984482Y-45925812D01*
X81104180Y-45889502D01*
X81214494Y-45830537D01*
X81311185Y-45751185D01*
X81390537Y-45654494D01*
X81449502Y-45544180D01*
X81485812Y-45424482D01*
X81498072Y-45300000D01*
X81498072Y-43600000D01*
X81485812Y-43475518D01*
X81449502Y-43355820D01*
X81390537Y-43245506D01*
X81311185Y-43148815D01*
X81214494Y-43069463D01*
X81104180Y-43010498D01*
X81031620Y-42988487D01*
X81163475Y-42856632D01*
X81325990Y-42613411D01*
X81437932Y-42343158D01*
X81495000Y-42056260D01*
X81495000Y-41763740D01*
X81437932Y-41476842D01*
X81325990Y-41206589D01*
X81163475Y-40963368D01*
X80956632Y-40756525D01*
X80713411Y-40594010D01*
X80443158Y-40482068D01*
X80156260Y-40425000D01*
X79863740Y-40425000D01*
X79576842Y-40482068D01*
X79306589Y-40594010D01*
X79063368Y-40756525D01*
X78856525Y-40963368D01*
X78694010Y-41206589D01*
X78582068Y-41476842D01*
X78525000Y-41763740D01*
X78525000Y-42056260D01*
X78582068Y-42343158D01*
X78694010Y-42613411D01*
X78856525Y-42856632D01*
X78988380Y-42988487D01*
X78915820Y-43010498D01*
X78805506Y-43069463D01*
X78708815Y-43148815D01*
X78629463Y-43245506D01*
X78570498Y-43355820D01*
X78534188Y-43475518D01*
X78521928Y-43600000D01*
X71338072Y-43600000D01*
X71325812Y-43475518D01*
X71289502Y-43355820D01*
X71230537Y-43245506D01*
X71151185Y-43148815D01*
X71054494Y-43069463D01*
X70944180Y-43010498D01*
X70871620Y-42988487D01*
X71003475Y-42856632D01*
X71165990Y-42613411D01*
X71277932Y-42343158D01*
X71335000Y-42056260D01*
X71335000Y-41763740D01*
X71277932Y-41476842D01*
X71165990Y-41206589D01*
X71003475Y-40963368D01*
X70796632Y-40756525D01*
X70553411Y-40594010D01*
X70283158Y-40482068D01*
X69996260Y-40425000D01*
X69703740Y-40425000D01*
X69416842Y-40482068D01*
X69146589Y-40594010D01*
X68903368Y-40756525D01*
X68696525Y-40963368D01*
X68534010Y-41206589D01*
X68422068Y-41476842D01*
X68365000Y-41763740D01*
X68365000Y-42056260D01*
X68422068Y-42343158D01*
X68534010Y-42613411D01*
X68696525Y-42856632D01*
X68828380Y-42988487D01*
X68755820Y-43010498D01*
X68645506Y-43069463D01*
X68548815Y-43148815D01*
X68469463Y-43245506D01*
X68410498Y-43355820D01*
X68374188Y-43475518D01*
X68361928Y-43600000D01*
X61178072Y-43600000D01*
X61165812Y-43475518D01*
X61129502Y-43355820D01*
X61070537Y-43245506D01*
X60991185Y-43148815D01*
X60894494Y-43069463D01*
X60784180Y-43010498D01*
X60711620Y-42988487D01*
X60843475Y-42856632D01*
X61005990Y-42613411D01*
X61117932Y-42343158D01*
X61175000Y-42056260D01*
X61175000Y-41763740D01*
X61117932Y-41476842D01*
X61005990Y-41206589D01*
X60843475Y-40963368D01*
X60636632Y-40756525D01*
X60393411Y-40594010D01*
X60123158Y-40482068D01*
X59836260Y-40425000D01*
X59543740Y-40425000D01*
X59256842Y-40482068D01*
X58986589Y-40594010D01*
X58743368Y-40756525D01*
X58536525Y-40963368D01*
X58374010Y-41206589D01*
X58262068Y-41476842D01*
X58205000Y-41763740D01*
X58205000Y-42056260D01*
X58262068Y-42343158D01*
X58374010Y-42613411D01*
X58536525Y-42856632D01*
X58668380Y-42988487D01*
X58595820Y-43010498D01*
X58485506Y-43069463D01*
X58388815Y-43148815D01*
X58309463Y-43245506D01*
X58250498Y-43355820D01*
X58214188Y-43475518D01*
X58201928Y-43600000D01*
X51018072Y-43600000D01*
X51005812Y-43475518D01*
X50969502Y-43355820D01*
X50910537Y-43245506D01*
X50831185Y-43148815D01*
X50734494Y-43069463D01*
X50624180Y-43010498D01*
X50551620Y-42988487D01*
X50683475Y-42856632D01*
X50845990Y-42613411D01*
X50957932Y-42343158D01*
X51015000Y-42056260D01*
X51015000Y-41763740D01*
X50957932Y-41476842D01*
X50845990Y-41206589D01*
X50683475Y-40963368D01*
X50476632Y-40756525D01*
X50233411Y-40594010D01*
X49963158Y-40482068D01*
X49676260Y-40425000D01*
X49383740Y-40425000D01*
X49096842Y-40482068D01*
X48826589Y-40594010D01*
X48583368Y-40756525D01*
X48376525Y-40963368D01*
X48214010Y-41206589D01*
X48102068Y-41476842D01*
X48045000Y-41763740D01*
X48045000Y-42056260D01*
X48102068Y-42343158D01*
X48214010Y-42613411D01*
X48376525Y-42856632D01*
X48508380Y-42988487D01*
X48435820Y-43010498D01*
X48325506Y-43069463D01*
X48228815Y-43148815D01*
X48149463Y-43245506D01*
X48090498Y-43355820D01*
X48054188Y-43475518D01*
X48041928Y-43600000D01*
X48041928Y-45300000D01*
X48054188Y-45424482D01*
X48059704Y-45442666D01*
X46672500Y-44055462D01*
X46672500Y-38146784D01*
X46677108Y-38099999D01*
X46658717Y-37913277D01*
X46604252Y-37733732D01*
X46604252Y-37733731D01*
X46515806Y-37568259D01*
X46396778Y-37423222D01*
X46360431Y-37393393D01*
X43886607Y-34919569D01*
X43856778Y-34883222D01*
X43711741Y-34764194D01*
X43546269Y-34675748D01*
X43366723Y-34621283D01*
X43226785Y-34607500D01*
X43180000Y-34602892D01*
X43133215Y-34607500D01*
X39247607Y-34607500D01*
X39046632Y-34406525D01*
X38864466Y-34284805D01*
X38981355Y-34215178D01*
X39197588Y-34020269D01*
X39371641Y-33786920D01*
X39496825Y-33524099D01*
X39541476Y-33376890D01*
X39420155Y-33147000D01*
X38227000Y-33147000D01*
X38227000Y-33167000D01*
X37973000Y-33167000D01*
X37973000Y-33147000D01*
X36779845Y-33147000D01*
X36658524Y-33376890D01*
X36703175Y-33524099D01*
X36828359Y-33786920D01*
X37002412Y-34020269D01*
X37218645Y-34215178D01*
X37335534Y-34284805D01*
X37153368Y-34406525D01*
X36946525Y-34613368D01*
X36784010Y-34856589D01*
X36672068Y-35126842D01*
X36615000Y-35413740D01*
X36220000Y-35413740D01*
X36220000Y-31021042D01*
X36241557Y-31129419D01*
X36298462Y-31317012D01*
X36346100Y-31432020D01*
X36438510Y-31604907D01*
X36507668Y-31708409D01*
X36632031Y-31859946D01*
X36720054Y-31947969D01*
X36871591Y-32072332D01*
X36932714Y-32113173D01*
X36828359Y-32253080D01*
X36703175Y-32515901D01*
X36658524Y-32663110D01*
X36779845Y-32893000D01*
X37973000Y-32893000D01*
X37973000Y-32873000D01*
X38227000Y-32873000D01*
X38227000Y-32893000D01*
X39420155Y-32893000D01*
X39541476Y-32663110D01*
X39496825Y-32515901D01*
X39434476Y-32385000D01*
X88503806Y-32385000D01*
X88605606Y-32395027D01*
X88673506Y-32415623D01*
X88736077Y-32449069D01*
X88790922Y-32494078D01*
X88835931Y-32548923D01*
X88869377Y-32611494D01*
X88889973Y-32679394D01*
X88900000Y-32781194D01*
X88900000Y-42180000D01*
X88903058Y-42242242D01*
X88922273Y-42437332D01*
X88946557Y-42559419D01*
X89003462Y-42747012D01*
X89051100Y-42862020D01*
X89143510Y-43034907D01*
X89212668Y-43138409D01*
X89337031Y-43289946D01*
X89378528Y-43331443D01*
X89365498Y-43355820D01*
X89329188Y-43475518D01*
X89316928Y-43600000D01*
X89316928Y-45300000D01*
X89329188Y-45424482D01*
X89365498Y-45544180D01*
X89424463Y-45654494D01*
X89503815Y-45751185D01*
X89600506Y-45830537D01*
X89710820Y-45889502D01*
X89830518Y-45925812D01*
X89955000Y-45938072D01*
X91655000Y-45938072D01*
X91779482Y-45925812D01*
X91899180Y-45889502D01*
X92009494Y-45830537D01*
X92106185Y-45751185D01*
X92185537Y-45654494D01*
X92244502Y-45544180D01*
X92280812Y-45424482D01*
X92282977Y-45402500D01*
X92315462Y-45402500D01*
X93027501Y-46114540D01*
X93027500Y-49759953D01*
X92984774Y-49863102D01*
X92945000Y-50063061D01*
X92945000Y-50266939D01*
X92984774Y-50466898D01*
X93062795Y-50655256D01*
X93176063Y-50824774D01*
X93320226Y-50968937D01*
X93489744Y-51082205D01*
X93678102Y-51160226D01*
X93878061Y-51200000D01*
X94081939Y-51200000D01*
X94281898Y-51160226D01*
X94470256Y-51082205D01*
X94639774Y-50968937D01*
X94783937Y-50824774D01*
X94897205Y-50655256D01*
X94975226Y-50466898D01*
X95015000Y-50266939D01*
X95015000Y-50063061D01*
X94975226Y-49863102D01*
X94932500Y-49759953D01*
X94932500Y-45766784D01*
X94937108Y-45719999D01*
X94918717Y-45533277D01*
X94885714Y-45424482D01*
X94864252Y-45353731D01*
X94775806Y-45188259D01*
X94656778Y-45043222D01*
X94620436Y-45013397D01*
X93422038Y-43815000D01*
X100746928Y-43815000D01*
X100746928Y-45300000D01*
X100759188Y-45424482D01*
X100795498Y-45544180D01*
X100854463Y-45654494D01*
X100933815Y-45751185D01*
X101030506Y-45830537D01*
X101140820Y-45889502D01*
X101260518Y-45925812D01*
X101385000Y-45938072D01*
X103085000Y-45938072D01*
X103209482Y-45925812D01*
X103329180Y-45889502D01*
X103439494Y-45830537D01*
X103536185Y-45751185D01*
X103615537Y-45654494D01*
X103674502Y-45544180D01*
X103710812Y-45424482D01*
X103723072Y-45300000D01*
X103723072Y-43600000D01*
X103710812Y-43475518D01*
X103674502Y-43355820D01*
X103661472Y-43331443D01*
X103702969Y-43289946D01*
X103827332Y-43138409D01*
X103896490Y-43034907D01*
X103988900Y-42862020D01*
X104036538Y-42747012D01*
X104093443Y-42559419D01*
X104117727Y-42437332D01*
X104136942Y-42242242D01*
X104140000Y-42180000D01*
X104140000Y-27670000D01*
X104136942Y-27607758D01*
X104117727Y-27412668D01*
X104093443Y-27290581D01*
X104036538Y-27102988D01*
X103988900Y-26987980D01*
X103896490Y-26815093D01*
X103827332Y-26711591D01*
X103702969Y-26560054D01*
X103614946Y-26472031D01*
X103463409Y-26347668D01*
X103359907Y-26278510D01*
X103187020Y-26186100D01*
X103072012Y-26138462D01*
X102884419Y-26081557D01*
X102762332Y-26057273D01*
X102567242Y-26038058D01*
X102505000Y-26035000D01*
X37830000Y-26035000D01*
X37767758Y-26038058D01*
X37572668Y-26057273D01*
X37450581Y-26081557D01*
X37262988Y-26138462D01*
X37147980Y-26186100D01*
X36975093Y-26278510D01*
X36871591Y-26347668D01*
X36720054Y-26472031D01*
X36632031Y-26560054D01*
X36507668Y-26711591D01*
X36438510Y-26815093D01*
X36346100Y-26987980D01*
X36298462Y-27102988D01*
X36241557Y-27290581D01*
X36220000Y-27398958D01*
X36220000Y-25432279D01*
X36258909Y-25035455D01*
X36364780Y-24684792D01*
X36536744Y-24361375D01*
X36768254Y-24077516D01*
X37050486Y-23844035D01*
X37372695Y-23669817D01*
X37722614Y-23561498D01*
X38117443Y-23520000D01*
X102837721Y-23520000D01*
X103234545Y-23558909D01*
G37*
X103234545Y-23558909D02*
X103585208Y-23664780D01*
X103908625Y-23836744D01*
X104192484Y-24068254D01*
X104425965Y-24350486D01*
X104600183Y-24672695D01*
X104708502Y-25022614D01*
X104750000Y-25417443D01*
X104750001Y-78707711D01*
X104711091Y-79104545D01*
X104605220Y-79455206D01*
X104433257Y-79778623D01*
X104201748Y-80062482D01*
X103919514Y-80295965D01*
X103597304Y-80470184D01*
X103247385Y-80578502D01*
X102852557Y-80620000D01*
X38132279Y-80620000D01*
X37735455Y-80581091D01*
X37384794Y-80475220D01*
X37061377Y-80303257D01*
X36777518Y-80071748D01*
X36544035Y-79789514D01*
X36369816Y-79467304D01*
X36261498Y-79117385D01*
X36220000Y-78722557D01*
X36220000Y-62650000D01*
X36611928Y-62650000D01*
X36611928Y-64350000D01*
X36624188Y-64474482D01*
X36660498Y-64594180D01*
X36719463Y-64704494D01*
X36798815Y-64801185D01*
X36895506Y-64880537D01*
X37005820Y-64939502D01*
X37078380Y-64961513D01*
X36946525Y-65093368D01*
X36784010Y-65336589D01*
X36672068Y-65606842D01*
X36615000Y-65893740D01*
X36615000Y-66186260D01*
X36672068Y-66473158D01*
X36784010Y-66743411D01*
X36946525Y-66986632D01*
X37153368Y-67193475D01*
X37327760Y-67310000D01*
X37153368Y-67426525D01*
X36946525Y-67633368D01*
X36784010Y-67876589D01*
X36672068Y-68146842D01*
X36615000Y-68433740D01*
X36615000Y-68726260D01*
X36672068Y-69013158D01*
X36784010Y-69283411D01*
X36946525Y-69526632D01*
X37153368Y-69733475D01*
X37327760Y-69850000D01*
X37153368Y-69966525D01*
X36946525Y-70173368D01*
X36784010Y-70416589D01*
X36672068Y-70686842D01*
X36615000Y-70973740D01*
X36615000Y-71266260D01*
X36672068Y-71553158D01*
X36784010Y-71823411D01*
X36946525Y-72066632D01*
X37153368Y-72273475D01*
X37396589Y-72435990D01*
X37666842Y-72547932D01*
X37953740Y-72605000D01*
X38246260Y-72605000D01*
X38533158Y-72547932D01*
X38803411Y-72435990D01*
X39046632Y-72273475D01*
X39253475Y-72066632D01*
X39415990Y-71823411D01*
X39527932Y-71553158D01*
X39585000Y-71266260D01*
X39585000Y-70973740D01*
X39527932Y-70686842D01*
X39415990Y-70416589D01*
X39253475Y-70173368D01*
X39046632Y-69966525D01*
X38872240Y-69850000D01*
X39046632Y-69733475D01*
X39253475Y-69526632D01*
X39415990Y-69283411D01*
X39527932Y-69013158D01*
X39585000Y-68726260D01*
X39585000Y-68433740D01*
X39527932Y-68146842D01*
X39415990Y-67876589D01*
X39253475Y-67633368D01*
X39046632Y-67426525D01*
X38872240Y-67310000D01*
X39046632Y-67193475D01*
X39253475Y-66986632D01*
X39415990Y-66743411D01*
X39527932Y-66473158D01*
X39585000Y-66186260D01*
X39585000Y-65893740D01*
X39527932Y-65606842D01*
X39415990Y-65336589D01*
X39253475Y-65093368D01*
X39121620Y-64961513D01*
X39194180Y-64939502D01*
X39304494Y-64880537D01*
X39401185Y-64801185D01*
X39480537Y-64704494D01*
X39539502Y-64594180D01*
X39575812Y-64474482D01*
X39588072Y-64350000D01*
X39588072Y-62650000D01*
X39575812Y-62525518D01*
X39539502Y-62405820D01*
X39480537Y-62295506D01*
X39401185Y-62198815D01*
X39304494Y-62119463D01*
X39194180Y-62060498D01*
X39074482Y-62024188D01*
X38950000Y-62011928D01*
X37250000Y-62011928D01*
X37125518Y-62024188D01*
X37005820Y-62060498D01*
X36895506Y-62119463D01*
X36798815Y-62198815D01*
X36719463Y-62295506D01*
X36660498Y-62405820D01*
X36624188Y-62525518D01*
X36611928Y-62650000D01*
X36220000Y-62650000D01*
X36220000Y-49315000D01*
X36611928Y-49315000D01*
X36611928Y-51015000D01*
X36624188Y-51139482D01*
X36660498Y-51259180D01*
X36719463Y-51369494D01*
X36798815Y-51466185D01*
X36895506Y-51545537D01*
X37005820Y-51604502D01*
X37125518Y-51640812D01*
X37250000Y-51653072D01*
X38950000Y-51653072D01*
X39074482Y-51640812D01*
X39194180Y-51604502D01*
X39304494Y-51545537D01*
X39401185Y-51466185D01*
X39480537Y-51369494D01*
X39539502Y-51259180D01*
X39575812Y-51139482D01*
X39588072Y-51015000D01*
X39588072Y-49315000D01*
X39575812Y-49190518D01*
X39539502Y-49070820D01*
X39480537Y-48960506D01*
X39401185Y-48863815D01*
X39304494Y-48784463D01*
X39194180Y-48725498D01*
X39121620Y-48703487D01*
X39253475Y-48571632D01*
X39415990Y-48328411D01*
X39527932Y-48058158D01*
X39585000Y-47771260D01*
X39585000Y-47478740D01*
X39527932Y-47191842D01*
X39415990Y-46921589D01*
X39253475Y-46678368D01*
X39046632Y-46471525D01*
X38872240Y-46355000D01*
X39046632Y-46238475D01*
X39253475Y-46031632D01*
X39415990Y-45788411D01*
X39527932Y-45518158D01*
X39585000Y-45231260D01*
X39585000Y-44938740D01*
X39527932Y-44651842D01*
X39415990Y-44381589D01*
X39253475Y-44138368D01*
X39046632Y-43931525D01*
X38872240Y-43815000D01*
X39046632Y-43698475D01*
X39253475Y-43491632D01*
X39415990Y-43248411D01*
X39527932Y-42978158D01*
X39585000Y-42691260D01*
X39585000Y-42398740D01*
X39527932Y-42111842D01*
X39415990Y-41841589D01*
X39253475Y-41598368D01*
X39046632Y-41391525D01*
X38803411Y-41229010D01*
X38533158Y-41117068D01*
X38246260Y-41060000D01*
X37953740Y-41060000D01*
X37666842Y-41117068D01*
X37396589Y-41229010D01*
X37153368Y-41391525D01*
X36946525Y-41598368D01*
X36784010Y-41841589D01*
X36672068Y-42111842D01*
X36615000Y-42398740D01*
X36615000Y-42691260D01*
X36672068Y-42978158D01*
X36784010Y-43248411D01*
X36946525Y-43491632D01*
X37153368Y-43698475D01*
X37327760Y-43815000D01*
X37153368Y-43931525D01*
X36946525Y-44138368D01*
X36784010Y-44381589D01*
X36672068Y-44651842D01*
X36615000Y-44938740D01*
X36615000Y-45231260D01*
X36672068Y-45518158D01*
X36784010Y-45788411D01*
X36946525Y-46031632D01*
X37153368Y-46238475D01*
X37327760Y-46355000D01*
X37153368Y-46471525D01*
X36946525Y-46678368D01*
X36784010Y-46921589D01*
X36672068Y-47191842D01*
X36615000Y-47478740D01*
X36615000Y-47771260D01*
X36672068Y-48058158D01*
X36784010Y-48328411D01*
X36946525Y-48571632D01*
X37078380Y-48703487D01*
X37005820Y-48725498D01*
X36895506Y-48784463D01*
X36798815Y-48863815D01*
X36719463Y-48960506D01*
X36660498Y-49070820D01*
X36624188Y-49190518D01*
X36611928Y-49315000D01*
X36220000Y-49315000D01*
X36220000Y-35413740D01*
X36615000Y-35413740D01*
X36615000Y-35706260D01*
X36672068Y-35993158D01*
X36784010Y-36263411D01*
X36946525Y-36506632D01*
X37153368Y-36713475D01*
X37396589Y-36875990D01*
X37666842Y-36987932D01*
X37953740Y-37045000D01*
X38246260Y-37045000D01*
X38533158Y-36987932D01*
X38803411Y-36875990D01*
X39046632Y-36713475D01*
X39247607Y-36512500D01*
X42785462Y-36512500D01*
X44767500Y-38494538D01*
X44767501Y-44403205D01*
X44762892Y-44450000D01*
X44781283Y-44636722D01*
X44835749Y-44816269D01*
X44901211Y-44938740D01*
X44924195Y-44981741D01*
X45043223Y-45126778D01*
X45079565Y-45156603D01*
X47553393Y-47630431D01*
X47583222Y-47666778D01*
X47619569Y-47696607D01*
X48624637Y-48701676D01*
X48645748Y-48771269D01*
X48734194Y-48936741D01*
X48853222Y-49081778D01*
X48889570Y-49111608D01*
X49060069Y-49282106D01*
X49102795Y-49385256D01*
X49216063Y-49554774D01*
X49360226Y-49698937D01*
X49529744Y-49812205D01*
X49718102Y-49890226D01*
X49918061Y-49930000D01*
X50121939Y-49930000D01*
X50321898Y-49890226D01*
X50510256Y-49812205D01*
X50679774Y-49698937D01*
X50823937Y-49554774D01*
X50937205Y-49385256D01*
X51015226Y-49196898D01*
X51055000Y-48996939D01*
X51055000Y-48793061D01*
X51015226Y-48593102D01*
X50937205Y-48404744D01*
X50823937Y-48235226D01*
X50679774Y-48091063D01*
X50510256Y-47977795D01*
X50429621Y-47944395D01*
X50429046Y-47942500D01*
X83280462Y-47942500D01*
X84620070Y-49282108D01*
X84662795Y-49385256D01*
X84776063Y-49554774D01*
X84920226Y-49698937D01*
X85089744Y-49812205D01*
X85278102Y-49890226D01*
X85478061Y-49930000D01*
X85681939Y-49930000D01*
X85881898Y-49890226D01*
X86070256Y-49812205D01*
X86239774Y-49698937D01*
X86383937Y-49554774D01*
X86497205Y-49385256D01*
X86575226Y-49196898D01*
X86615000Y-48996939D01*
X86615000Y-48793061D01*
X86575226Y-48593102D01*
X86497205Y-48404744D01*
X86383937Y-48235226D01*
X86239774Y-48091063D01*
X86070256Y-47977795D01*
X85967108Y-47935070D01*
X84381607Y-46349569D01*
X84351778Y-46313222D01*
X84206741Y-46194194D01*
X84041269Y-46105748D01*
X83861723Y-46051283D01*
X83721785Y-46037500D01*
X83675000Y-46032892D01*
X83628215Y-46037500D01*
X48654538Y-46037500D01*
X48537334Y-45920296D01*
X48555518Y-45925812D01*
X48680000Y-45938072D01*
X50380000Y-45938072D01*
X50504482Y-45925812D01*
X50624180Y-45889502D01*
X50734494Y-45830537D01*
X50831185Y-45751185D01*
X50910537Y-45654494D01*
X50969502Y-45544180D01*
X51005812Y-45424482D01*
X51018072Y-45300000D01*
X51018072Y-43600000D01*
X58201928Y-43600000D01*
X58201928Y-45300000D01*
X58214188Y-45424482D01*
X58250498Y-45544180D01*
X58309463Y-45654494D01*
X58388815Y-45751185D01*
X58485506Y-45830537D01*
X58595820Y-45889502D01*
X58715518Y-45925812D01*
X58840000Y-45938072D01*
X60540000Y-45938072D01*
X60664482Y-45925812D01*
X60784180Y-45889502D01*
X60894494Y-45830537D01*
X60991185Y-45751185D01*
X61070537Y-45654494D01*
X61129502Y-45544180D01*
X61165812Y-45424482D01*
X61178072Y-45300000D01*
X61178072Y-43600000D01*
X68361928Y-43600000D01*
X68361928Y-45300000D01*
X68374188Y-45424482D01*
X68410498Y-45544180D01*
X68469463Y-45654494D01*
X68548815Y-45751185D01*
X68645506Y-45830537D01*
X68755820Y-45889502D01*
X68875518Y-45925812D01*
X69000000Y-45938072D01*
X70700000Y-45938072D01*
X70824482Y-45925812D01*
X70944180Y-45889502D01*
X71054494Y-45830537D01*
X71151185Y-45751185D01*
X71230537Y-45654494D01*
X71289502Y-45544180D01*
X71325812Y-45424482D01*
X71338072Y-45300000D01*
X71338072Y-43600000D01*
X78521928Y-43600000D01*
X78521928Y-45300000D01*
X78534188Y-45424482D01*
X78570498Y-45544180D01*
X78629463Y-45654494D01*
X78708815Y-45751185D01*
X78805506Y-45830537D01*
X78915820Y-45889502D01*
X79035518Y-45925812D01*
X79160000Y-45938072D01*
X80860000Y-45938072D01*
X80984482Y-45925812D01*
X81104180Y-45889502D01*
X81214494Y-45830537D01*
X81311185Y-45751185D01*
X81390537Y-45654494D01*
X81449502Y-45544180D01*
X81485812Y-45424482D01*
X81498072Y-45300000D01*
X81498072Y-43600000D01*
X81485812Y-43475518D01*
X81449502Y-43355820D01*
X81390537Y-43245506D01*
X81311185Y-43148815D01*
X81214494Y-43069463D01*
X81104180Y-43010498D01*
X81031620Y-42988487D01*
X81163475Y-42856632D01*
X81325990Y-42613411D01*
X81437932Y-42343158D01*
X81495000Y-42056260D01*
X81495000Y-41763740D01*
X81437932Y-41476842D01*
X81325990Y-41206589D01*
X81163475Y-40963368D01*
X80956632Y-40756525D01*
X80713411Y-40594010D01*
X80443158Y-40482068D01*
X80156260Y-40425000D01*
X79863740Y-40425000D01*
X79576842Y-40482068D01*
X79306589Y-40594010D01*
X79063368Y-40756525D01*
X78856525Y-40963368D01*
X78694010Y-41206589D01*
X78582068Y-41476842D01*
X78525000Y-41763740D01*
X78525000Y-42056260D01*
X78582068Y-42343158D01*
X78694010Y-42613411D01*
X78856525Y-42856632D01*
X78988380Y-42988487D01*
X78915820Y-43010498D01*
X78805506Y-43069463D01*
X78708815Y-43148815D01*
X78629463Y-43245506D01*
X78570498Y-43355820D01*
X78534188Y-43475518D01*
X78521928Y-43600000D01*
X71338072Y-43600000D01*
X71325812Y-43475518D01*
X71289502Y-43355820D01*
X71230537Y-43245506D01*
X71151185Y-43148815D01*
X71054494Y-43069463D01*
X70944180Y-43010498D01*
X70871620Y-42988487D01*
X71003475Y-42856632D01*
X71165990Y-42613411D01*
X71277932Y-42343158D01*
X71335000Y-42056260D01*
X71335000Y-41763740D01*
X71277932Y-41476842D01*
X71165990Y-41206589D01*
X71003475Y-40963368D01*
X70796632Y-40756525D01*
X70553411Y-40594010D01*
X70283158Y-40482068D01*
X69996260Y-40425000D01*
X69703740Y-40425000D01*
X69416842Y-40482068D01*
X69146589Y-40594010D01*
X68903368Y-40756525D01*
X68696525Y-40963368D01*
X68534010Y-41206589D01*
X68422068Y-41476842D01*
X68365000Y-41763740D01*
X68365000Y-42056260D01*
X68422068Y-42343158D01*
X68534010Y-42613411D01*
X68696525Y-42856632D01*
X68828380Y-42988487D01*
X68755820Y-43010498D01*
X68645506Y-43069463D01*
X68548815Y-43148815D01*
X68469463Y-43245506D01*
X68410498Y-43355820D01*
X68374188Y-43475518D01*
X68361928Y-43600000D01*
X61178072Y-43600000D01*
X61165812Y-43475518D01*
X61129502Y-43355820D01*
X61070537Y-43245506D01*
X60991185Y-43148815D01*
X60894494Y-43069463D01*
X60784180Y-43010498D01*
X60711620Y-42988487D01*
X60843475Y-42856632D01*
X61005990Y-42613411D01*
X61117932Y-42343158D01*
X61175000Y-42056260D01*
X61175000Y-41763740D01*
X61117932Y-41476842D01*
X61005990Y-41206589D01*
X60843475Y-40963368D01*
X60636632Y-40756525D01*
X60393411Y-40594010D01*
X60123158Y-40482068D01*
X59836260Y-40425000D01*
X59543740Y-40425000D01*
X59256842Y-40482068D01*
X58986589Y-40594010D01*
X58743368Y-40756525D01*
X58536525Y-40963368D01*
X58374010Y-41206589D01*
X58262068Y-41476842D01*
X58205000Y-41763740D01*
X58205000Y-42056260D01*
X58262068Y-42343158D01*
X58374010Y-42613411D01*
X58536525Y-42856632D01*
X58668380Y-42988487D01*
X58595820Y-43010498D01*
X58485506Y-43069463D01*
X58388815Y-43148815D01*
X58309463Y-43245506D01*
X58250498Y-43355820D01*
X58214188Y-43475518D01*
X58201928Y-43600000D01*
X51018072Y-43600000D01*
X51005812Y-43475518D01*
X50969502Y-43355820D01*
X50910537Y-43245506D01*
X50831185Y-43148815D01*
X50734494Y-43069463D01*
X50624180Y-43010498D01*
X50551620Y-42988487D01*
X50683475Y-42856632D01*
X50845990Y-42613411D01*
X50957932Y-42343158D01*
X51015000Y-42056260D01*
X51015000Y-41763740D01*
X50957932Y-41476842D01*
X50845990Y-41206589D01*
X50683475Y-40963368D01*
X50476632Y-40756525D01*
X50233411Y-40594010D01*
X49963158Y-40482068D01*
X49676260Y-40425000D01*
X49383740Y-40425000D01*
X49096842Y-40482068D01*
X48826589Y-40594010D01*
X48583368Y-40756525D01*
X48376525Y-40963368D01*
X48214010Y-41206589D01*
X48102068Y-41476842D01*
X48045000Y-41763740D01*
X48045000Y-42056260D01*
X48102068Y-42343158D01*
X48214010Y-42613411D01*
X48376525Y-42856632D01*
X48508380Y-42988487D01*
X48435820Y-43010498D01*
X48325506Y-43069463D01*
X48228815Y-43148815D01*
X48149463Y-43245506D01*
X48090498Y-43355820D01*
X48054188Y-43475518D01*
X48041928Y-43600000D01*
X48041928Y-45300000D01*
X48054188Y-45424482D01*
X48059704Y-45442666D01*
X46672500Y-44055462D01*
X46672500Y-38146784D01*
X46677108Y-38099999D01*
X46658717Y-37913277D01*
X46604252Y-37733732D01*
X46604252Y-37733731D01*
X46515806Y-37568259D01*
X46396778Y-37423222D01*
X46360431Y-37393393D01*
X43886607Y-34919569D01*
X43856778Y-34883222D01*
X43711741Y-34764194D01*
X43546269Y-34675748D01*
X43366723Y-34621283D01*
X43226785Y-34607500D01*
X43180000Y-34602892D01*
X43133215Y-34607500D01*
X39247607Y-34607500D01*
X39046632Y-34406525D01*
X38864466Y-34284805D01*
X38981355Y-34215178D01*
X39197588Y-34020269D01*
X39371641Y-33786920D01*
X39496825Y-33524099D01*
X39541476Y-33376890D01*
X39420155Y-33147000D01*
X38227000Y-33147000D01*
X38227000Y-33167000D01*
X37973000Y-33167000D01*
X37973000Y-33147000D01*
X36779845Y-33147000D01*
X36658524Y-33376890D01*
X36703175Y-33524099D01*
X36828359Y-33786920D01*
X37002412Y-34020269D01*
X37218645Y-34215178D01*
X37335534Y-34284805D01*
X37153368Y-34406525D01*
X36946525Y-34613368D01*
X36784010Y-34856589D01*
X36672068Y-35126842D01*
X36615000Y-35413740D01*
X36220000Y-35413740D01*
X36220000Y-31021042D01*
X36241557Y-31129419D01*
X36298462Y-31317012D01*
X36346100Y-31432020D01*
X36438510Y-31604907D01*
X36507668Y-31708409D01*
X36632031Y-31859946D01*
X36720054Y-31947969D01*
X36871591Y-32072332D01*
X36932714Y-32113173D01*
X36828359Y-32253080D01*
X36703175Y-32515901D01*
X36658524Y-32663110D01*
X36779845Y-32893000D01*
X37973000Y-32893000D01*
X37973000Y-32873000D01*
X38227000Y-32873000D01*
X38227000Y-32893000D01*
X39420155Y-32893000D01*
X39541476Y-32663110D01*
X39496825Y-32515901D01*
X39434476Y-32385000D01*
X88503806Y-32385000D01*
X88605606Y-32395027D01*
X88673506Y-32415623D01*
X88736077Y-32449069D01*
X88790922Y-32494078D01*
X88835931Y-32548923D01*
X88869377Y-32611494D01*
X88889973Y-32679394D01*
X88900000Y-32781194D01*
X88900000Y-42180000D01*
X88903058Y-42242242D01*
X88922273Y-42437332D01*
X88946557Y-42559419D01*
X89003462Y-42747012D01*
X89051100Y-42862020D01*
X89143510Y-43034907D01*
X89212668Y-43138409D01*
X89337031Y-43289946D01*
X89378528Y-43331443D01*
X89365498Y-43355820D01*
X89329188Y-43475518D01*
X89316928Y-43600000D01*
X89316928Y-45300000D01*
X89329188Y-45424482D01*
X89365498Y-45544180D01*
X89424463Y-45654494D01*
X89503815Y-45751185D01*
X89600506Y-45830537D01*
X89710820Y-45889502D01*
X89830518Y-45925812D01*
X89955000Y-45938072D01*
X91655000Y-45938072D01*
X91779482Y-45925812D01*
X91899180Y-45889502D01*
X92009494Y-45830537D01*
X92106185Y-45751185D01*
X92185537Y-45654494D01*
X92244502Y-45544180D01*
X92280812Y-45424482D01*
X92282977Y-45402500D01*
X92315462Y-45402500D01*
X93027501Y-46114540D01*
X93027500Y-49759953D01*
X92984774Y-49863102D01*
X92945000Y-50063061D01*
X92945000Y-50266939D01*
X92984774Y-50466898D01*
X93062795Y-50655256D01*
X93176063Y-50824774D01*
X93320226Y-50968937D01*
X93489744Y-51082205D01*
X93678102Y-51160226D01*
X93878061Y-51200000D01*
X94081939Y-51200000D01*
X94281898Y-51160226D01*
X94470256Y-51082205D01*
X94639774Y-50968937D01*
X94783937Y-50824774D01*
X94897205Y-50655256D01*
X94975226Y-50466898D01*
X95015000Y-50266939D01*
X95015000Y-50063061D01*
X94975226Y-49863102D01*
X94932500Y-49759953D01*
X94932500Y-45766784D01*
X94937108Y-45719999D01*
X94918717Y-45533277D01*
X94885714Y-45424482D01*
X94864252Y-45353731D01*
X94775806Y-45188259D01*
X94656778Y-45043222D01*
X94620436Y-45013397D01*
X93422038Y-43815000D01*
X100746928Y-43815000D01*
X100746928Y-45300000D01*
X100759188Y-45424482D01*
X100795498Y-45544180D01*
X100854463Y-45654494D01*
X100933815Y-45751185D01*
X101030506Y-45830537D01*
X101140820Y-45889502D01*
X101260518Y-45925812D01*
X101385000Y-45938072D01*
X103085000Y-45938072D01*
X103209482Y-45925812D01*
X103329180Y-45889502D01*
X103439494Y-45830537D01*
X103536185Y-45751185D01*
X103615537Y-45654494D01*
X103674502Y-45544180D01*
X103710812Y-45424482D01*
X103723072Y-45300000D01*
X103723072Y-43600000D01*
X103710812Y-43475518D01*
X103674502Y-43355820D01*
X103661472Y-43331443D01*
X103702969Y-43289946D01*
X103827332Y-43138409D01*
X103896490Y-43034907D01*
X103988900Y-42862020D01*
X104036538Y-42747012D01*
X104093443Y-42559419D01*
X104117727Y-42437332D01*
X104136942Y-42242242D01*
X104140000Y-42180000D01*
X104140000Y-27670000D01*
X104136942Y-27607758D01*
X104117727Y-27412668D01*
X104093443Y-27290581D01*
X104036538Y-27102988D01*
X103988900Y-26987980D01*
X103896490Y-26815093D01*
X103827332Y-26711591D01*
X103702969Y-26560054D01*
X103614946Y-26472031D01*
X103463409Y-26347668D01*
X103359907Y-26278510D01*
X103187020Y-26186100D01*
X103072012Y-26138462D01*
X102884419Y-26081557D01*
X102762332Y-26057273D01*
X102567242Y-26038058D01*
X102505000Y-26035000D01*
X37830000Y-26035000D01*
X37767758Y-26038058D01*
X37572668Y-26057273D01*
X37450581Y-26081557D01*
X37262988Y-26138462D01*
X37147980Y-26186100D01*
X36975093Y-26278510D01*
X36871591Y-26347668D01*
X36720054Y-26472031D01*
X36632031Y-26560054D01*
X36507668Y-26711591D01*
X36438510Y-26815093D01*
X36346100Y-26987980D01*
X36298462Y-27102988D01*
X36241557Y-27290581D01*
X36220000Y-27398958D01*
X36220000Y-25432279D01*
X36258909Y-25035455D01*
X36364780Y-24684792D01*
X36536744Y-24361375D01*
X36768254Y-24077516D01*
X37050486Y-23844035D01*
X37372695Y-23669817D01*
X37722614Y-23561498D01*
X38117443Y-23520000D01*
X102837721Y-23520000D01*
X103234545Y-23558909D01*
%TD*%
M02*
